M48
; DRILL file {KiCad (5.1.10)-1} date 10/29/21 11:31:21
; FORMAT={-:-/ absolute / inch / decimal}
; #@! TF.CreationDate,2021-10-29T11:31:21-04:00
; #@! TF.GenerationSoftware,Kicad,Pcbnew,(5.1.10)-1
; #@! TF.FileFunction,Plated,1,4,PTH
FMAT,2
INCH
T1C0.0295
T2C0.0300
T3C0.0315
T4C0.0354
T5C0.0394
T6C0.0402
T7C0.1260
%
G90
G05
T1
X5.725Y-2.55
X5.725Y-2.6
X5.725Y-2.65
T2
X4.15Y-3.975
X4.15Y-4.075
X4.15Y-4.175
X4.15Y-4.275
T3
X2.875Y-5.575
X2.875Y-5.675
X2.875Y-5.775
X4.775Y-3.775
T4
X2.975Y-3.7
X2.975Y-4.15
X2.975Y-4.625
X3.075Y-3.7
X3.075Y-4.15
X3.075Y-4.625
X4.075Y-4.675
X4.175Y-4.675
X5.5Y-1.9
X5.6Y-1.9
T5
X2.525Y-2.05
X2.525Y-2.15
X2.525Y-2.25
X2.525Y-2.35
X2.525Y-2.45
X3.25Y-5.2
X3.25Y-5.675
X3.25Y-6.075
X3.35Y-5.2
X3.35Y-5.675
X3.35Y-6.075
X3.825Y-4.975
X3.825Y-5.075
X3.825Y-5.175
X3.825Y-5.275
X3.825Y-5.375
X3.825Y-5.475
X3.825Y-5.575
X3.825Y-5.675
X3.825Y-5.775
X3.825Y-5.875
X3.825Y-5.975
X3.825Y-6.075
X3.825Y-6.175
X4.275Y-1.65
X4.275Y-1.75
X4.275Y-1.85
X4.275Y-1.95
X4.275Y-2.05
X4.275Y-2.15
X4.275Y-2.25
X4.275Y-2.35
X4.275Y-2.45
X4.275Y-2.55
X4.275Y-2.65
X4.275Y-2.75
X4.275Y-2.85
X4.275Y-2.95
X4.275Y-3.05
X4.275Y-3.15
X4.275Y-3.25
X4.275Y-3.35
X4.275Y-3.45
X4.275Y-3.55
X5.175Y-1.65
X5.175Y-1.75
X5.175Y-1.85
X5.175Y-1.95
X5.175Y-2.05
X5.175Y-2.15
X5.175Y-2.25
X5.175Y-2.35
X5.175Y-2.45
X5.175Y-2.55
X5.175Y-2.65
X5.175Y-2.75
X5.175Y-2.85
X5.175Y-2.95
X5.175Y-3.05
X5.175Y-3.15
X5.175Y-3.25
X5.175Y-3.35
X5.175Y-3.45
X5.175Y-3.55
X5.225Y-4.975
X5.225Y-5.075
X5.225Y-5.175
X5.225Y-5.275
X5.225Y-5.375
X5.225Y-5.475
X5.225Y-5.575
X5.225Y-5.675
X5.225Y-5.775
X5.225Y-5.875
X5.225Y-5.975
X5.225Y-6.075
X5.225Y-6.175
X5.4275Y-4.3075
X5.4275Y-4.6825
X5.9225Y-4.3075
X5.9225Y-4.6825
T6
X3.05Y-2.3
X3.05Y-2.5
X3.075Y-1.775
X3.075Y-1.975
X3.35Y-2.3
X3.35Y-2.5
X3.375Y-1.775
X3.375Y-1.975
X3.675Y-1.6
X3.775Y-1.6
X3.875Y-1.6
X3.975Y-1.6
X4.3709Y-1.6533
X4.3709Y-1.7533
X4.3709Y-1.8533
X4.3709Y-1.9533
X4.3709Y-2.0533
X4.3709Y-2.1533
X4.3709Y-2.2533
X4.3709Y-2.3533
X4.3709Y-2.4533
X4.3709Y-2.5533
X4.3709Y-2.6533
X4.3709Y-2.7533
X4.3709Y-2.8533
X4.3709Y-2.9533
X4.3709Y-3.0533
X4.3709Y-3.1533
X4.3709Y-3.2533
X4.3709Y-3.3533
X4.3709Y-3.4533
X4.3709Y-3.5533
X4.6209Y-3.5443
X4.7209Y-3.5443
X4.8209Y-3.5443
X5.0709Y-1.6533
X5.0709Y-1.7533
X5.0709Y-1.8533
X5.0709Y-1.9533
X5.0709Y-2.0533
X5.0709Y-2.1533
X5.0709Y-2.2533
X5.0709Y-2.3533
X5.0709Y-2.4533
X5.0709Y-2.5533
X5.0709Y-2.6533
X5.0709Y-2.7533
X5.0709Y-2.8533
X5.0709Y-2.9533
X5.0709Y-3.0533
X5.0709Y-3.1533
X5.0709Y-3.2533
X5.0709Y-3.3533
X5.0709Y-3.4533
X5.0709Y-3.5533
T7
X2.625Y-1.625
X2.625Y-6.125
X5.875Y-1.625
X5.875Y-6.125
T5
X2.8138Y-2.9356G85X2.8138Y-3.0144
G05
X2.8925Y-3.16G85X2.9713Y-3.16
G05
X3.05Y-2.9356G85X3.05Y-3.0144
G05
X5.85Y-3.4419G85X5.85Y-3.5207
G05
X5.85Y-3.6388G85X5.85Y-3.7175
G05
X5.85Y-3.8356G85X5.85Y-3.9144
G05
T0
M30
