%TF.GenerationSoftware,KiCad,Pcbnew,(5.1.10)-1*%
%TF.CreationDate,2021-10-29T11:14:33-04:00*%
%TF.ProjectId,A7585-test-board,41373538-352d-4746-9573-742d626f6172,rev?*%
%TF.SameCoordinates,Original*%
%TF.FileFunction,Soldermask,Bot*%
%TF.FilePolarity,Negative*%
%FSLAX46Y46*%
G04 Gerber Fmt 4.6, Leading zero omitted, Abs format (unit mm)*
G04 Created by KiCad (PCBNEW (5.1.10)-1) date 2021-10-29 11:14:33*
%MOMM*%
%LPD*%
G01*
G04 APERTURE LIST*
%ADD10O,1.700000X1.700000*%
%ADD11R,1.700000X1.700000*%
%ADD12O,1.500000X1.500000*%
%ADD13O,1.800000X1.800000*%
%ADD14C,1.700000*%
%ADD15C,1.524000*%
%ADD16R,1.600000X1.600000*%
%ADD17O,1.600000X1.600000*%
%ADD18C,1.600000*%
%ADD19R,3.000000X3.500000*%
%ADD20C,2.000000*%
%ADD21R,1.500000X1.050000*%
%ADD22O,1.500000X1.050000*%
%ADD23C,6.400000*%
%ADD24C,1.800000*%
%ADD25R,1.800000X1.800000*%
%ADD26R,3.500000X3.500000*%
G04 APERTURE END LIST*
D10*
%TO.C,SW301*%
X64135000Y-62230000D03*
X64135000Y-59690000D03*
X64135000Y-57150000D03*
X64135000Y-54610000D03*
D11*
X64135000Y-52070000D03*
%TD*%
D10*
%TO.C,SW303*%
X77470000Y-63500000D03*
X77470000Y-58420000D03*
X85090000Y-58420000D03*
X85090000Y-63500000D03*
%TD*%
%TO.C,U300*%
X122450000Y-90025000D03*
D11*
X119910000Y-90025000D03*
D10*
X117370000Y-90025000D03*
D12*
X122335000Y-45155000D03*
X117485000Y-45155000D03*
D13*
X122635000Y-42125000D03*
X117185000Y-42125000D03*
D10*
X128800000Y-41995000D03*
X128800000Y-44535000D03*
D11*
X128800000Y-47075000D03*
D10*
X128800000Y-49615000D03*
X128800000Y-52155000D03*
X128800000Y-54695000D03*
X128800000Y-57235000D03*
D11*
X128800000Y-59775000D03*
D10*
X128800000Y-62315000D03*
X128800000Y-64855000D03*
X128800000Y-67395000D03*
X128800000Y-69935000D03*
D11*
X128800000Y-72475000D03*
D10*
X128800000Y-75015000D03*
X128800000Y-77555000D03*
X128800000Y-80095000D03*
X128800000Y-82635000D03*
D11*
X128800000Y-85175000D03*
D10*
X128800000Y-87715000D03*
X128800000Y-90255000D03*
X111020000Y-90255000D03*
X111020000Y-87715000D03*
D11*
X111020000Y-85175000D03*
D10*
X111020000Y-82635000D03*
X111020000Y-80095000D03*
X111020000Y-77555000D03*
X111020000Y-75015000D03*
D11*
X111020000Y-72475000D03*
D10*
X111020000Y-69935000D03*
X111020000Y-67395000D03*
X111020000Y-64855000D03*
X111020000Y-62315000D03*
D11*
X111020000Y-59775000D03*
D10*
X111020000Y-57235000D03*
X111020000Y-54695000D03*
X111020000Y-52155000D03*
X111020000Y-49615000D03*
D11*
X111020000Y-47075000D03*
D10*
X111020000Y-44535000D03*
X111020000Y-41995000D03*
%TD*%
D14*
%TO.C,U200*%
X97155000Y-126365000D03*
X97155000Y-128905000D03*
X97155000Y-131445000D03*
X97155000Y-133985000D03*
X97155000Y-136525000D03*
X97155000Y-139065000D03*
X97155000Y-141605000D03*
X97155000Y-144145000D03*
X97155000Y-146685000D03*
X97155000Y-149225000D03*
X97155000Y-151765000D03*
X97155000Y-154305000D03*
X97155000Y-156845000D03*
X132715000Y-156845000D03*
X132715000Y-154305000D03*
X132715000Y-151765000D03*
X132715000Y-149225000D03*
X132715000Y-146685000D03*
X132715000Y-144145000D03*
X132715000Y-141605000D03*
X132715000Y-139065000D03*
X132715000Y-136525000D03*
X132715000Y-133985000D03*
X132715000Y-131445000D03*
X132715000Y-128905000D03*
X132715000Y-126365000D03*
%TD*%
D15*
%TO.C,U100*%
X105410000Y-108585000D03*
X105410000Y-106045000D03*
X105410000Y-103505000D03*
X105410000Y-100965000D03*
%TD*%
D10*
%TO.C,SW302*%
X78105000Y-50165000D03*
X78105000Y-45085000D03*
X85725000Y-45085000D03*
X85725000Y-50165000D03*
%TD*%
D16*
%TO.C,SW201*%
X73025000Y-141605000D03*
D17*
X73025000Y-146685000D03*
D18*
X73025000Y-144145000D03*
%TD*%
D19*
%TO.C,RV301*%
X148590000Y-88425000D03*
X148590000Y-93425000D03*
X148590000Y-98425000D03*
%TD*%
D20*
%TO.C,J201*%
X137858500Y-109410500D03*
X150431500Y-109410500D03*
%TD*%
%TO.C,J200*%
X137858500Y-118935500D03*
X150431500Y-118935500D03*
%TD*%
D14*
%TO.C,J1*%
X93345000Y-40640000D03*
D10*
X95885000Y-40640000D03*
X98425000Y-40640000D03*
X100965000Y-40640000D03*
%TD*%
D21*
%TO.C,U301*%
X145415000Y-64770000D03*
D22*
X145415000Y-67310000D03*
X145415000Y-66040000D03*
%TD*%
D23*
%TO.C,H4*%
X66675000Y-155575000D03*
%TD*%
%TO.C,H3*%
X149225000Y-41275000D03*
%TD*%
%TO.C,H2*%
X149225000Y-155575000D03*
%TD*%
%TO.C,H1*%
X66675000Y-41275000D03*
%TD*%
D24*
%TO.C,D301*%
X106045000Y-118745000D03*
D25*
X103505000Y-118745000D03*
%TD*%
D24*
%TO.C,D300*%
X142240000Y-48260000D03*
D25*
X139700000Y-48260000D03*
%TD*%
D24*
%TO.C,D202*%
X78105000Y-117475000D03*
D25*
X75565000Y-117475000D03*
%TD*%
D24*
%TO.C,D201*%
X78105000Y-105410000D03*
D25*
X75565000Y-105410000D03*
%TD*%
D24*
%TO.C,D101*%
X78105000Y-93980000D03*
D25*
X75565000Y-93980000D03*
%TD*%
D10*
%TO.C,J3*%
X131445000Y-90170000D03*
X131445000Y-87630000D03*
X131445000Y-85090000D03*
X131445000Y-82550000D03*
X131445000Y-80010000D03*
X131445000Y-77470000D03*
X131445000Y-74930000D03*
X131445000Y-72390000D03*
X131445000Y-69850000D03*
X131445000Y-67310000D03*
X131445000Y-64770000D03*
X131445000Y-62230000D03*
X131445000Y-59690000D03*
X131445000Y-57150000D03*
X131445000Y-54610000D03*
X131445000Y-52070000D03*
X131445000Y-49530000D03*
X131445000Y-46990000D03*
X131445000Y-44450000D03*
D11*
X131445000Y-41910000D03*
%TD*%
D10*
%TO.C,J2*%
X108585000Y-41910000D03*
X108585000Y-44450000D03*
X108585000Y-46990000D03*
X108585000Y-49530000D03*
X108585000Y-52070000D03*
X108585000Y-54610000D03*
X108585000Y-57150000D03*
X108585000Y-59690000D03*
X108585000Y-62230000D03*
X108585000Y-64770000D03*
X108585000Y-67310000D03*
X108585000Y-69850000D03*
X108585000Y-72390000D03*
X108585000Y-74930000D03*
X108585000Y-77470000D03*
X108585000Y-80010000D03*
X108585000Y-82550000D03*
X108585000Y-85090000D03*
X108585000Y-87630000D03*
D11*
X108585000Y-90170000D03*
%TD*%
D10*
%TO.C,JP202*%
X85090000Y-154305000D03*
D11*
X82550000Y-154305000D03*
%TD*%
D10*
%TO.C,JP201*%
X85090000Y-144145000D03*
D11*
X82550000Y-144145000D03*
%TD*%
D10*
%TO.C,JP3*%
X85090000Y-132080000D03*
D11*
X82550000Y-132080000D03*
%TD*%
%TO.C,J100*%
G36*
G01*
X72720000Y-81140000D02*
X72720000Y-79390000D01*
G75*
G02*
X73595000Y-78515000I875000J0D01*
G01*
X75345000Y-78515000D01*
G75*
G02*
X76220000Y-79390000I0J-875000D01*
G01*
X76220000Y-81140000D01*
G75*
G02*
X75345000Y-82015000I-875000J0D01*
G01*
X73595000Y-82015000D01*
G75*
G02*
X72720000Y-81140000I0J875000D01*
G01*
G37*
G36*
G01*
X69970000Y-76565000D02*
X69970000Y-74565000D01*
G75*
G02*
X70720000Y-73815000I750000J0D01*
G01*
X72220000Y-73815000D01*
G75*
G02*
X72970000Y-74565000I0J-750000D01*
G01*
X72970000Y-76565000D01*
G75*
G02*
X72220000Y-77315000I-750000J0D01*
G01*
X70720000Y-77315000D01*
G75*
G02*
X69970000Y-76565000I0J750000D01*
G01*
G37*
D26*
X77470000Y-75565000D03*
%TD*%
M02*
