%TF.GenerationSoftware,KiCad,Pcbnew,(5.1.10)-1*%
%TF.CreationDate,2021-10-29T11:14:32-04:00*%
%TF.ProjectId,A7585-test-board,41373538-352d-4746-9573-742d626f6172,rev?*%
%TF.SameCoordinates,Original*%
%TF.FileFunction,Copper,L1,Top*%
%TF.FilePolarity,Positive*%
%FSLAX46Y46*%
G04 Gerber Fmt 4.6, Leading zero omitted, Abs format (unit mm)*
G04 Created by KiCad (PCBNEW (5.1.10)-1) date 2021-10-29 11:14:32*
%MOMM*%
%LPD*%
G01*
G04 APERTURE LIST*
%TA.AperFunction,ComponentPad*%
%ADD10O,1.700000X1.700000*%
%TD*%
%TA.AperFunction,ComponentPad*%
%ADD11R,1.700000X1.700000*%
%TD*%
%TA.AperFunction,ComponentPad*%
%ADD12C,1.700000*%
%TD*%
%TA.AperFunction,ComponentPad*%
%ADD13C,1.524000*%
%TD*%
%TA.AperFunction,ComponentPad*%
%ADD14R,1.600000X1.600000*%
%TD*%
%TA.AperFunction,ComponentPad*%
%ADD15O,1.600000X1.600000*%
%TD*%
%TA.AperFunction,ComponentPad*%
%ADD16C,1.600000*%
%TD*%
%TA.AperFunction,ComponentPad*%
%ADD17R,3.000000X3.500000*%
%TD*%
%TA.AperFunction,ComponentPad*%
%ADD18C,2.000000*%
%TD*%
%TA.AperFunction,ComponentPad*%
%ADD19R,1.500000X1.050000*%
%TD*%
%TA.AperFunction,ComponentPad*%
%ADD20O,1.500000X1.050000*%
%TD*%
%TA.AperFunction,ComponentPad*%
%ADD21C,6.400000*%
%TD*%
%TA.AperFunction,ComponentPad*%
%ADD22C,1.800000*%
%TD*%
%TA.AperFunction,ComponentPad*%
%ADD23R,1.800000X1.800000*%
%TD*%
%TA.AperFunction,ComponentPad*%
%ADD24R,3.500000X3.500000*%
%TD*%
%TA.AperFunction,ViaPad*%
%ADD25C,1.600000*%
%TD*%
%TA.AperFunction,Conductor*%
%ADD26C,0.400000*%
%TD*%
%TA.AperFunction,Conductor*%
%ADD27C,0.250000*%
%TD*%
G04 APERTURE END LIST*
%TO.P,C313,2*%
%TO.N,GND*%
%TA.AperFunction,SMDPad,CuDef*%
G36*
G01*
X86979999Y-86625000D02*
X88280001Y-86625000D01*
G75*
G02*
X88530000Y-86874999I0J-249999D01*
G01*
X88530000Y-87525001D01*
G75*
G02*
X88280001Y-87775000I-249999J0D01*
G01*
X86979999Y-87775000D01*
G75*
G02*
X86730000Y-87525001I0J249999D01*
G01*
X86730000Y-86874999D01*
G75*
G02*
X86979999Y-86625000I249999J0D01*
G01*
G37*
%TD.AperFunction*%
%TO.P,C313,1*%
%TO.N,Net-(C313-Pad1)*%
%TA.AperFunction,SMDPad,CuDef*%
G36*
G01*
X86979999Y-83675000D02*
X88280001Y-83675000D01*
G75*
G02*
X88530000Y-83924999I0J-249999D01*
G01*
X88530000Y-84575001D01*
G75*
G02*
X88280001Y-84825000I-249999J0D01*
G01*
X86979999Y-84825000D01*
G75*
G02*
X86730000Y-84575001I0J249999D01*
G01*
X86730000Y-83924999D01*
G75*
G02*
X86979999Y-83675000I249999J0D01*
G01*
G37*
%TD.AperFunction*%
%TD*%
%TO.P,C311,2*%
%TO.N,GND*%
%TA.AperFunction,SMDPad,CuDef*%
G36*
G01*
X86979999Y-70750000D02*
X88280001Y-70750000D01*
G75*
G02*
X88530000Y-70999999I0J-249999D01*
G01*
X88530000Y-71650001D01*
G75*
G02*
X88280001Y-71900000I-249999J0D01*
G01*
X86979999Y-71900000D01*
G75*
G02*
X86730000Y-71650001I0J249999D01*
G01*
X86730000Y-70999999D01*
G75*
G02*
X86979999Y-70750000I249999J0D01*
G01*
G37*
%TD.AperFunction*%
%TO.P,C311,1*%
%TO.N,Net-(C311-Pad1)*%
%TA.AperFunction,SMDPad,CuDef*%
G36*
G01*
X86979999Y-67800000D02*
X88280001Y-67800000D01*
G75*
G02*
X88530000Y-68049999I0J-249999D01*
G01*
X88530000Y-68700001D01*
G75*
G02*
X88280001Y-68950000I-249999J0D01*
G01*
X86979999Y-68950000D01*
G75*
G02*
X86730000Y-68700001I0J249999D01*
G01*
X86730000Y-68049999D01*
G75*
G02*
X86979999Y-67800000I249999J0D01*
G01*
G37*
%TD.AperFunction*%
%TD*%
%TO.P,C112,2*%
%TO.N,GND*%
%TA.AperFunction,SMDPad,CuDef*%
G36*
G01*
X86979999Y-78370000D02*
X88280001Y-78370000D01*
G75*
G02*
X88530000Y-78619999I0J-249999D01*
G01*
X88530000Y-79270001D01*
G75*
G02*
X88280001Y-79520000I-249999J0D01*
G01*
X86979999Y-79520000D01*
G75*
G02*
X86730000Y-79270001I0J249999D01*
G01*
X86730000Y-78619999D01*
G75*
G02*
X86979999Y-78370000I249999J0D01*
G01*
G37*
%TD.AperFunction*%
%TO.P,C112,1*%
%TO.N,Net-(C112-Pad1)*%
%TA.AperFunction,SMDPad,CuDef*%
G36*
G01*
X86979999Y-75420000D02*
X88280001Y-75420000D01*
G75*
G02*
X88530000Y-75669999I0J-249999D01*
G01*
X88530000Y-76320001D01*
G75*
G02*
X88280001Y-76570000I-249999J0D01*
G01*
X86979999Y-76570000D01*
G75*
G02*
X86730000Y-76320001I0J249999D01*
G01*
X86730000Y-75669999D01*
G75*
G02*
X86979999Y-75420000I249999J0D01*
G01*
G37*
%TD.AperFunction*%
%TD*%
D10*
%TO.P,SW301,1*%
%TO.N,GND*%
X64135000Y-62230000D03*
%TO.P,SW301,2*%
%TO.N,VCC*%
X64135000Y-59690000D03*
%TO.P,SW301,3*%
%TO.N,Net-(C313-Pad1)*%
X64135000Y-57150000D03*
%TO.P,SW301,4*%
%TO.N,Net-(C112-Pad1)*%
X64135000Y-54610000D03*
D11*
%TO.P,SW301,5*%
%TO.N,Net-(C311-Pad1)*%
X64135000Y-52070000D03*
%TD*%
D10*
%TO.P,SW303,1*%
%TO.N,GND*%
X77470000Y-63500000D03*
%TO.P,SW303,4*%
%TO.N,N/C*%
X77470000Y-58420000D03*
%TO.P,SW303,3*%
%TO.N,VCC*%
X85090000Y-58420000D03*
%TO.P,SW303,2*%
%TO.N,Net-(J2-Pad16)*%
X85090000Y-63500000D03*
%TD*%
%TO.P,U300,43*%
%TO.N,Net-(U300-Pad43)*%
X122450000Y-90025000D03*
D11*
%TO.P,U300,42*%
%TO.N,Net-(U300-Pad42)*%
X119910000Y-90025000D03*
D10*
%TO.P,U300,41*%
%TO.N,Net-(U300-Pad41)*%
X117370000Y-90025000D03*
%TO.P,U300,40*%
%TO.N,Net-(J3-Pad1)*%
X128800000Y-41995000D03*
%TO.P,U300,39*%
%TO.N,Net-(D300-Pad1)*%
X128800000Y-44535000D03*
D11*
%TO.P,U300,38*%
%TO.N,GND*%
X128800000Y-47075000D03*
D10*
%TO.P,U300,37*%
%TO.N,Net-(J3-Pad4)*%
X128800000Y-49615000D03*
%TO.P,U300,36*%
%TO.N,Net-(J3-Pad5)*%
X128800000Y-52155000D03*
%TO.P,U300,35*%
%TO.N,Net-(C302-Pad1)*%
X128800000Y-54695000D03*
%TO.P,U300,34*%
%TO.N,Net-(J3-Pad7)*%
X128800000Y-57235000D03*
D11*
%TO.P,U300,33*%
%TO.N,GND*%
X128800000Y-59775000D03*
D10*
%TO.P,U300,32*%
%TO.N,Net-(J3-Pad9)*%
X128800000Y-62315000D03*
%TO.P,U300,31*%
%TO.N,Net-(J3-Pad10)*%
X128800000Y-64855000D03*
%TO.P,U300,30*%
%TO.N,Net-(J3-Pad11)*%
X128800000Y-67395000D03*
%TO.P,U300,29*%
%TO.N,Net-(J3-Pad12)*%
X128800000Y-69935000D03*
D11*
%TO.P,U300,28*%
%TO.N,GND*%
X128800000Y-72475000D03*
D10*
%TO.P,U300,27*%
%TO.N,Net-(J3-Pad14)*%
X128800000Y-75015000D03*
%TO.P,U300,26*%
%TO.N,Net-(J3-Pad15)*%
X128800000Y-77555000D03*
%TO.P,U300,25*%
%TO.N,Net-(J3-Pad16)*%
X128800000Y-80095000D03*
%TO.P,U300,24*%
%TO.N,Net-(J3-Pad17)*%
X128800000Y-82635000D03*
D11*
%TO.P,U300,23*%
%TO.N,GND*%
X128800000Y-85175000D03*
D10*
%TO.P,U300,22*%
%TO.N,Net-(J3-Pad19)*%
X128800000Y-87715000D03*
%TO.P,U300,21*%
%TO.N,Net-(D301-Pad2)*%
X128800000Y-90255000D03*
%TO.P,U300,20*%
%TO.N,Net-(J1-Pad3)*%
X111020000Y-90255000D03*
%TO.P,U300,19*%
%TO.N,Net-(J1-Pad4)*%
X111020000Y-87715000D03*
D11*
%TO.P,U300,18*%
%TO.N,GND*%
X111020000Y-85175000D03*
D10*
%TO.P,U300,17*%
%TO.N,Net-(J2-Pad4)*%
X111020000Y-82635000D03*
%TO.P,U300,16*%
%TO.N,Net-(J2-Pad5)*%
X111020000Y-80095000D03*
%TO.P,U300,15*%
%TO.N,Net-(J2-Pad6)*%
X111020000Y-77555000D03*
%TO.P,U300,14*%
%TO.N,Net-(J2-Pad7)*%
X111020000Y-75015000D03*
D11*
%TO.P,U300,13*%
%TO.N,GND*%
X111020000Y-72475000D03*
D10*
%TO.P,U300,12*%
%TO.N,Net-(J2-Pad9)*%
X111020000Y-69935000D03*
%TO.P,U300,11*%
%TO.N,Net-(C313-Pad1)*%
X111020000Y-67395000D03*
%TO.P,U300,10*%
%TO.N,Net-(C112-Pad1)*%
X111020000Y-64855000D03*
%TO.P,U300,9*%
%TO.N,Net-(C311-Pad1)*%
X111020000Y-62315000D03*
D11*
%TO.P,U300,8*%
%TO.N,GND*%
X111020000Y-59775000D03*
D10*
%TO.P,U300,7*%
%TO.N,Net-(J2-Pad14)*%
X111020000Y-57235000D03*
%TO.P,U300,6*%
%TO.N,Net-(J2-Pad15)*%
X111020000Y-54695000D03*
%TO.P,U300,5*%
%TO.N,Net-(J2-Pad16)*%
X111020000Y-52155000D03*
%TO.P,U300,4*%
%TO.N,Net-(J2-Pad17)*%
X111020000Y-49615000D03*
D11*
%TO.P,U300,3*%
%TO.N,GND*%
X111020000Y-47075000D03*
D10*
%TO.P,U300,2*%
%TO.N,Net-(J2-Pad19)*%
X111020000Y-44535000D03*
%TO.P,U300,1*%
%TO.N,Net-(J2-Pad20)*%
X111020000Y-41995000D03*
%TD*%
D12*
%TO.P,U200,1*%
%TO.N,GND*%
X97155000Y-126365000D03*
%TO.P,U200,2*%
%TO.N,Net-(D201-Pad2)*%
X97155000Y-128905000D03*
%TO.P,U200,3*%
%TO.N,Net-(D202-Pad2)*%
X97155000Y-131445000D03*
%TO.P,U200,4*%
%TO.N,Net-(JP3-Pad2)*%
X97155000Y-133985000D03*
%TO.P,U200,5*%
%TO.N,Net-(U200-Pad5)*%
X97155000Y-136525000D03*
%TO.P,U200,6*%
%TO.N,Net-(U200-Pad6)*%
X97155000Y-139065000D03*
%TO.P,U200,7*%
%TO.N,Net-(U200-Pad7)*%
X97155000Y-141605000D03*
%TO.P,U200,8*%
%TO.N,GND*%
X97155000Y-144145000D03*
%TO.P,U200,9*%
%TO.N,Net-(SW201-Pad2)*%
X97155000Y-146685000D03*
%TO.P,U200,10*%
%TO.N,Net-(U200-Pad10)*%
X97155000Y-149225000D03*
%TO.P,U200,11*%
%TO.N,Net-(JP201-Pad2)*%
X97155000Y-151765000D03*
%TO.P,U200,12*%
%TO.N,Net-(JP202-Pad2)*%
X97155000Y-154305000D03*
%TO.P,U200,13*%
%TO.N,Net-(U200-Pad13)*%
X97155000Y-156845000D03*
%TO.P,U200,14*%
%TO.N,Net-(C205-Pad1)*%
X132715000Y-156845000D03*
%TO.P,U200,15*%
X132715000Y-154305000D03*
%TO.P,U200,16*%
%TO.N,GND*%
X132715000Y-151765000D03*
%TO.P,U200,17*%
%TO.N,Net-(J3-Pad9)*%
X132715000Y-149225000D03*
%TO.P,U200,18*%
%TO.N,Net-(J3-Pad10)*%
X132715000Y-146685000D03*
%TO.P,U200,19*%
%TO.N,Net-(U200-Pad19)*%
X132715000Y-144145000D03*
%TO.P,U200,20*%
%TO.N,Net-(U200-Pad20)*%
X132715000Y-141605000D03*
%TO.P,U200,21*%
%TO.N,Net-(J3-Pad14)*%
X132715000Y-139065000D03*
%TO.P,U200,22*%
%TO.N,Net-(J3-Pad15)*%
X132715000Y-136525000D03*
%TO.P,U200,23*%
%TO.N,VCC*%
X132715000Y-133985000D03*
%TO.P,U200,24*%
%TO.N,VSS*%
X132715000Y-131445000D03*
%TO.P,U200,25*%
X132715000Y-128905000D03*
%TO.P,U200,26*%
%TO.N,GND*%
X132715000Y-126365000D03*
%TD*%
D13*
%TO.P,U100,4*%
%TO.N,GND*%
X105410000Y-108585000D03*
%TO.P,U100,3*%
%TO.N,VCC*%
X105410000Y-106045000D03*
%TO.P,U100,2*%
%TO.N,VSS*%
X105410000Y-103505000D03*
%TO.P,U100,1*%
%TO.N,Net-(U100-Pad1)*%
X105410000Y-100965000D03*
%TD*%
D10*
%TO.P,SW302,1*%
%TO.N,GND*%
X78105000Y-50165000D03*
%TO.P,SW302,4*%
%TO.N,N/C*%
X78105000Y-45085000D03*
%TO.P,SW302,3*%
%TO.N,VCC*%
X85725000Y-45085000D03*
%TO.P,SW302,2*%
%TO.N,Net-(J2-Pad17)*%
X85725000Y-50165000D03*
%TD*%
D14*
%TO.P,SW201,1*%
%TO.N,GND*%
X73025000Y-141605000D03*
D15*
%TO.P,SW201,2*%
%TO.N,Net-(SW201-Pad2)*%
X73025000Y-146685000D03*
D16*
%TO.P,SW201,3*%
%TO.N,Net-(R203-Pad2)*%
X73025000Y-144145000D03*
%TD*%
D17*
%TO.P,RV301,3*%
%TO.N,GND*%
X148590000Y-88425000D03*
%TO.P,RV301,2*%
%TO.N,Net-(J3-Pad7)*%
X148590000Y-93425000D03*
%TO.P,RV301,1*%
%TO.N,VCC*%
X148590000Y-98425000D03*
%TD*%
D18*
%TO.P,J201,1*%
%TO.N,GND*%
X137858500Y-109410500D03*
%TO.P,J201,2*%
%TO.N,N/C*%
X150431500Y-109410500D03*
%TD*%
%TO.P,J200,1*%
%TO.N,Net-(C205-Pad1)*%
X137858500Y-118935500D03*
%TO.P,J200,2*%
%TO.N,N/C*%
X150431500Y-118935500D03*
%TD*%
D12*
%TO.P,J1,1*%
%TO.N,GND*%
X93345000Y-40640000D03*
D10*
%TO.P,J1,2*%
%TO.N,VCC*%
X95885000Y-40640000D03*
%TO.P,J1,3*%
%TO.N,Net-(J1-Pad3)*%
X98425000Y-40640000D03*
%TO.P,J1,4*%
%TO.N,Net-(J1-Pad4)*%
X100965000Y-40640000D03*
%TD*%
D19*
%TO.P,U301,1*%
%TO.N,N/C*%
X145415000Y-64770000D03*
D20*
%TO.P,U301,3*%
%TO.N,GND*%
X145415000Y-67310000D03*
%TO.P,U301,2*%
%TO.N,Net-(C302-Pad1)*%
X145415000Y-66040000D03*
%TD*%
%TO.P,R302,2*%
%TO.N,Net-(C302-Pad1)*%
%TA.AperFunction,SMDPad,CuDef*%
G36*
G01*
X146040001Y-72760000D02*
X144789999Y-72760000D01*
G75*
G02*
X144540000Y-72510001I0J249999D01*
G01*
X144540000Y-71884999D01*
G75*
G02*
X144789999Y-71635000I249999J0D01*
G01*
X146040001Y-71635000D01*
G75*
G02*
X146290000Y-71884999I0J-249999D01*
G01*
X146290000Y-72510001D01*
G75*
G02*
X146040001Y-72760000I-249999J0D01*
G01*
G37*
%TD.AperFunction*%
%TO.P,R302,1*%
%TO.N,VCC*%
%TA.AperFunction,SMDPad,CuDef*%
G36*
G01*
X146040001Y-75685000D02*
X144789999Y-75685000D01*
G75*
G02*
X144540000Y-75435001I0J249999D01*
G01*
X144540000Y-74809999D01*
G75*
G02*
X144789999Y-74560000I249999J0D01*
G01*
X146040001Y-74560000D01*
G75*
G02*
X146290000Y-74809999I0J-249999D01*
G01*
X146290000Y-75435001D01*
G75*
G02*
X146040001Y-75685000I-249999J0D01*
G01*
G37*
%TD.AperFunction*%
%TD*%
%TO.P,C302,2*%
%TO.N,GND*%
%TA.AperFunction,SMDPad,CuDef*%
G36*
G01*
X145430001Y-57520000D02*
X144129999Y-57520000D01*
G75*
G02*
X143880000Y-57270001I0J249999D01*
G01*
X143880000Y-56619999D01*
G75*
G02*
X144129999Y-56370000I249999J0D01*
G01*
X145430001Y-56370000D01*
G75*
G02*
X145680000Y-56619999I0J-249999D01*
G01*
X145680000Y-57270001D01*
G75*
G02*
X145430001Y-57520000I-249999J0D01*
G01*
G37*
%TD.AperFunction*%
%TO.P,C302,1*%
%TO.N,Net-(C302-Pad1)*%
%TA.AperFunction,SMDPad,CuDef*%
G36*
G01*
X145430001Y-60470000D02*
X144129999Y-60470000D01*
G75*
G02*
X143880000Y-60220001I0J249999D01*
G01*
X143880000Y-59569999D01*
G75*
G02*
X144129999Y-59320000I249999J0D01*
G01*
X145430001Y-59320000D01*
G75*
G02*
X145680000Y-59569999I0J-249999D01*
G01*
X145680000Y-60220001D01*
G75*
G02*
X145430001Y-60470000I-249999J0D01*
G01*
G37*
%TD.AperFunction*%
%TD*%
%TO.P,C205,2*%
%TO.N,GND*%
%TA.AperFunction,SMDPad,CuDef*%
G36*
G01*
X124195000Y-153654999D02*
X124195000Y-154955001D01*
G75*
G02*
X123945001Y-155205000I-249999J0D01*
G01*
X123294999Y-155205000D01*
G75*
G02*
X123045000Y-154955001I0J249999D01*
G01*
X123045000Y-153654999D01*
G75*
G02*
X123294999Y-153405000I249999J0D01*
G01*
X123945001Y-153405000D01*
G75*
G02*
X124195000Y-153654999I0J-249999D01*
G01*
G37*
%TD.AperFunction*%
%TO.P,C205,1*%
%TO.N,Net-(C205-Pad1)*%
%TA.AperFunction,SMDPad,CuDef*%
G36*
G01*
X127145000Y-153654999D02*
X127145000Y-154955001D01*
G75*
G02*
X126895001Y-155205000I-249999J0D01*
G01*
X126244999Y-155205000D01*
G75*
G02*
X125995000Y-154955001I0J249999D01*
G01*
X125995000Y-153654999D01*
G75*
G02*
X126244999Y-153405000I249999J0D01*
G01*
X126895001Y-153405000D01*
G75*
G02*
X127145000Y-153654999I0J-249999D01*
G01*
G37*
%TD.AperFunction*%
%TD*%
D21*
%TO.P,H4,1*%
%TO.N,GND*%
X66675000Y-155575000D03*
%TD*%
%TO.P,H3,1*%
%TO.N,GND*%
X149225000Y-41275000D03*
%TD*%
%TO.P,H2,1*%
%TO.N,GND*%
X149225000Y-155575000D03*
%TD*%
%TO.P,H1,1*%
%TO.N,GND*%
X66675000Y-41275000D03*
%TD*%
D22*
%TO.P,D301,2*%
%TO.N,Net-(D301-Pad2)*%
X106045000Y-118745000D03*
D23*
%TO.P,D301,1*%
%TO.N,Net-(D301-Pad1)*%
X103505000Y-118745000D03*
%TD*%
D22*
%TO.P,D300,2*%
%TO.N,VCC*%
X142240000Y-48260000D03*
D23*
%TO.P,D300,1*%
%TO.N,Net-(D300-Pad1)*%
X139700000Y-48260000D03*
%TD*%
D22*
%TO.P,D202,2*%
%TO.N,Net-(D202-Pad2)*%
X78105000Y-117475000D03*
D23*
%TO.P,D202,1*%
%TO.N,Net-(D202-Pad1)*%
X75565000Y-117475000D03*
%TD*%
D22*
%TO.P,D201,2*%
%TO.N,Net-(D201-Pad2)*%
X78105000Y-105410000D03*
D23*
%TO.P,D201,1*%
%TO.N,Net-(D201-Pad1)*%
X75565000Y-105410000D03*
%TD*%
D22*
%TO.P,D101,2*%
%TO.N,VSS*%
X78105000Y-93980000D03*
D23*
%TO.P,D101,1*%
%TO.N,Net-(D101-Pad1)*%
X75565000Y-93980000D03*
%TD*%
D10*
%TO.P,J3,20*%
%TO.N,Net-(D301-Pad2)*%
X131445000Y-90170000D03*
%TO.P,J3,19*%
%TO.N,Net-(J3-Pad19)*%
X131445000Y-87630000D03*
%TO.P,J3,18*%
%TO.N,GND*%
X131445000Y-85090000D03*
%TO.P,J3,17*%
%TO.N,Net-(J3-Pad17)*%
X131445000Y-82550000D03*
%TO.P,J3,16*%
%TO.N,Net-(J3-Pad16)*%
X131445000Y-80010000D03*
%TO.P,J3,15*%
%TO.N,Net-(J3-Pad15)*%
X131445000Y-77470000D03*
%TO.P,J3,14*%
%TO.N,Net-(J3-Pad14)*%
X131445000Y-74930000D03*
%TO.P,J3,13*%
%TO.N,GND*%
X131445000Y-72390000D03*
%TO.P,J3,12*%
%TO.N,Net-(J3-Pad12)*%
X131445000Y-69850000D03*
%TO.P,J3,11*%
%TO.N,Net-(J3-Pad11)*%
X131445000Y-67310000D03*
%TO.P,J3,10*%
%TO.N,Net-(J3-Pad10)*%
X131445000Y-64770000D03*
%TO.P,J3,9*%
%TO.N,Net-(J3-Pad9)*%
X131445000Y-62230000D03*
%TO.P,J3,8*%
%TO.N,GND*%
X131445000Y-59690000D03*
%TO.P,J3,7*%
%TO.N,Net-(J3-Pad7)*%
X131445000Y-57150000D03*
%TO.P,J3,6*%
%TO.N,Net-(C302-Pad1)*%
X131445000Y-54610000D03*
%TO.P,J3,5*%
%TO.N,Net-(J3-Pad5)*%
X131445000Y-52070000D03*
%TO.P,J3,4*%
%TO.N,Net-(J3-Pad4)*%
X131445000Y-49530000D03*
%TO.P,J3,3*%
%TO.N,GND*%
X131445000Y-46990000D03*
%TO.P,J3,2*%
%TO.N,Net-(D300-Pad1)*%
X131445000Y-44450000D03*
D11*
%TO.P,J3,1*%
%TO.N,Net-(J3-Pad1)*%
X131445000Y-41910000D03*
%TD*%
D10*
%TO.P,J2,20*%
%TO.N,Net-(J2-Pad20)*%
X108585000Y-41910000D03*
%TO.P,J2,19*%
%TO.N,Net-(J2-Pad19)*%
X108585000Y-44450000D03*
%TO.P,J2,18*%
%TO.N,GND*%
X108585000Y-46990000D03*
%TO.P,J2,17*%
%TO.N,Net-(J2-Pad17)*%
X108585000Y-49530000D03*
%TO.P,J2,16*%
%TO.N,Net-(J2-Pad16)*%
X108585000Y-52070000D03*
%TO.P,J2,15*%
%TO.N,Net-(J2-Pad15)*%
X108585000Y-54610000D03*
%TO.P,J2,14*%
%TO.N,Net-(J2-Pad14)*%
X108585000Y-57150000D03*
%TO.P,J2,13*%
%TO.N,GND*%
X108585000Y-59690000D03*
%TO.P,J2,12*%
%TO.N,Net-(C311-Pad1)*%
X108585000Y-62230000D03*
%TO.P,J2,11*%
%TO.N,Net-(C112-Pad1)*%
X108585000Y-64770000D03*
%TO.P,J2,10*%
%TO.N,Net-(C313-Pad1)*%
X108585000Y-67310000D03*
%TO.P,J2,9*%
%TO.N,Net-(J2-Pad9)*%
X108585000Y-69850000D03*
%TO.P,J2,8*%
%TO.N,GND*%
X108585000Y-72390000D03*
%TO.P,J2,7*%
%TO.N,Net-(J2-Pad7)*%
X108585000Y-74930000D03*
%TO.P,J2,6*%
%TO.N,Net-(J2-Pad6)*%
X108585000Y-77470000D03*
%TO.P,J2,5*%
%TO.N,Net-(J2-Pad5)*%
X108585000Y-80010000D03*
%TO.P,J2,4*%
%TO.N,Net-(J2-Pad4)*%
X108585000Y-82550000D03*
%TO.P,J2,3*%
%TO.N,GND*%
X108585000Y-85090000D03*
%TO.P,J2,2*%
%TO.N,Net-(J1-Pad4)*%
X108585000Y-87630000D03*
D11*
%TO.P,J2,1*%
%TO.N,Net-(J1-Pad3)*%
X108585000Y-90170000D03*
%TD*%
%TO.P,R301,2*%
%TO.N,GND*%
%TA.AperFunction,SMDPad,CuDef*%
G36*
G01*
X93715000Y-118119999D02*
X93715000Y-119370001D01*
G75*
G02*
X93465001Y-119620000I-249999J0D01*
G01*
X92839999Y-119620000D01*
G75*
G02*
X92590000Y-119370001I0J249999D01*
G01*
X92590000Y-118119999D01*
G75*
G02*
X92839999Y-117870000I249999J0D01*
G01*
X93465001Y-117870000D01*
G75*
G02*
X93715000Y-118119999I0J-249999D01*
G01*
G37*
%TD.AperFunction*%
%TO.P,R301,1*%
%TO.N,Net-(D301-Pad1)*%
%TA.AperFunction,SMDPad,CuDef*%
G36*
G01*
X96640000Y-118119999D02*
X96640000Y-119370001D01*
G75*
G02*
X96390001Y-119620000I-249999J0D01*
G01*
X95764999Y-119620000D01*
G75*
G02*
X95515000Y-119370001I0J249999D01*
G01*
X95515000Y-118119999D01*
G75*
G02*
X95764999Y-117870000I249999J0D01*
G01*
X96390001Y-117870000D01*
G75*
G02*
X96640000Y-118119999I0J-249999D01*
G01*
G37*
%TD.AperFunction*%
%TD*%
%TO.P,R204,2*%
%TO.N,Net-(JP3-Pad2)*%
%TA.AperFunction,SMDPad,CuDef*%
G36*
G01*
X73290000Y-129530001D02*
X73290000Y-128279999D01*
G75*
G02*
X73539999Y-128030000I249999J0D01*
G01*
X74165001Y-128030000D01*
G75*
G02*
X74415000Y-128279999I0J-249999D01*
G01*
X74415000Y-129530001D01*
G75*
G02*
X74165001Y-129780000I-249999J0D01*
G01*
X73539999Y-129780000D01*
G75*
G02*
X73290000Y-129530001I0J249999D01*
G01*
G37*
%TD.AperFunction*%
%TO.P,R204,1*%
%TO.N,VCC*%
%TA.AperFunction,SMDPad,CuDef*%
G36*
G01*
X70365000Y-129530001D02*
X70365000Y-128279999D01*
G75*
G02*
X70614999Y-128030000I249999J0D01*
G01*
X71240001Y-128030000D01*
G75*
G02*
X71490000Y-128279999I0J-249999D01*
G01*
X71490000Y-129530001D01*
G75*
G02*
X71240001Y-129780000I-249999J0D01*
G01*
X70614999Y-129780000D01*
G75*
G02*
X70365000Y-129530001I0J249999D01*
G01*
G37*
%TD.AperFunction*%
%TD*%
%TO.P,R203,2*%
%TO.N,Net-(R203-Pad2)*%
%TA.AperFunction,SMDPad,CuDef*%
G36*
G01*
X64144999Y-143775000D02*
X65395001Y-143775000D01*
G75*
G02*
X65645000Y-144024999I0J-249999D01*
G01*
X65645000Y-144650001D01*
G75*
G02*
X65395001Y-144900000I-249999J0D01*
G01*
X64144999Y-144900000D01*
G75*
G02*
X63895000Y-144650001I0J249999D01*
G01*
X63895000Y-144024999D01*
G75*
G02*
X64144999Y-143775000I249999J0D01*
G01*
G37*
%TD.AperFunction*%
%TO.P,R203,1*%
%TO.N,VCC*%
%TA.AperFunction,SMDPad,CuDef*%
G36*
G01*
X64144999Y-140850000D02*
X65395001Y-140850000D01*
G75*
G02*
X65645000Y-141099999I0J-249999D01*
G01*
X65645000Y-141725001D01*
G75*
G02*
X65395001Y-141975000I-249999J0D01*
G01*
X64144999Y-141975000D01*
G75*
G02*
X63895000Y-141725001I0J249999D01*
G01*
X63895000Y-141099999D01*
G75*
G02*
X64144999Y-140850000I249999J0D01*
G01*
G37*
%TD.AperFunction*%
%TD*%
%TO.P,R202,2*%
%TO.N,GND*%
%TA.AperFunction,SMDPad,CuDef*%
G36*
G01*
X66410000Y-116849999D02*
X66410000Y-118100001D01*
G75*
G02*
X66160001Y-118350000I-249999J0D01*
G01*
X65534999Y-118350000D01*
G75*
G02*
X65285000Y-118100001I0J249999D01*
G01*
X65285000Y-116849999D01*
G75*
G02*
X65534999Y-116600000I249999J0D01*
G01*
X66160001Y-116600000D01*
G75*
G02*
X66410000Y-116849999I0J-249999D01*
G01*
G37*
%TD.AperFunction*%
%TO.P,R202,1*%
%TO.N,Net-(D202-Pad1)*%
%TA.AperFunction,SMDPad,CuDef*%
G36*
G01*
X69335000Y-116849999D02*
X69335000Y-118100001D01*
G75*
G02*
X69085001Y-118350000I-249999J0D01*
G01*
X68459999Y-118350000D01*
G75*
G02*
X68210000Y-118100001I0J249999D01*
G01*
X68210000Y-116849999D01*
G75*
G02*
X68459999Y-116600000I249999J0D01*
G01*
X69085001Y-116600000D01*
G75*
G02*
X69335000Y-116849999I0J-249999D01*
G01*
G37*
%TD.AperFunction*%
%TD*%
%TO.P,R201,2*%
%TO.N,GND*%
%TA.AperFunction,SMDPad,CuDef*%
G36*
G01*
X66410000Y-104784999D02*
X66410000Y-106035001D01*
G75*
G02*
X66160001Y-106285000I-249999J0D01*
G01*
X65534999Y-106285000D01*
G75*
G02*
X65285000Y-106035001I0J249999D01*
G01*
X65285000Y-104784999D01*
G75*
G02*
X65534999Y-104535000I249999J0D01*
G01*
X66160001Y-104535000D01*
G75*
G02*
X66410000Y-104784999I0J-249999D01*
G01*
G37*
%TD.AperFunction*%
%TO.P,R201,1*%
%TO.N,Net-(D201-Pad1)*%
%TA.AperFunction,SMDPad,CuDef*%
G36*
G01*
X69335000Y-104784999D02*
X69335000Y-106035001D01*
G75*
G02*
X69085001Y-106285000I-249999J0D01*
G01*
X68459999Y-106285000D01*
G75*
G02*
X68210000Y-106035001I0J249999D01*
G01*
X68210000Y-104784999D01*
G75*
G02*
X68459999Y-104535000I249999J0D01*
G01*
X69085001Y-104535000D01*
G75*
G02*
X69335000Y-104784999I0J-249999D01*
G01*
G37*
%TD.AperFunction*%
%TD*%
%TO.P,R101,2*%
%TO.N,GND*%
%TA.AperFunction,SMDPad,CuDef*%
G36*
G01*
X66410000Y-93354999D02*
X66410000Y-94605001D01*
G75*
G02*
X66160001Y-94855000I-249999J0D01*
G01*
X65534999Y-94855000D01*
G75*
G02*
X65285000Y-94605001I0J249999D01*
G01*
X65285000Y-93354999D01*
G75*
G02*
X65534999Y-93105000I249999J0D01*
G01*
X66160001Y-93105000D01*
G75*
G02*
X66410000Y-93354999I0J-249999D01*
G01*
G37*
%TD.AperFunction*%
%TO.P,R101,1*%
%TO.N,Net-(D101-Pad1)*%
%TA.AperFunction,SMDPad,CuDef*%
G36*
G01*
X69335000Y-93354999D02*
X69335000Y-94605001D01*
G75*
G02*
X69085001Y-94855000I-249999J0D01*
G01*
X68459999Y-94855000D01*
G75*
G02*
X68210000Y-94605001I0J249999D01*
G01*
X68210000Y-93354999D01*
G75*
G02*
X68459999Y-93105000I249999J0D01*
G01*
X69085001Y-93105000D01*
G75*
G02*
X69335000Y-93354999I0J-249999D01*
G01*
G37*
%TD.AperFunction*%
%TD*%
D10*
%TO.P,JP202,2*%
%TO.N,Net-(JP202-Pad2)*%
X85090000Y-154305000D03*
D11*
%TO.P,JP202,1*%
%TO.N,GND*%
X82550000Y-154305000D03*
%TD*%
D10*
%TO.P,JP201,2*%
%TO.N,Net-(JP201-Pad2)*%
X85090000Y-144145000D03*
D11*
%TO.P,JP201,1*%
%TO.N,GND*%
X82550000Y-144145000D03*
%TD*%
D10*
%TO.P,JP3,2*%
%TO.N,Net-(JP3-Pad2)*%
X85090000Y-132080000D03*
D11*
%TO.P,JP3,1*%
%TO.N,GND*%
X82550000Y-132080000D03*
%TD*%
%TO.P,J100,3*%
%TO.N,N/C*%
%TA.AperFunction,ComponentPad*%
G36*
G01*
X72720000Y-81140000D02*
X72720000Y-79390000D01*
G75*
G02*
X73595000Y-78515000I875000J0D01*
G01*
X75345000Y-78515000D01*
G75*
G02*
X76220000Y-79390000I0J-875000D01*
G01*
X76220000Y-81140000D01*
G75*
G02*
X75345000Y-82015000I-875000J0D01*
G01*
X73595000Y-82015000D01*
G75*
G02*
X72720000Y-81140000I0J875000D01*
G01*
G37*
%TD.AperFunction*%
%TO.P,J100,2*%
%TO.N,GND*%
%TA.AperFunction,ComponentPad*%
G36*
G01*
X69970000Y-76565000D02*
X69970000Y-74565000D01*
G75*
G02*
X70720000Y-73815000I750000J0D01*
G01*
X72220000Y-73815000D01*
G75*
G02*
X72970000Y-74565000I0J-750000D01*
G01*
X72970000Y-76565000D01*
G75*
G02*
X72220000Y-77315000I-750000J0D01*
G01*
X70720000Y-77315000D01*
G75*
G02*
X69970000Y-76565000I0J750000D01*
G01*
G37*
%TD.AperFunction*%
D24*
%TO.P,J100,1*%
%TO.N,VSS*%
X77470000Y-75565000D03*
%TD*%
%TO.P,C204,2*%
%TO.N,GND*%
%TA.AperFunction,SMDPad,CuDef*%
G36*
G01*
X121655000Y-133334999D02*
X121655000Y-134635001D01*
G75*
G02*
X121405001Y-134885000I-249999J0D01*
G01*
X120754999Y-134885000D01*
G75*
G02*
X120505000Y-134635001I0J249999D01*
G01*
X120505000Y-133334999D01*
G75*
G02*
X120754999Y-133085000I249999J0D01*
G01*
X121405001Y-133085000D01*
G75*
G02*
X121655000Y-133334999I0J-249999D01*
G01*
G37*
%TD.AperFunction*%
%TO.P,C204,1*%
%TO.N,VCC*%
%TA.AperFunction,SMDPad,CuDef*%
G36*
G01*
X124605000Y-133334999D02*
X124605000Y-134635001D01*
G75*
G02*
X124355001Y-134885000I-249999J0D01*
G01*
X123704999Y-134885000D01*
G75*
G02*
X123455000Y-134635001I0J249999D01*
G01*
X123455000Y-133334999D01*
G75*
G02*
X123704999Y-133085000I249999J0D01*
G01*
X124355001Y-133085000D01*
G75*
G02*
X124605000Y-133334999I0J-249999D01*
G01*
G37*
%TD.AperFunction*%
%TD*%
%TO.P,C202,2*%
%TO.N,GND*%
%TA.AperFunction,SMDPad,CuDef*%
G36*
G01*
X114670000Y-118094999D02*
X114670000Y-119395001D01*
G75*
G02*
X114420001Y-119645000I-249999J0D01*
G01*
X113769999Y-119645000D01*
G75*
G02*
X113520000Y-119395001I0J249999D01*
G01*
X113520000Y-118094999D01*
G75*
G02*
X113769999Y-117845000I249999J0D01*
G01*
X114420001Y-117845000D01*
G75*
G02*
X114670000Y-118094999I0J-249999D01*
G01*
G37*
%TD.AperFunction*%
%TO.P,C202,1*%
%TO.N,VSS*%
%TA.AperFunction,SMDPad,CuDef*%
G36*
G01*
X117620000Y-118094999D02*
X117620000Y-119395001D01*
G75*
G02*
X117370001Y-119645000I-249999J0D01*
G01*
X116719999Y-119645000D01*
G75*
G02*
X116470000Y-119395001I0J249999D01*
G01*
X116470000Y-118094999D01*
G75*
G02*
X116719999Y-117845000I249999J0D01*
G01*
X117370001Y-117845000D01*
G75*
G02*
X117620000Y-118094999I0J-249999D01*
G01*
G37*
%TD.AperFunction*%
%TD*%
D25*
%TO.N,GND*%
X111125000Y-118745000D03*
X90805000Y-119380000D03*
X62865000Y-117475000D03*
X62865000Y-105410000D03*
X63500000Y-93980000D03*
X118745000Y-133985000D03*
X144780000Y-52705000D03*
X120650008Y-154305000D03*
X78740000Y-132080000D03*
X73025000Y-137795000D03*
X78740000Y-144145000D03*
X87630000Y-89535000D03*
X87630000Y-81280000D03*
X87630000Y-73660000D03*
%TO.N,VCC*%
X64770000Y-138430000D03*
X67945000Y-128905000D03*
X145415000Y-78105000D03*
%TO.N,Net-(D301-Pad2)*%
X121285000Y-95885000D03*
%TD*%
D26*
%TO.N,GND*%
X65847500Y-105410000D02*
X63500000Y-105410000D01*
X65847500Y-117475000D02*
X63500000Y-117475000D01*
X108670000Y-47075000D02*
X108585000Y-46990000D01*
X108670000Y-59775000D02*
X108585000Y-59690000D01*
X108670000Y-72475000D02*
X108585000Y-72390000D01*
X108670000Y-85175000D02*
X108585000Y-85090000D01*
X131360000Y-85175000D02*
X131445000Y-85090000D01*
X131360000Y-72475000D02*
X131445000Y-72390000D01*
X131360000Y-59775000D02*
X131445000Y-59690000D01*
X131360000Y-47075000D02*
X131445000Y-46990000D01*
X118745000Y-133985000D02*
X121080000Y-133985000D01*
X65847500Y-93980000D02*
X63500000Y-93980000D01*
D27*
X123620000Y-154305000D02*
X121285000Y-154305000D01*
X121285000Y-154305000D02*
X120650008Y-154305000D01*
D26*
X82550000Y-144145000D02*
X78740000Y-144145000D01*
X82550000Y-132080000D02*
X78740000Y-132080000D01*
X73025000Y-141605000D02*
X73025000Y-137795000D01*
X114095000Y-118745000D02*
X111125000Y-118745000D01*
X91440000Y-118745000D02*
X90805000Y-119380000D01*
X93152500Y-118745000D02*
X91440000Y-118745000D01*
X144780000Y-56945000D02*
X144780000Y-52705000D01*
X87630000Y-71325000D02*
X87630000Y-73660000D01*
X87630000Y-78945000D02*
X87630000Y-81280000D01*
X87630000Y-87200000D02*
X87630000Y-89535000D01*
%TO.N,VSS*%
X132715000Y-128905000D02*
X127635000Y-128905000D01*
X130175000Y-131445000D02*
X127635000Y-128905000D01*
X132715000Y-131445000D02*
X130175000Y-131445000D01*
X77470000Y-93345000D02*
X78105000Y-93980000D01*
X77470000Y-75565000D02*
X77470000Y-93345000D01*
X95885000Y-93980000D02*
X105410000Y-103505000D01*
X78105000Y-93980000D02*
X95885000Y-93980000D01*
X105410000Y-103505000D02*
X108585000Y-103505000D01*
X117045000Y-111965000D02*
X117045000Y-118745000D01*
X108585000Y-103505000D02*
X117045000Y-111965000D01*
X127205000Y-128905000D02*
X117045000Y-118745000D01*
X127635000Y-128905000D02*
X127205000Y-128905000D01*
%TO.N,VCC*%
X64770000Y-141412500D02*
X64770000Y-139065000D01*
X70292500Y-128905000D02*
X67945000Y-128905000D01*
X127635000Y-133985000D02*
X124030000Y-133985000D01*
X132715000Y-133985000D02*
X127635000Y-133985000D01*
X145415000Y-75122500D02*
X145415000Y-78105000D01*
%TO.N,Net-(D101-Pad1)*%
X75565000Y-93980000D02*
X71947500Y-93980000D01*
X75565000Y-93980000D02*
X68772500Y-93980000D01*
%TO.N,Net-(D201-Pad2)*%
X78105000Y-106680000D02*
X78105000Y-105410000D01*
X97155000Y-128905000D02*
X86360000Y-118110000D01*
X86360000Y-113665000D02*
X78105000Y-105410000D01*
X86360000Y-118110000D02*
X86360000Y-113665000D01*
%TO.N,Net-(D201-Pad1)*%
X75565000Y-105410000D02*
X71947500Y-105410000D01*
X75565000Y-105410000D02*
X68772500Y-105410000D01*
%TO.N,Net-(D202-Pad2)*%
X97790000Y-131445000D02*
X93980000Y-131445000D01*
X92075000Y-131445000D02*
X78105000Y-117475000D01*
X97155000Y-131445000D02*
X92075000Y-131445000D01*
%TO.N,Net-(D202-Pad1)*%
X75565000Y-117475000D02*
X71947500Y-117475000D01*
X75565000Y-117475000D02*
X68772500Y-117475000D01*
%TO.N,Net-(D300-Pad1)*%
X131360000Y-44535000D02*
X131445000Y-44450000D01*
X128800000Y-44535000D02*
X131360000Y-44535000D01*
X135890000Y-44450000D02*
X139700000Y-48260000D01*
X131445000Y-44450000D02*
X135890000Y-44450000D01*
%TO.N,Net-(D301-Pad2)*%
X131360000Y-90255000D02*
X131445000Y-90170000D01*
X128800000Y-90255000D02*
X131360000Y-90255000D01*
X128800000Y-90255000D02*
X126280000Y-90255000D01*
X126280000Y-90255000D02*
X121285000Y-95250000D01*
%TO.N,Net-(D301-Pad1)*%
X99695000Y-118745000D02*
X96077500Y-118745000D01*
X103505000Y-118745000D02*
X96077500Y-118745000D01*
%TO.N,Net-(J1-Pad4)*%
X108670000Y-87715000D02*
X108585000Y-87630000D01*
X111020000Y-87715000D02*
X108670000Y-87715000D01*
%TO.N,Net-(J1-Pad3)*%
X108670000Y-90255000D02*
X108585000Y-90170000D01*
X111020000Y-90255000D02*
X108670000Y-90255000D01*
X108585000Y-90170000D02*
X107315000Y-90170000D01*
%TO.N,Net-(JP3-Pad2)*%
X86995000Y-133985000D02*
X85090000Y-132080000D01*
X94615000Y-133985000D02*
X86995000Y-133985000D01*
X97790000Y-133985000D02*
X94615000Y-133985000D01*
X94615000Y-133985000D02*
X93980000Y-133985000D01*
X85090000Y-132080000D02*
X85090000Y-130175000D01*
X83820000Y-128905000D02*
X73852500Y-128905000D01*
X85090000Y-130175000D02*
X83820000Y-128905000D01*
%TO.N,Net-(JP202-Pad2)*%
X97790000Y-154305000D02*
X93980000Y-154305000D01*
X97155000Y-154305000D02*
X85090000Y-154305000D01*
%TO.N,Net-(R203-Pad2)*%
X64962500Y-144145000D02*
X64770000Y-144337500D01*
X73025000Y-144145000D02*
X64962500Y-144145000D01*
%TO.N,Net-(SW201-Pad2)*%
X97155000Y-146685000D02*
X73025000Y-146685000D01*
%TO.N,Net-(J2-Pad20)*%
X108670000Y-41995000D02*
X108585000Y-41910000D01*
X111020000Y-41995000D02*
X108670000Y-41995000D01*
%TO.N,Net-(J2-Pad19)*%
X108670000Y-44535000D02*
X108585000Y-44450000D01*
X111020000Y-44535000D02*
X108670000Y-44535000D01*
%TO.N,Net-(J2-Pad17)*%
X108670000Y-49615000D02*
X108585000Y-49530000D01*
X111020000Y-49615000D02*
X108670000Y-49615000D01*
X86360000Y-49530000D02*
X85725000Y-50165000D01*
X108585000Y-49530000D02*
X86360000Y-49530000D01*
%TO.N,Net-(J2-Pad16)*%
X108670000Y-52155000D02*
X108585000Y-52070000D01*
X111020000Y-52155000D02*
X108670000Y-52155000D01*
X96520000Y-52070000D02*
X85090000Y-63500000D01*
X108585000Y-52070000D02*
X96520000Y-52070000D01*
%TO.N,Net-(J2-Pad15)*%
X108670000Y-54695000D02*
X108585000Y-54610000D01*
X111020000Y-54695000D02*
X108670000Y-54695000D01*
%TO.N,Net-(J2-Pad14)*%
X108670000Y-57235000D02*
X108585000Y-57150000D01*
X111020000Y-57235000D02*
X108670000Y-57235000D01*
%TO.N,Net-(J2-Pad9)*%
X108670000Y-69935000D02*
X108585000Y-69850000D01*
X111020000Y-69935000D02*
X108670000Y-69935000D01*
%TO.N,Net-(J2-Pad7)*%
X108670000Y-75015000D02*
X108585000Y-74930000D01*
X111020000Y-75015000D02*
X108670000Y-75015000D01*
%TO.N,Net-(J2-Pad6)*%
X108670000Y-77555000D02*
X108585000Y-77470000D01*
X111020000Y-77555000D02*
X108670000Y-77555000D01*
%TO.N,Net-(J2-Pad5)*%
X108670000Y-80095000D02*
X108585000Y-80010000D01*
X111020000Y-80095000D02*
X108670000Y-80095000D01*
%TO.N,Net-(J2-Pad4)*%
X108670000Y-82635000D02*
X108585000Y-82550000D01*
X111020000Y-82635000D02*
X108670000Y-82635000D01*
%TO.N,Net-(J3-Pad19)*%
X131360000Y-87715000D02*
X131445000Y-87630000D01*
X128800000Y-87715000D02*
X131360000Y-87715000D01*
%TO.N,Net-(J3-Pad17)*%
X131360000Y-82635000D02*
X131445000Y-82550000D01*
X128800000Y-82635000D02*
X131360000Y-82635000D01*
%TO.N,Net-(J3-Pad16)*%
X131360000Y-80095000D02*
X131445000Y-80010000D01*
X128800000Y-80095000D02*
X131360000Y-80095000D01*
%TO.N,Net-(J3-Pad15)*%
X131360000Y-77555000D02*
X131445000Y-77470000D01*
X128800000Y-77555000D02*
X131360000Y-77555000D01*
%TO.N,Net-(J3-Pad14)*%
X131360000Y-75015000D02*
X131445000Y-74930000D01*
X128800000Y-75015000D02*
X131360000Y-75015000D01*
%TO.N,Net-(J3-Pad12)*%
X131360000Y-69935000D02*
X131445000Y-69850000D01*
X128800000Y-69935000D02*
X131360000Y-69935000D01*
%TO.N,Net-(J3-Pad11)*%
X131360000Y-67395000D02*
X131445000Y-67310000D01*
X128800000Y-67395000D02*
X131360000Y-67395000D01*
%TO.N,Net-(J3-Pad10)*%
X131360000Y-64855000D02*
X131445000Y-64770000D01*
X128800000Y-64855000D02*
X131360000Y-64855000D01*
X128800000Y-64855000D02*
X128800000Y-64875000D01*
%TO.N,Net-(J3-Pad9)*%
X131360000Y-62315000D02*
X131445000Y-62230000D01*
X128800000Y-62315000D02*
X131360000Y-62315000D01*
X128800000Y-62315000D02*
X127550000Y-62315000D01*
%TO.N,Net-(J3-Pad7)*%
X131360000Y-57235000D02*
X131445000Y-57150000D01*
X128800000Y-57235000D02*
X131360000Y-57235000D01*
X131525000Y-57230000D02*
X131445000Y-57150000D01*
X140970000Y-85805000D02*
X148590000Y-93425000D01*
X140970000Y-66675000D02*
X140970000Y-85805000D01*
X131445000Y-57150000D02*
X140970000Y-66675000D01*
%TO.N,Net-(J3-Pad5)*%
X131360000Y-52155000D02*
X131445000Y-52070000D01*
X128800000Y-52155000D02*
X131360000Y-52155000D01*
%TO.N,Net-(J3-Pad4)*%
X131360000Y-49615000D02*
X131445000Y-49530000D01*
X128800000Y-49615000D02*
X131360000Y-49615000D01*
%TO.N,Net-(J3-Pad1)*%
X131360000Y-41995000D02*
X131445000Y-41910000D01*
X128800000Y-41995000D02*
X131360000Y-41995000D01*
%TO.N,Net-(C205-Pad1)*%
X132715000Y-156845000D02*
X132715000Y-154305000D01*
X127205000Y-154305000D02*
X126570000Y-153670000D01*
X132715000Y-154305000D02*
X127205000Y-154305000D01*
%TO.N,Net-(C302-Pad1)*%
X131360000Y-54695000D02*
X131445000Y-54610000D01*
X128800000Y-54695000D02*
X131360000Y-54695000D01*
X136730000Y-59895000D02*
X131445000Y-54610000D01*
X144780000Y-59895000D02*
X136730000Y-59895000D01*
X145151839Y-66040000D02*
X145415000Y-66040000D01*
X144264990Y-66926849D02*
X145151839Y-66040000D01*
X144264990Y-71047490D02*
X144264990Y-66926849D01*
X145415000Y-72197500D02*
X144264990Y-71047490D01*
X144264999Y-65615001D02*
X144264999Y-60840001D01*
X144689998Y-66040000D02*
X144264999Y-65615001D01*
X145415000Y-66040000D02*
X144689998Y-66040000D01*
X144780000Y-60325000D02*
X144780000Y-59895000D01*
X144264999Y-60840001D02*
X144780000Y-60325000D01*
%TO.N,Net-(C112-Pad1)*%
X108670000Y-64855000D02*
X108585000Y-64770000D01*
X111020000Y-64855000D02*
X108670000Y-64855000D01*
X73025000Y-66040000D02*
X76200000Y-69215000D01*
X73025000Y-63500000D02*
X73025000Y-66040000D01*
X64135000Y-54610000D02*
X73025000Y-63500000D01*
X80850000Y-69215000D02*
X87630000Y-75995000D01*
X76200000Y-69215000D02*
X80850000Y-69215000D01*
X97360000Y-75995000D02*
X108585000Y-64770000D01*
X87630000Y-75995000D02*
X97360000Y-75995000D01*
%TO.N,Net-(C311-Pad1)*%
X108670000Y-62315000D02*
X108585000Y-62230000D01*
X111020000Y-62315000D02*
X108670000Y-62315000D01*
X64135000Y-52070000D02*
X74930000Y-62865000D01*
X74930000Y-62865000D02*
X74930000Y-65405000D01*
X74930000Y-65405000D02*
X76835000Y-67310000D01*
X86565000Y-67310000D02*
X87630000Y-68375000D01*
X76835000Y-67310000D02*
X86565000Y-67310000D01*
X102440000Y-68375000D02*
X108585000Y-62230000D01*
X87630000Y-68375000D02*
X102440000Y-68375000D01*
%TO.N,Net-(C313-Pad1)*%
X108670000Y-67395000D02*
X108585000Y-67310000D01*
X111020000Y-67395000D02*
X108670000Y-67395000D01*
X71120000Y-67310000D02*
X74930000Y-71120000D01*
X71120000Y-64135000D02*
X71120000Y-67310000D01*
X64135000Y-57150000D02*
X71120000Y-64135000D01*
X74930000Y-71120000D02*
X78740000Y-71120000D01*
X78740000Y-71120000D02*
X83185000Y-75565000D01*
X83185000Y-79805000D02*
X87630000Y-84250000D01*
X83185000Y-75565000D02*
X83185000Y-79805000D01*
X91645000Y-84250000D02*
X108585000Y-67310000D01*
X87630000Y-84250000D02*
X91645000Y-84250000D01*
%TD*%
M02*
