%TF.GenerationSoftware,KiCad,Pcbnew,(5.1.10)-1*%
%TF.CreationDate,2021-10-29T11:14:32-04:00*%
%TF.ProjectId,A7585-test-board,41373538-352d-4746-9573-742d626f6172,rev?*%
%TF.SameCoordinates,Original*%
%TF.FileFunction,Copper,L4,Bot*%
%TF.FilePolarity,Positive*%
%FSLAX46Y46*%
G04 Gerber Fmt 4.6, Leading zero omitted, Abs format (unit mm)*
G04 Created by KiCad (PCBNEW (5.1.10)-1) date 2021-10-29 11:14:32*
%MOMM*%
%LPD*%
G01*
G04 APERTURE LIST*
%TA.AperFunction,ComponentPad*%
%ADD10O,1.700000X1.700000*%
%TD*%
%TA.AperFunction,ComponentPad*%
%ADD11R,1.700000X1.700000*%
%TD*%
%TA.AperFunction,ComponentPad*%
%ADD12C,1.700000*%
%TD*%
%TA.AperFunction,ComponentPad*%
%ADD13C,1.524000*%
%TD*%
%TA.AperFunction,ComponentPad*%
%ADD14R,1.600000X1.600000*%
%TD*%
%TA.AperFunction,ComponentPad*%
%ADD15O,1.600000X1.600000*%
%TD*%
%TA.AperFunction,ComponentPad*%
%ADD16C,1.600000*%
%TD*%
%TA.AperFunction,ComponentPad*%
%ADD17R,3.000000X3.500000*%
%TD*%
%TA.AperFunction,ComponentPad*%
%ADD18C,2.000000*%
%TD*%
%TA.AperFunction,ComponentPad*%
%ADD19R,1.500000X1.050000*%
%TD*%
%TA.AperFunction,ComponentPad*%
%ADD20O,1.500000X1.050000*%
%TD*%
%TA.AperFunction,ComponentPad*%
%ADD21C,6.400000*%
%TD*%
%TA.AperFunction,ComponentPad*%
%ADD22C,1.800000*%
%TD*%
%TA.AperFunction,ComponentPad*%
%ADD23R,1.800000X1.800000*%
%TD*%
%TA.AperFunction,ComponentPad*%
%ADD24R,3.500000X3.500000*%
%TD*%
%TA.AperFunction,ViaPad*%
%ADD25C,1.600000*%
%TD*%
%TA.AperFunction,Conductor*%
%ADD26C,0.400000*%
%TD*%
G04 APERTURE END LIST*
D10*
%TO.P,SW301,1*%
%TO.N,GND*%
X64135000Y-62230000D03*
%TO.P,SW301,2*%
%TO.N,VCC*%
X64135000Y-59690000D03*
%TO.P,SW301,3*%
%TO.N,Net-(C313-Pad1)*%
X64135000Y-57150000D03*
%TO.P,SW301,4*%
%TO.N,Net-(C112-Pad1)*%
X64135000Y-54610000D03*
D11*
%TO.P,SW301,5*%
%TO.N,Net-(C311-Pad1)*%
X64135000Y-52070000D03*
%TD*%
D10*
%TO.P,SW303,1*%
%TO.N,GND*%
X77470000Y-63500000D03*
%TO.P,SW303,4*%
%TO.N,N/C*%
X77470000Y-58420000D03*
%TO.P,SW303,3*%
%TO.N,VCC*%
X85090000Y-58420000D03*
%TO.P,SW303,2*%
%TO.N,Net-(J2-Pad16)*%
X85090000Y-63500000D03*
%TD*%
%TO.P,U300,43*%
%TO.N,Net-(U300-Pad43)*%
X122450000Y-90025000D03*
D11*
%TO.P,U300,42*%
%TO.N,Net-(U300-Pad42)*%
X119910000Y-90025000D03*
D10*
%TO.P,U300,41*%
%TO.N,Net-(U300-Pad41)*%
X117370000Y-90025000D03*
%TO.P,U300,40*%
%TO.N,Net-(J3-Pad1)*%
X128800000Y-41995000D03*
%TO.P,U300,39*%
%TO.N,Net-(D300-Pad1)*%
X128800000Y-44535000D03*
D11*
%TO.P,U300,38*%
%TO.N,GND*%
X128800000Y-47075000D03*
D10*
%TO.P,U300,37*%
%TO.N,Net-(J3-Pad4)*%
X128800000Y-49615000D03*
%TO.P,U300,36*%
%TO.N,Net-(J3-Pad5)*%
X128800000Y-52155000D03*
%TO.P,U300,35*%
%TO.N,Net-(C302-Pad1)*%
X128800000Y-54695000D03*
%TO.P,U300,34*%
%TO.N,Net-(J3-Pad7)*%
X128800000Y-57235000D03*
D11*
%TO.P,U300,33*%
%TO.N,GND*%
X128800000Y-59775000D03*
D10*
%TO.P,U300,32*%
%TO.N,Net-(J3-Pad9)*%
X128800000Y-62315000D03*
%TO.P,U300,31*%
%TO.N,Net-(J3-Pad10)*%
X128800000Y-64855000D03*
%TO.P,U300,30*%
%TO.N,Net-(J3-Pad11)*%
X128800000Y-67395000D03*
%TO.P,U300,29*%
%TO.N,Net-(J3-Pad12)*%
X128800000Y-69935000D03*
D11*
%TO.P,U300,28*%
%TO.N,GND*%
X128800000Y-72475000D03*
D10*
%TO.P,U300,27*%
%TO.N,Net-(J3-Pad14)*%
X128800000Y-75015000D03*
%TO.P,U300,26*%
%TO.N,Net-(J3-Pad15)*%
X128800000Y-77555000D03*
%TO.P,U300,25*%
%TO.N,Net-(J3-Pad16)*%
X128800000Y-80095000D03*
%TO.P,U300,24*%
%TO.N,Net-(J3-Pad17)*%
X128800000Y-82635000D03*
D11*
%TO.P,U300,23*%
%TO.N,GND*%
X128800000Y-85175000D03*
D10*
%TO.P,U300,22*%
%TO.N,Net-(J3-Pad19)*%
X128800000Y-87715000D03*
%TO.P,U300,21*%
%TO.N,Net-(D301-Pad2)*%
X128800000Y-90255000D03*
%TO.P,U300,20*%
%TO.N,Net-(J1-Pad3)*%
X111020000Y-90255000D03*
%TO.P,U300,19*%
%TO.N,Net-(J1-Pad4)*%
X111020000Y-87715000D03*
D11*
%TO.P,U300,18*%
%TO.N,GND*%
X111020000Y-85175000D03*
D10*
%TO.P,U300,17*%
%TO.N,Net-(J2-Pad4)*%
X111020000Y-82635000D03*
%TO.P,U300,16*%
%TO.N,Net-(J2-Pad5)*%
X111020000Y-80095000D03*
%TO.P,U300,15*%
%TO.N,Net-(J2-Pad6)*%
X111020000Y-77555000D03*
%TO.P,U300,14*%
%TO.N,Net-(J2-Pad7)*%
X111020000Y-75015000D03*
D11*
%TO.P,U300,13*%
%TO.N,GND*%
X111020000Y-72475000D03*
D10*
%TO.P,U300,12*%
%TO.N,Net-(J2-Pad9)*%
X111020000Y-69935000D03*
%TO.P,U300,11*%
%TO.N,Net-(C313-Pad1)*%
X111020000Y-67395000D03*
%TO.P,U300,10*%
%TO.N,Net-(C112-Pad1)*%
X111020000Y-64855000D03*
%TO.P,U300,9*%
%TO.N,Net-(C311-Pad1)*%
X111020000Y-62315000D03*
D11*
%TO.P,U300,8*%
%TO.N,GND*%
X111020000Y-59775000D03*
D10*
%TO.P,U300,7*%
%TO.N,Net-(J2-Pad14)*%
X111020000Y-57235000D03*
%TO.P,U300,6*%
%TO.N,Net-(J2-Pad15)*%
X111020000Y-54695000D03*
%TO.P,U300,5*%
%TO.N,Net-(J2-Pad16)*%
X111020000Y-52155000D03*
%TO.P,U300,4*%
%TO.N,Net-(J2-Pad17)*%
X111020000Y-49615000D03*
D11*
%TO.P,U300,3*%
%TO.N,GND*%
X111020000Y-47075000D03*
D10*
%TO.P,U300,2*%
%TO.N,Net-(J2-Pad19)*%
X111020000Y-44535000D03*
%TO.P,U300,1*%
%TO.N,Net-(J2-Pad20)*%
X111020000Y-41995000D03*
%TD*%
D12*
%TO.P,U200,1*%
%TO.N,GND*%
X97155000Y-126365000D03*
%TO.P,U200,2*%
%TO.N,Net-(D201-Pad2)*%
X97155000Y-128905000D03*
%TO.P,U200,3*%
%TO.N,Net-(D202-Pad2)*%
X97155000Y-131445000D03*
%TO.P,U200,4*%
%TO.N,Net-(JP3-Pad2)*%
X97155000Y-133985000D03*
%TO.P,U200,5*%
%TO.N,Net-(U200-Pad5)*%
X97155000Y-136525000D03*
%TO.P,U200,6*%
%TO.N,Net-(U200-Pad6)*%
X97155000Y-139065000D03*
%TO.P,U200,7*%
%TO.N,Net-(U200-Pad7)*%
X97155000Y-141605000D03*
%TO.P,U200,8*%
%TO.N,GND*%
X97155000Y-144145000D03*
%TO.P,U200,9*%
%TO.N,Net-(SW201-Pad2)*%
X97155000Y-146685000D03*
%TO.P,U200,10*%
%TO.N,Net-(U200-Pad10)*%
X97155000Y-149225000D03*
%TO.P,U200,11*%
%TO.N,Net-(JP201-Pad2)*%
X97155000Y-151765000D03*
%TO.P,U200,12*%
%TO.N,Net-(JP202-Pad2)*%
X97155000Y-154305000D03*
%TO.P,U200,13*%
%TO.N,Net-(U200-Pad13)*%
X97155000Y-156845000D03*
%TO.P,U200,14*%
%TO.N,Net-(C205-Pad1)*%
X132715000Y-156845000D03*
%TO.P,U200,15*%
X132715000Y-154305000D03*
%TO.P,U200,16*%
%TO.N,GND*%
X132715000Y-151765000D03*
%TO.P,U200,17*%
%TO.N,Net-(J3-Pad9)*%
X132715000Y-149225000D03*
%TO.P,U200,18*%
%TO.N,Net-(J3-Pad10)*%
X132715000Y-146685000D03*
%TO.P,U200,19*%
%TO.N,Net-(U200-Pad19)*%
X132715000Y-144145000D03*
%TO.P,U200,20*%
%TO.N,Net-(U200-Pad20)*%
X132715000Y-141605000D03*
%TO.P,U200,21*%
%TO.N,Net-(J3-Pad14)*%
X132715000Y-139065000D03*
%TO.P,U200,22*%
%TO.N,Net-(J3-Pad15)*%
X132715000Y-136525000D03*
%TO.P,U200,23*%
%TO.N,VCC*%
X132715000Y-133985000D03*
%TO.P,U200,24*%
%TO.N,VSS*%
X132715000Y-131445000D03*
%TO.P,U200,25*%
X132715000Y-128905000D03*
%TO.P,U200,26*%
%TO.N,GND*%
X132715000Y-126365000D03*
%TD*%
D13*
%TO.P,U100,4*%
%TO.N,GND*%
X105410000Y-108585000D03*
%TO.P,U100,3*%
%TO.N,VCC*%
X105410000Y-106045000D03*
%TO.P,U100,2*%
%TO.N,VSS*%
X105410000Y-103505000D03*
%TO.P,U100,1*%
%TO.N,Net-(U100-Pad1)*%
X105410000Y-100965000D03*
%TD*%
D10*
%TO.P,SW302,1*%
%TO.N,GND*%
X78105000Y-50165000D03*
%TO.P,SW302,4*%
%TO.N,N/C*%
X78105000Y-45085000D03*
%TO.P,SW302,3*%
%TO.N,VCC*%
X85725000Y-45085000D03*
%TO.P,SW302,2*%
%TO.N,Net-(J2-Pad17)*%
X85725000Y-50165000D03*
%TD*%
D14*
%TO.P,SW201,1*%
%TO.N,GND*%
X73025000Y-141605000D03*
D15*
%TO.P,SW201,2*%
%TO.N,Net-(SW201-Pad2)*%
X73025000Y-146685000D03*
D16*
%TO.P,SW201,3*%
%TO.N,Net-(R203-Pad2)*%
X73025000Y-144145000D03*
%TD*%
D17*
%TO.P,RV301,3*%
%TO.N,GND*%
X148590000Y-88425000D03*
%TO.P,RV301,2*%
%TO.N,Net-(J3-Pad7)*%
X148590000Y-93425000D03*
%TO.P,RV301,1*%
%TO.N,VCC*%
X148590000Y-98425000D03*
%TD*%
D18*
%TO.P,J201,1*%
%TO.N,GND*%
X137858500Y-109410500D03*
%TO.P,J201,2*%
%TO.N,N/C*%
X150431500Y-109410500D03*
%TD*%
%TO.P,J200,1*%
%TO.N,Net-(C205-Pad1)*%
X137858500Y-118935500D03*
%TO.P,J200,2*%
%TO.N,N/C*%
X150431500Y-118935500D03*
%TD*%
D12*
%TO.P,J1,1*%
%TO.N,GND*%
X93345000Y-40640000D03*
D10*
%TO.P,J1,2*%
%TO.N,VCC*%
X95885000Y-40640000D03*
%TO.P,J1,3*%
%TO.N,Net-(J1-Pad3)*%
X98425000Y-40640000D03*
%TO.P,J1,4*%
%TO.N,Net-(J1-Pad4)*%
X100965000Y-40640000D03*
%TD*%
D19*
%TO.P,U301,1*%
%TO.N,N/C*%
X145415000Y-64770000D03*
D20*
%TO.P,U301,3*%
%TO.N,GND*%
X145415000Y-67310000D03*
%TO.P,U301,2*%
%TO.N,Net-(C302-Pad1)*%
X145415000Y-66040000D03*
%TD*%
D21*
%TO.P,H4,1*%
%TO.N,GND*%
X66675000Y-155575000D03*
%TD*%
%TO.P,H3,1*%
%TO.N,GND*%
X149225000Y-41275000D03*
%TD*%
%TO.P,H2,1*%
%TO.N,GND*%
X149225000Y-155575000D03*
%TD*%
%TO.P,H1,1*%
%TO.N,GND*%
X66675000Y-41275000D03*
%TD*%
D22*
%TO.P,D301,2*%
%TO.N,Net-(D301-Pad2)*%
X106045000Y-118745000D03*
D23*
%TO.P,D301,1*%
%TO.N,Net-(D301-Pad1)*%
X103505000Y-118745000D03*
%TD*%
D22*
%TO.P,D300,2*%
%TO.N,VCC*%
X142240000Y-48260000D03*
D23*
%TO.P,D300,1*%
%TO.N,Net-(D300-Pad1)*%
X139700000Y-48260000D03*
%TD*%
D22*
%TO.P,D202,2*%
%TO.N,Net-(D202-Pad2)*%
X78105000Y-117475000D03*
D23*
%TO.P,D202,1*%
%TO.N,Net-(D202-Pad1)*%
X75565000Y-117475000D03*
%TD*%
D22*
%TO.P,D201,2*%
%TO.N,Net-(D201-Pad2)*%
X78105000Y-105410000D03*
D23*
%TO.P,D201,1*%
%TO.N,Net-(D201-Pad1)*%
X75565000Y-105410000D03*
%TD*%
D22*
%TO.P,D101,2*%
%TO.N,VSS*%
X78105000Y-93980000D03*
D23*
%TO.P,D101,1*%
%TO.N,Net-(D101-Pad1)*%
X75565000Y-93980000D03*
%TD*%
D10*
%TO.P,J3,20*%
%TO.N,Net-(D301-Pad2)*%
X131445000Y-90170000D03*
%TO.P,J3,19*%
%TO.N,Net-(J3-Pad19)*%
X131445000Y-87630000D03*
%TO.P,J3,18*%
%TO.N,GND*%
X131445000Y-85090000D03*
%TO.P,J3,17*%
%TO.N,Net-(J3-Pad17)*%
X131445000Y-82550000D03*
%TO.P,J3,16*%
%TO.N,Net-(J3-Pad16)*%
X131445000Y-80010000D03*
%TO.P,J3,15*%
%TO.N,Net-(J3-Pad15)*%
X131445000Y-77470000D03*
%TO.P,J3,14*%
%TO.N,Net-(J3-Pad14)*%
X131445000Y-74930000D03*
%TO.P,J3,13*%
%TO.N,GND*%
X131445000Y-72390000D03*
%TO.P,J3,12*%
%TO.N,Net-(J3-Pad12)*%
X131445000Y-69850000D03*
%TO.P,J3,11*%
%TO.N,Net-(J3-Pad11)*%
X131445000Y-67310000D03*
%TO.P,J3,10*%
%TO.N,Net-(J3-Pad10)*%
X131445000Y-64770000D03*
%TO.P,J3,9*%
%TO.N,Net-(J3-Pad9)*%
X131445000Y-62230000D03*
%TO.P,J3,8*%
%TO.N,GND*%
X131445000Y-59690000D03*
%TO.P,J3,7*%
%TO.N,Net-(J3-Pad7)*%
X131445000Y-57150000D03*
%TO.P,J3,6*%
%TO.N,Net-(C302-Pad1)*%
X131445000Y-54610000D03*
%TO.P,J3,5*%
%TO.N,Net-(J3-Pad5)*%
X131445000Y-52070000D03*
%TO.P,J3,4*%
%TO.N,Net-(J3-Pad4)*%
X131445000Y-49530000D03*
%TO.P,J3,3*%
%TO.N,GND*%
X131445000Y-46990000D03*
%TO.P,J3,2*%
%TO.N,Net-(D300-Pad1)*%
X131445000Y-44450000D03*
D11*
%TO.P,J3,1*%
%TO.N,Net-(J3-Pad1)*%
X131445000Y-41910000D03*
%TD*%
D10*
%TO.P,J2,20*%
%TO.N,Net-(J2-Pad20)*%
X108585000Y-41910000D03*
%TO.P,J2,19*%
%TO.N,Net-(J2-Pad19)*%
X108585000Y-44450000D03*
%TO.P,J2,18*%
%TO.N,GND*%
X108585000Y-46990000D03*
%TO.P,J2,17*%
%TO.N,Net-(J2-Pad17)*%
X108585000Y-49530000D03*
%TO.P,J2,16*%
%TO.N,Net-(J2-Pad16)*%
X108585000Y-52070000D03*
%TO.P,J2,15*%
%TO.N,Net-(J2-Pad15)*%
X108585000Y-54610000D03*
%TO.P,J2,14*%
%TO.N,Net-(J2-Pad14)*%
X108585000Y-57150000D03*
%TO.P,J2,13*%
%TO.N,GND*%
X108585000Y-59690000D03*
%TO.P,J2,12*%
%TO.N,Net-(C311-Pad1)*%
X108585000Y-62230000D03*
%TO.P,J2,11*%
%TO.N,Net-(C112-Pad1)*%
X108585000Y-64770000D03*
%TO.P,J2,10*%
%TO.N,Net-(C313-Pad1)*%
X108585000Y-67310000D03*
%TO.P,J2,9*%
%TO.N,Net-(J2-Pad9)*%
X108585000Y-69850000D03*
%TO.P,J2,8*%
%TO.N,GND*%
X108585000Y-72390000D03*
%TO.P,J2,7*%
%TO.N,Net-(J2-Pad7)*%
X108585000Y-74930000D03*
%TO.P,J2,6*%
%TO.N,Net-(J2-Pad6)*%
X108585000Y-77470000D03*
%TO.P,J2,5*%
%TO.N,Net-(J2-Pad5)*%
X108585000Y-80010000D03*
%TO.P,J2,4*%
%TO.N,Net-(J2-Pad4)*%
X108585000Y-82550000D03*
%TO.P,J2,3*%
%TO.N,GND*%
X108585000Y-85090000D03*
%TO.P,J2,2*%
%TO.N,Net-(J1-Pad4)*%
X108585000Y-87630000D03*
D11*
%TO.P,J2,1*%
%TO.N,Net-(J1-Pad3)*%
X108585000Y-90170000D03*
%TD*%
D10*
%TO.P,JP202,2*%
%TO.N,Net-(JP202-Pad2)*%
X85090000Y-154305000D03*
D11*
%TO.P,JP202,1*%
%TO.N,GND*%
X82550000Y-154305000D03*
%TD*%
D10*
%TO.P,JP201,2*%
%TO.N,Net-(JP201-Pad2)*%
X85090000Y-144145000D03*
D11*
%TO.P,JP201,1*%
%TO.N,GND*%
X82550000Y-144145000D03*
%TD*%
D10*
%TO.P,JP3,2*%
%TO.N,Net-(JP3-Pad2)*%
X85090000Y-132080000D03*
D11*
%TO.P,JP3,1*%
%TO.N,GND*%
X82550000Y-132080000D03*
%TD*%
%TO.P,J100,3*%
%TO.N,N/C*%
%TA.AperFunction,ComponentPad*%
G36*
G01*
X72720000Y-81140000D02*
X72720000Y-79390000D01*
G75*
G02*
X73595000Y-78515000I875000J0D01*
G01*
X75345000Y-78515000D01*
G75*
G02*
X76220000Y-79390000I0J-875000D01*
G01*
X76220000Y-81140000D01*
G75*
G02*
X75345000Y-82015000I-875000J0D01*
G01*
X73595000Y-82015000D01*
G75*
G02*
X72720000Y-81140000I0J875000D01*
G01*
G37*
%TD.AperFunction*%
%TO.P,J100,2*%
%TO.N,GND*%
%TA.AperFunction,ComponentPad*%
G36*
G01*
X69970000Y-76565000D02*
X69970000Y-74565000D01*
G75*
G02*
X70720000Y-73815000I750000J0D01*
G01*
X72220000Y-73815000D01*
G75*
G02*
X72970000Y-74565000I0J-750000D01*
G01*
X72970000Y-76565000D01*
G75*
G02*
X72220000Y-77315000I-750000J0D01*
G01*
X70720000Y-77315000D01*
G75*
G02*
X69970000Y-76565000I0J750000D01*
G01*
G37*
%TD.AperFunction*%
D24*
%TO.P,J100,1*%
%TO.N,VSS*%
X77470000Y-75565000D03*
%TD*%
D25*
%TO.N,Net-(D301-Pad2)*%
X121285000Y-95885000D03*
%TD*%
D26*
%TO.N,Net-(D301-Pad2)*%
X121285000Y-103505000D02*
X106045000Y-118745000D01*
X121285000Y-95885000D02*
X121285000Y-103505000D01*
%TO.N,Net-(J1-Pad4)*%
X100965000Y-80010000D02*
X100965000Y-40640000D01*
X108585000Y-87630000D02*
X100965000Y-80010000D01*
%TO.N,Net-(J1-Pad3)*%
X98425000Y-80010000D02*
X98425000Y-40640000D01*
X108585000Y-90170000D02*
X98425000Y-80010000D01*
%TO.N,Net-(JP201-Pad2)*%
X92710000Y-151765000D02*
X85090000Y-144145000D01*
X97155000Y-151765000D02*
X92710000Y-151765000D01*
%TO.N,Net-(J3-Pad15)*%
X128800000Y-77575000D02*
X128800000Y-77555000D01*
X125730000Y-80645000D02*
X128800000Y-77575000D01*
X125730000Y-133985000D02*
X125730000Y-80645000D01*
X128270000Y-136525000D02*
X125730000Y-133985000D01*
X132715000Y-136525000D02*
X128270000Y-136525000D01*
%TO.N,Net-(J3-Pad14)*%
X132715000Y-139065000D02*
X126365000Y-139065000D01*
X126365000Y-139065000D02*
X123825000Y-136525000D01*
X123825000Y-79990000D02*
X128800000Y-75015000D01*
X123825000Y-136525000D02*
X123825000Y-79990000D01*
%TO.N,Net-(J3-Pad10)*%
X134620000Y-67945000D02*
X131445000Y-64770000D01*
X132715000Y-146685000D02*
X134620000Y-144780000D01*
X134620000Y-144780000D02*
X134620000Y-67945000D01*
%TO.N,Net-(J3-Pad9)*%
X135890000Y-66675000D02*
X131445000Y-62230000D01*
X132715000Y-149225000D02*
X135890000Y-146050000D01*
X135890000Y-146050000D02*
X135890000Y-66675000D01*
%TO.N,Net-(C205-Pad1)*%
X132715000Y-154305000D02*
X135890000Y-154305000D01*
X135890000Y-154305000D02*
X139700000Y-150495000D01*
X139700000Y-120777000D02*
X137858500Y-118935500D01*
X139700000Y-150495000D02*
X139700000Y-120777000D01*
%TD*%
M02*
