%TF.GenerationSoftware,KiCad,Pcbnew,(5.1.10)-1*%
%TF.CreationDate,2021-10-29T11:14:32-04:00*%
%TF.ProjectId,A7585-test-board,41373538-352d-4746-9573-742d626f6172,rev?*%
%TF.SameCoordinates,Original*%
%TF.FileFunction,Legend,Top*%
%TF.FilePolarity,Positive*%
%FSLAX46Y46*%
G04 Gerber Fmt 4.6, Leading zero omitted, Abs format (unit mm)*
G04 Created by KiCad (PCBNEW (5.1.10)-1) date 2021-10-29 11:14:32*
%MOMM*%
%LPD*%
G01*
G04 APERTURE LIST*
%ADD10C,0.150000*%
%ADD11C,0.120000*%
G04 APERTURE END LIST*
D10*
X145153571Y-148564761D02*
X145153571Y-148231428D01*
X145677380Y-148088571D02*
X145677380Y-148564761D01*
X144677380Y-148564761D01*
X144677380Y-148088571D01*
X145677380Y-147231428D02*
X144677380Y-147231428D01*
X145629761Y-147231428D02*
X145677380Y-147326666D01*
X145677380Y-147517142D01*
X145629761Y-147612380D01*
X145582142Y-147660000D01*
X145486904Y-147707619D01*
X145201190Y-147707619D01*
X145105952Y-147660000D01*
X145058333Y-147612380D01*
X145010714Y-147517142D01*
X145010714Y-147326666D01*
X145058333Y-147231428D01*
X145677380Y-145993333D02*
X144677380Y-145993333D01*
X145677380Y-145421904D02*
X145105952Y-145850476D01*
X144677380Y-145421904D02*
X145248809Y-145993333D01*
X145629761Y-144612380D02*
X145677380Y-144707619D01*
X145677380Y-144898095D01*
X145629761Y-144993333D01*
X145534523Y-145040952D01*
X145153571Y-145040952D01*
X145058333Y-144993333D01*
X145010714Y-144898095D01*
X145010714Y-144707619D01*
X145058333Y-144612380D01*
X145153571Y-144564761D01*
X145248809Y-144564761D01*
X145344047Y-145040952D01*
X145677380Y-143707619D02*
X145153571Y-143707619D01*
X145058333Y-143755238D01*
X145010714Y-143850476D01*
X145010714Y-144040952D01*
X145058333Y-144136190D01*
X145629761Y-143707619D02*
X145677380Y-143802857D01*
X145677380Y-144040952D01*
X145629761Y-144136190D01*
X145534523Y-144183809D01*
X145439285Y-144183809D01*
X145344047Y-144136190D01*
X145296428Y-144040952D01*
X145296428Y-143802857D01*
X145248809Y-143707619D01*
X145677380Y-143231428D02*
X145010714Y-143231428D01*
X145201190Y-143231428D02*
X145105952Y-143183809D01*
X145058333Y-143136190D01*
X145010714Y-143040952D01*
X145010714Y-142945714D01*
X145010714Y-142612380D02*
X145677380Y-142612380D01*
X145105952Y-142612380D02*
X145058333Y-142564761D01*
X145010714Y-142469523D01*
X145010714Y-142326666D01*
X145058333Y-142231428D01*
X145153571Y-142183809D01*
X145677380Y-142183809D01*
X145629761Y-141755238D02*
X145677380Y-141660000D01*
X145677380Y-141469523D01*
X145629761Y-141374285D01*
X145534523Y-141326666D01*
X145486904Y-141326666D01*
X145391666Y-141374285D01*
X145344047Y-141469523D01*
X145344047Y-141612380D01*
X145296428Y-141707619D01*
X145201190Y-141755238D01*
X145153571Y-141755238D01*
X145058333Y-141707619D01*
X145010714Y-141612380D01*
X145010714Y-141469523D01*
X145058333Y-141374285D01*
X145677380Y-139707619D02*
X145153571Y-139707619D01*
X145058333Y-139755238D01*
X145010714Y-139850476D01*
X145010714Y-140040952D01*
X145058333Y-140136190D01*
X145629761Y-139707619D02*
X145677380Y-139802857D01*
X145677380Y-140040952D01*
X145629761Y-140136190D01*
X145534523Y-140183809D01*
X145439285Y-140183809D01*
X145344047Y-140136190D01*
X145296428Y-140040952D01*
X145296428Y-139802857D01*
X145248809Y-139707619D01*
X145010714Y-139231428D02*
X145677380Y-139231428D01*
X145105952Y-139231428D02*
X145058333Y-139183809D01*
X145010714Y-139088571D01*
X145010714Y-138945714D01*
X145058333Y-138850476D01*
X145153571Y-138802857D01*
X145677380Y-138802857D01*
X145677380Y-137898095D02*
X144677380Y-137898095D01*
X145629761Y-137898095D02*
X145677380Y-137993333D01*
X145677380Y-138183809D01*
X145629761Y-138279047D01*
X145582142Y-138326666D01*
X145486904Y-138374285D01*
X145201190Y-138374285D01*
X145105952Y-138326666D01*
X145058333Y-138279047D01*
X145010714Y-138183809D01*
X145010714Y-137993333D01*
X145058333Y-137898095D01*
X145629761Y-136707619D02*
X145677380Y-136564761D01*
X145677380Y-136326666D01*
X145629761Y-136231428D01*
X145582142Y-136183809D01*
X145486904Y-136136190D01*
X145391666Y-136136190D01*
X145296428Y-136183809D01*
X145248809Y-136231428D01*
X145201190Y-136326666D01*
X145153571Y-136517142D01*
X145105952Y-136612380D01*
X145058333Y-136660000D01*
X144963095Y-136707619D01*
X144867857Y-136707619D01*
X144772619Y-136660000D01*
X144725000Y-136612380D01*
X144677380Y-136517142D01*
X144677380Y-136279047D01*
X144725000Y-136136190D01*
X145677380Y-135279047D02*
X145153571Y-135279047D01*
X145058333Y-135326666D01*
X145010714Y-135421904D01*
X145010714Y-135612380D01*
X145058333Y-135707619D01*
X145629761Y-135279047D02*
X145677380Y-135374285D01*
X145677380Y-135612380D01*
X145629761Y-135707619D01*
X145534523Y-135755238D01*
X145439285Y-135755238D01*
X145344047Y-135707619D01*
X145296428Y-135612380D01*
X145296428Y-135374285D01*
X145248809Y-135279047D01*
X145677380Y-134802857D02*
X145010714Y-134802857D01*
X145105952Y-134802857D02*
X145058333Y-134755238D01*
X145010714Y-134660000D01*
X145010714Y-134517142D01*
X145058333Y-134421904D01*
X145153571Y-134374285D01*
X145677380Y-134374285D01*
X145153571Y-134374285D02*
X145058333Y-134326666D01*
X145010714Y-134231428D01*
X145010714Y-134088571D01*
X145058333Y-133993333D01*
X145153571Y-133945714D01*
X145677380Y-133945714D01*
X145010714Y-133040952D02*
X145677380Y-133040952D01*
X145010714Y-133469523D02*
X145534523Y-133469523D01*
X145629761Y-133421904D01*
X145677380Y-133326666D01*
X145677380Y-133183809D01*
X145629761Y-133088571D01*
X145582142Y-133040952D01*
X145629761Y-132183809D02*
X145677380Y-132279047D01*
X145677380Y-132469523D01*
X145629761Y-132564761D01*
X145534523Y-132612380D01*
X145153571Y-132612380D01*
X145058333Y-132564761D01*
X145010714Y-132469523D01*
X145010714Y-132279047D01*
X145058333Y-132183809D01*
X145153571Y-132136190D01*
X145248809Y-132136190D01*
X145344047Y-132612380D01*
X145677380Y-131564761D02*
X145629761Y-131660000D01*
X145534523Y-131707619D01*
X144677380Y-131707619D01*
X145153571Y-130088571D02*
X145153571Y-130421904D01*
X145677380Y-130421904D02*
X144677380Y-130421904D01*
X144677380Y-129945714D01*
X145010714Y-129136190D02*
X145677380Y-129136190D01*
X145010714Y-129564761D02*
X145534523Y-129564761D01*
X145629761Y-129517142D01*
X145677380Y-129421904D01*
X145677380Y-129279047D01*
X145629761Y-129183809D01*
X145582142Y-129136190D01*
X145677380Y-128517142D02*
X145629761Y-128612380D01*
X145534523Y-128660000D01*
X144677380Y-128660000D01*
X145010714Y-128279047D02*
X145010714Y-127898095D01*
X144677380Y-128136190D02*
X145534523Y-128136190D01*
X145629761Y-128088571D01*
X145677380Y-127993333D01*
X145677380Y-127898095D01*
X145677380Y-127421904D02*
X145629761Y-127517142D01*
X145582142Y-127564761D01*
X145486904Y-127612380D01*
X145201190Y-127612380D01*
X145105952Y-127564761D01*
X145058333Y-127517142D01*
X145010714Y-127421904D01*
X145010714Y-127279047D01*
X145058333Y-127183809D01*
X145105952Y-127136190D01*
X145201190Y-127088571D01*
X145486904Y-127088571D01*
X145582142Y-127136190D01*
X145629761Y-127183809D01*
X145677380Y-127279047D01*
X145677380Y-127421904D01*
X145010714Y-126660000D02*
X145677380Y-126660000D01*
X145105952Y-126660000D02*
X145058333Y-126612380D01*
X145010714Y-126517142D01*
X145010714Y-126374285D01*
X145058333Y-126279047D01*
X145153571Y-126231428D01*
X145677380Y-126231428D01*
X145629761Y-125707619D02*
X145677380Y-125707619D01*
X145772619Y-125755238D01*
X145820238Y-125802857D01*
X147279761Y-145683809D02*
X147327380Y-145540952D01*
X147327380Y-145302857D01*
X147279761Y-145207619D01*
X147232142Y-145160000D01*
X147136904Y-145112380D01*
X147041666Y-145112380D01*
X146946428Y-145160000D01*
X146898809Y-145207619D01*
X146851190Y-145302857D01*
X146803571Y-145493333D01*
X146755952Y-145588571D01*
X146708333Y-145636190D01*
X146613095Y-145683809D01*
X146517857Y-145683809D01*
X146422619Y-145636190D01*
X146375000Y-145588571D01*
X146327380Y-145493333D01*
X146327380Y-145255238D01*
X146375000Y-145112380D01*
X147327380Y-144683809D02*
X146327380Y-144683809D01*
X147327380Y-144207619D02*
X146327380Y-144207619D01*
X146327380Y-143826666D01*
X146375000Y-143731428D01*
X146422619Y-143683809D01*
X146517857Y-143636190D01*
X146660714Y-143636190D01*
X146755952Y-143683809D01*
X146803571Y-143731428D01*
X146851190Y-143826666D01*
X146851190Y-144207619D01*
X147327380Y-143207619D02*
X146327380Y-143207619D01*
X147041666Y-142874285D01*
X146327380Y-142540952D01*
X147327380Y-142540952D01*
X147327380Y-141302857D02*
X146327380Y-141302857D01*
X146327380Y-140921904D01*
X146375000Y-140826666D01*
X146422619Y-140779047D01*
X146517857Y-140731428D01*
X146660714Y-140731428D01*
X146755952Y-140779047D01*
X146803571Y-140826666D01*
X146851190Y-140921904D01*
X146851190Y-141302857D01*
X147327380Y-140160000D02*
X147279761Y-140255238D01*
X147232142Y-140302857D01*
X147136904Y-140350476D01*
X146851190Y-140350476D01*
X146755952Y-140302857D01*
X146708333Y-140255238D01*
X146660714Y-140160000D01*
X146660714Y-140017142D01*
X146708333Y-139921904D01*
X146755952Y-139874285D01*
X146851190Y-139826666D01*
X147136904Y-139826666D01*
X147232142Y-139874285D01*
X147279761Y-139921904D01*
X147327380Y-140017142D01*
X147327380Y-140160000D01*
X146660714Y-139493333D02*
X147327380Y-139302857D01*
X146851190Y-139112380D01*
X147327380Y-138921904D01*
X146660714Y-138731428D01*
X147279761Y-137969523D02*
X147327380Y-138064761D01*
X147327380Y-138255238D01*
X147279761Y-138350476D01*
X147184523Y-138398095D01*
X146803571Y-138398095D01*
X146708333Y-138350476D01*
X146660714Y-138255238D01*
X146660714Y-138064761D01*
X146708333Y-137969523D01*
X146803571Y-137921904D01*
X146898809Y-137921904D01*
X146994047Y-138398095D01*
X147327380Y-137493333D02*
X146660714Y-137493333D01*
X146851190Y-137493333D02*
X146755952Y-137445714D01*
X146708333Y-137398095D01*
X146660714Y-137302857D01*
X146660714Y-137207619D01*
X147279761Y-136160000D02*
X147327380Y-136017142D01*
X147327380Y-135779047D01*
X147279761Y-135683809D01*
X147232142Y-135636190D01*
X147136904Y-135588571D01*
X147041666Y-135588571D01*
X146946428Y-135636190D01*
X146898809Y-135683809D01*
X146851190Y-135779047D01*
X146803571Y-135969523D01*
X146755952Y-136064761D01*
X146708333Y-136112380D01*
X146613095Y-136160000D01*
X146517857Y-136160000D01*
X146422619Y-136112380D01*
X146375000Y-136064761D01*
X146327380Y-135969523D01*
X146327380Y-135731428D01*
X146375000Y-135588571D01*
X146660714Y-134731428D02*
X147327380Y-134731428D01*
X146660714Y-135160000D02*
X147184523Y-135160000D01*
X147279761Y-135112380D01*
X147327380Y-135017142D01*
X147327380Y-134874285D01*
X147279761Y-134779047D01*
X147232142Y-134731428D01*
X146660714Y-134255238D02*
X147660714Y-134255238D01*
X146708333Y-134255238D02*
X146660714Y-134160000D01*
X146660714Y-133969523D01*
X146708333Y-133874285D01*
X146755952Y-133826666D01*
X146851190Y-133779047D01*
X147136904Y-133779047D01*
X147232142Y-133826666D01*
X147279761Y-133874285D01*
X147327380Y-133969523D01*
X147327380Y-134160000D01*
X147279761Y-134255238D01*
X146660714Y-133350476D02*
X147660714Y-133350476D01*
X146708333Y-133350476D02*
X146660714Y-133255238D01*
X146660714Y-133064761D01*
X146708333Y-132969523D01*
X146755952Y-132921904D01*
X146851190Y-132874285D01*
X147136904Y-132874285D01*
X147232142Y-132921904D01*
X147279761Y-132969523D01*
X147327380Y-133064761D01*
X147327380Y-133255238D01*
X147279761Y-133350476D01*
X147327380Y-132302857D02*
X147279761Y-132398095D01*
X147184523Y-132445714D01*
X146327380Y-132445714D01*
X146660714Y-132017142D02*
X147327380Y-131779047D01*
X146660714Y-131540952D02*
X147327380Y-131779047D01*
X147565476Y-131874285D01*
X147613095Y-131921904D01*
X147660714Y-132017142D01*
X147279761Y-131112380D02*
X147327380Y-131112380D01*
X147422619Y-131160000D01*
X147470238Y-131207619D01*
X146660714Y-130017142D02*
X147327380Y-129779047D01*
X146660714Y-129540952D01*
X147327380Y-128636190D02*
X147327380Y-129207619D01*
X147327380Y-128921904D02*
X146327380Y-128921904D01*
X146470238Y-129017142D01*
X146565476Y-129112380D01*
X146613095Y-129207619D01*
D11*
%TO.C,C313*%
X86720000Y-85013748D02*
X86720000Y-86436252D01*
X88540000Y-85013748D02*
X88540000Y-86436252D01*
%TO.C,C311*%
X86720000Y-69138748D02*
X86720000Y-70561252D01*
X88540000Y-69138748D02*
X88540000Y-70561252D01*
%TO.C,C112*%
X86720000Y-76758748D02*
X86720000Y-78181252D01*
X88540000Y-76758748D02*
X88540000Y-78181252D01*
%TO.C,SW301*%
X62805000Y-63560000D02*
X65465000Y-63560000D01*
X62805000Y-53340000D02*
X62805000Y-63560000D01*
X65465000Y-53340000D02*
X65465000Y-63560000D01*
X62805000Y-53340000D02*
X65465000Y-53340000D01*
X62805000Y-52070000D02*
X62805000Y-50740000D01*
X62805000Y-50740000D02*
X64135000Y-50740000D01*
%TO.C,SW303*%
X77470000Y-63500000D02*
X77470000Y-58420000D01*
X77470000Y-58420000D02*
X85090000Y-58420000D01*
X85090000Y-58420000D02*
X85090000Y-63500000D01*
X85090000Y-63500000D02*
X77470000Y-63500000D01*
X82550000Y-60960000D02*
G75*
G03*
X82550000Y-60960000I-1270000J0D01*
G01*
%TO.C,U300*%
X121010000Y-91625000D02*
X121410000Y-91625000D01*
X118410000Y-91625000D02*
X118810000Y-91625000D01*
X130410000Y-91625000D02*
X123610000Y-91625000D01*
X130410000Y-81225000D02*
X130410000Y-81625000D01*
X130410000Y-73525000D02*
X130410000Y-73925000D01*
X130410000Y-48125000D02*
X130410000Y-48525000D01*
X130410000Y-40625000D02*
X130410000Y-40925000D01*
X130410000Y-63425000D02*
X130410000Y-63825000D01*
X130410000Y-78625000D02*
X130410000Y-79025000D01*
X130410000Y-58325000D02*
X130410000Y-58725000D01*
X130410000Y-53225000D02*
X130410000Y-53625000D01*
X130410000Y-65925000D02*
X130410000Y-66325000D01*
X130410000Y-71025000D02*
X130410000Y-71425000D01*
X130410000Y-86225000D02*
X130410000Y-86625000D01*
X130410000Y-88825000D02*
X130410000Y-89225000D01*
X130410000Y-83725000D02*
X130410000Y-84125000D01*
X130410000Y-50725000D02*
X130410000Y-51125000D01*
X130410000Y-43025000D02*
X130410000Y-43425000D01*
X130410000Y-45625000D02*
X130410000Y-46025000D01*
X130410000Y-76125000D02*
X130410000Y-76525000D01*
X130410000Y-68425000D02*
X130410000Y-68825000D01*
X130410000Y-60825000D02*
X130410000Y-61225000D01*
X130410000Y-55725000D02*
X130410000Y-56125000D01*
X109410000Y-88825000D02*
X109410000Y-89225000D01*
X109410000Y-86225000D02*
X109410000Y-86625000D01*
X109410000Y-83725000D02*
X109410000Y-84125000D01*
X109410000Y-81225000D02*
X109410000Y-81625000D01*
X109410000Y-78625000D02*
X109410000Y-79025000D01*
X109410000Y-76125000D02*
X109410000Y-76525000D01*
X109410000Y-73525000D02*
X109410000Y-73925000D01*
X109410000Y-71025000D02*
X109410000Y-71425000D01*
X109410000Y-68425000D02*
X109410000Y-68825000D01*
X109410000Y-65925000D02*
X109410000Y-66325000D01*
X109410000Y-63425000D02*
X109410000Y-63825000D01*
X109410000Y-60825000D02*
X109410000Y-61225000D01*
X109410000Y-58325000D02*
X109410000Y-58725000D01*
X109410000Y-55725000D02*
X109410000Y-56125000D01*
X109410000Y-53225000D02*
X109410000Y-53625000D01*
X109410000Y-50725000D02*
X109410000Y-51125000D01*
X109410000Y-48125000D02*
X109410000Y-48525000D01*
X109410000Y-45625000D02*
X109410000Y-46025000D01*
X109410000Y-43025000D02*
X109410000Y-43425000D01*
X109410000Y-40625000D02*
X109410000Y-40925000D01*
X112417000Y-43292000D02*
X112417000Y-40625000D01*
X109410000Y-43292000D02*
X112417000Y-43292000D01*
X116210000Y-91625000D02*
X109410000Y-91625000D01*
X109410000Y-40625000D02*
X130410000Y-40625000D01*
%TO.C,U200*%
X97055000Y-125105000D02*
X132815000Y-125105000D01*
X132815000Y-125105000D02*
X132715000Y-158405000D01*
X132615000Y-158405000D02*
X132715000Y-158405000D01*
X97055000Y-158405000D02*
X97055000Y-125105000D01*
X97155000Y-125095000D02*
X132815000Y-125105000D01*
X97055000Y-158405000D02*
X132615000Y-158405000D01*
%TO.C,U100*%
X105410000Y-109855000D02*
X105410000Y-99695000D01*
X105410000Y-99695000D02*
X92710000Y-99695000D01*
X105410000Y-109855000D02*
X92710000Y-109855000D01*
X91440000Y-100965000D02*
X91440000Y-108585000D01*
X97730000Y-105005000D02*
G75*
G03*
X97730000Y-105005000I-2500000J0D01*
G01*
X92710000Y-109855000D02*
G75*
G02*
X91440000Y-108585000I0J1270000D01*
G01*
X91440000Y-100965000D02*
G75*
G02*
X92710000Y-99695000I1270000J0D01*
G01*
%TO.C,SW302*%
X78105000Y-50165000D02*
X78105000Y-45085000D01*
X78105000Y-45085000D02*
X85725000Y-45085000D01*
X85725000Y-45085000D02*
X85725000Y-50165000D01*
X85725000Y-50165000D02*
X78105000Y-50165000D01*
X83185000Y-47625000D02*
G75*
G03*
X83185000Y-47625000I-1270000J0D01*
G01*
%TO.C,SW201*%
X75445000Y-139195000D02*
X75445000Y-149095000D01*
X70605000Y-139195000D02*
X70605000Y-149095000D01*
X75445000Y-139195000D02*
X70605000Y-139195000D01*
X75445000Y-149095000D02*
X70605000Y-149095000D01*
X75685000Y-138955000D02*
X75685000Y-140339000D01*
X75685000Y-138955000D02*
X74302000Y-138955000D01*
X73660000Y-142115000D02*
X72390000Y-142115000D01*
X72390000Y-142115000D02*
X72390000Y-146175000D01*
X72390000Y-146175000D02*
X73660000Y-146175000D01*
X73660000Y-146175000D02*
X73660000Y-142115000D01*
X73540000Y-142115000D02*
X73540000Y-143468333D01*
X73420000Y-142115000D02*
X73420000Y-143468333D01*
X73300000Y-142115000D02*
X73300000Y-143468333D01*
X73180000Y-142115000D02*
X73180000Y-143468333D01*
X73060000Y-142115000D02*
X73060000Y-143468333D01*
X72940000Y-142115000D02*
X72940000Y-143468333D01*
X72820000Y-142115000D02*
X72820000Y-143468333D01*
X72700000Y-142115000D02*
X72700000Y-143468333D01*
X72580000Y-142115000D02*
X72580000Y-143468333D01*
X72460000Y-142115000D02*
X72460000Y-143468333D01*
X73660000Y-143468333D02*
X72390000Y-143468333D01*
%TO.C,RV301*%
X165210000Y-91305000D02*
X165210000Y-95545000D01*
X155210000Y-91305000D02*
X155210000Y-95545000D01*
X155210000Y-95545000D02*
X165210000Y-95545000D01*
X155210000Y-91305000D02*
X165210000Y-91305000D01*
X155210000Y-89805000D02*
X155210000Y-97045000D01*
X150210000Y-89805000D02*
X150210000Y-97045000D01*
X150210000Y-97045000D02*
X155210000Y-97045000D01*
X150210000Y-89805000D02*
X155210000Y-89805000D01*
X150210000Y-85305000D02*
X150210000Y-101545000D01*
X142470000Y-85305000D02*
X142470000Y-101545000D01*
X142470000Y-101545000D02*
X150210000Y-101545000D01*
X142470000Y-85305000D02*
X150210000Y-85305000D01*
%TO.C,J201*%
X136461500Y-107315000D02*
X136461500Y-111696500D01*
X136461500Y-111696500D02*
X151828500Y-111696500D01*
X151828500Y-111696500D02*
X151828500Y-107315000D01*
X151828500Y-107315000D02*
X136461500Y-107315000D01*
X151828500Y-107886500D02*
X152463500Y-107886500D01*
X152463500Y-107886500D02*
X152463500Y-110744000D01*
X152463500Y-110744000D02*
X151828500Y-110744000D01*
%TO.C,J200*%
X136461500Y-116840000D02*
X136461500Y-121221500D01*
X136461500Y-121221500D02*
X151828500Y-121221500D01*
X151828500Y-121221500D02*
X151828500Y-116840000D01*
X151828500Y-116840000D02*
X136461500Y-116840000D01*
X151828500Y-117411500D02*
X152463500Y-117411500D01*
X152463500Y-117411500D02*
X152463500Y-120269000D01*
X152463500Y-120269000D02*
X151828500Y-120269000D01*
%TO.C,J1*%
X92075000Y-39370000D02*
X92075000Y-41910000D01*
X92075000Y-41910000D02*
X102235000Y-41910000D01*
X102235000Y-41910000D02*
X102235000Y-39370000D01*
X102235000Y-39370000D02*
X92075000Y-39370000D01*
%TO.C,U301*%
X143565000Y-64240000D02*
X143565000Y-67840000D01*
X143576522Y-67878478D02*
G75*
G03*
X148015000Y-66040000I1838478J1838478D01*
G01*
X143576522Y-64201522D02*
G75*
G02*
X148015000Y-66040000I1838478J-1838478D01*
G01*
%TO.C,R302*%
X144505000Y-74387064D02*
X144505000Y-72932936D01*
X146325000Y-74387064D02*
X146325000Y-72932936D01*
%TO.C,C302*%
X143870000Y-59131252D02*
X143870000Y-57708748D01*
X145690000Y-59131252D02*
X145690000Y-57708748D01*
%TO.C,C205*%
X125806252Y-155215000D02*
X124383748Y-155215000D01*
X125806252Y-153395000D02*
X124383748Y-153395000D01*
%TO.C,D301*%
X102715000Y-117346000D02*
X102715000Y-117665000D01*
X102715000Y-119825000D02*
X102715000Y-120144000D01*
X106457713Y-119825961D02*
G75*
G02*
X103091670Y-119825000I-1682713J1080961D01*
G01*
X106457713Y-117664039D02*
G75*
G03*
X103091670Y-117665000I-1682713J-1080961D01*
G01*
X107018242Y-119825724D02*
G75*
G02*
X102715000Y-120143749I-2243242J1080724D01*
G01*
X107018242Y-117664276D02*
G75*
G03*
X102715000Y-117346251I-2243242J-1080724D01*
G01*
%TO.C,D300*%
X138910000Y-46861000D02*
X138910000Y-47180000D01*
X138910000Y-49340000D02*
X138910000Y-49659000D01*
X142652713Y-49340961D02*
G75*
G02*
X139286670Y-49340000I-1682713J1080961D01*
G01*
X142652713Y-47179039D02*
G75*
G03*
X139286670Y-47180000I-1682713J-1080961D01*
G01*
X143213242Y-49340724D02*
G75*
G02*
X138910000Y-49658749I-2243242J1080724D01*
G01*
X143213242Y-47179276D02*
G75*
G03*
X138910000Y-46861251I-2243242J-1080724D01*
G01*
%TO.C,D202*%
X74775000Y-116076000D02*
X74775000Y-116395000D01*
X74775000Y-118555000D02*
X74775000Y-118874000D01*
X78517713Y-118555961D02*
G75*
G02*
X75151670Y-118555000I-1682713J1080961D01*
G01*
X78517713Y-116394039D02*
G75*
G03*
X75151670Y-116395000I-1682713J-1080961D01*
G01*
X79078242Y-118555724D02*
G75*
G02*
X74775000Y-118873749I-2243242J1080724D01*
G01*
X79078242Y-116394276D02*
G75*
G03*
X74775000Y-116076251I-2243242J-1080724D01*
G01*
%TO.C,D201*%
X74775000Y-104011000D02*
X74775000Y-104330000D01*
X74775000Y-106490000D02*
X74775000Y-106809000D01*
X78517713Y-106490961D02*
G75*
G02*
X75151670Y-106490000I-1682713J1080961D01*
G01*
X78517713Y-104329039D02*
G75*
G03*
X75151670Y-104330000I-1682713J-1080961D01*
G01*
X79078242Y-106490724D02*
G75*
G02*
X74775000Y-106808749I-2243242J1080724D01*
G01*
X79078242Y-104329276D02*
G75*
G03*
X74775000Y-104011251I-2243242J-1080724D01*
G01*
%TO.C,D101*%
X74775000Y-92581000D02*
X74775000Y-92900000D01*
X74775000Y-95060000D02*
X74775000Y-95379000D01*
X78517713Y-95060961D02*
G75*
G02*
X75151670Y-95060000I-1682713J1080961D01*
G01*
X78517713Y-92899039D02*
G75*
G03*
X75151670Y-92900000I-1682713J-1080961D01*
G01*
X79078242Y-95060724D02*
G75*
G02*
X74775000Y-95378749I-2243242J1080724D01*
G01*
X79078242Y-92899276D02*
G75*
G03*
X74775000Y-92581251I-2243242J-1080724D01*
G01*
%TO.C,J3*%
X130115000Y-91500000D02*
X132775000Y-91500000D01*
X130115000Y-43180000D02*
X130115000Y-91500000D01*
X132775000Y-43180000D02*
X132775000Y-91500000D01*
X130115000Y-43180000D02*
X132775000Y-43180000D01*
X130115000Y-41910000D02*
X130115000Y-40580000D01*
X130115000Y-40580000D02*
X131445000Y-40580000D01*
%TO.C,J2*%
X109915000Y-40580000D02*
X107255000Y-40580000D01*
X109915000Y-88900000D02*
X109915000Y-40580000D01*
X107255000Y-88900000D02*
X107255000Y-40580000D01*
X109915000Y-88900000D02*
X107255000Y-88900000D01*
X109915000Y-90170000D02*
X109915000Y-91500000D01*
X109915000Y-91500000D02*
X108585000Y-91500000D01*
%TO.C,R301*%
X95342064Y-119655000D02*
X93887936Y-119655000D01*
X95342064Y-117835000D02*
X93887936Y-117835000D01*
%TO.C,R204*%
X71662936Y-127995000D02*
X73117064Y-127995000D01*
X71662936Y-129815000D02*
X73117064Y-129815000D01*
%TO.C,R203*%
X65680000Y-142147936D02*
X65680000Y-143602064D01*
X63860000Y-142147936D02*
X63860000Y-143602064D01*
%TO.C,R202*%
X68037064Y-118385000D02*
X66582936Y-118385000D01*
X68037064Y-116565000D02*
X66582936Y-116565000D01*
%TO.C,R201*%
X68037064Y-106320000D02*
X66582936Y-106320000D01*
X68037064Y-104500000D02*
X66582936Y-104500000D01*
%TO.C,R101*%
X68037064Y-94890000D02*
X66582936Y-94890000D01*
X68037064Y-93070000D02*
X66582936Y-93070000D01*
%TO.C,JP202*%
X86420000Y-155635000D02*
X86420000Y-152975000D01*
X83820000Y-155635000D02*
X86420000Y-155635000D01*
X83820000Y-152975000D02*
X86420000Y-152975000D01*
X83820000Y-155635000D02*
X83820000Y-152975000D01*
X82550000Y-155635000D02*
X81220000Y-155635000D01*
X81220000Y-155635000D02*
X81220000Y-154305000D01*
%TO.C,JP201*%
X86420000Y-145475000D02*
X86420000Y-142815000D01*
X83820000Y-145475000D02*
X86420000Y-145475000D01*
X83820000Y-142815000D02*
X86420000Y-142815000D01*
X83820000Y-145475000D02*
X83820000Y-142815000D01*
X82550000Y-145475000D02*
X81220000Y-145475000D01*
X81220000Y-145475000D02*
X81220000Y-144145000D01*
%TO.C,JP3*%
X86420000Y-133410000D02*
X86420000Y-130750000D01*
X83820000Y-133410000D02*
X86420000Y-133410000D01*
X83820000Y-130750000D02*
X86420000Y-130750000D01*
X83820000Y-133410000D02*
X83820000Y-130750000D01*
X82550000Y-133410000D02*
X81220000Y-133410000D01*
X81220000Y-133410000D02*
X81220000Y-132080000D01*
%TO.C,J100*%
X78570000Y-71815000D02*
X78570000Y-70765000D01*
X77520000Y-70765000D02*
X78570000Y-70765000D01*
X72470000Y-80165000D02*
X63670000Y-80165000D01*
X63670000Y-80165000D02*
X63670000Y-70965000D01*
X78370000Y-77465000D02*
X78370000Y-80165000D01*
X78370000Y-80165000D02*
X76470000Y-80165000D01*
X63670000Y-70965000D02*
X78370000Y-70965000D01*
X78370000Y-70965000D02*
X78370000Y-73565000D01*
%TO.C,C204*%
X123266252Y-134895000D02*
X121843748Y-134895000D01*
X123266252Y-133075000D02*
X121843748Y-133075000D01*
%TO.C,C202*%
X116281252Y-119655000D02*
X114858748Y-119655000D01*
X116281252Y-117835000D02*
X114858748Y-117835000D01*
%TO.C,C313*%
D10*
X89837142Y-86844047D02*
X89884761Y-86891666D01*
X89932380Y-87034523D01*
X89932380Y-87129761D01*
X89884761Y-87272619D01*
X89789523Y-87367857D01*
X89694285Y-87415476D01*
X89503809Y-87463095D01*
X89360952Y-87463095D01*
X89170476Y-87415476D01*
X89075238Y-87367857D01*
X88980000Y-87272619D01*
X88932380Y-87129761D01*
X88932380Y-87034523D01*
X88980000Y-86891666D01*
X89027619Y-86844047D01*
X88932380Y-86510714D02*
X88932380Y-85891666D01*
X89313333Y-86225000D01*
X89313333Y-86082142D01*
X89360952Y-85986904D01*
X89408571Y-85939285D01*
X89503809Y-85891666D01*
X89741904Y-85891666D01*
X89837142Y-85939285D01*
X89884761Y-85986904D01*
X89932380Y-86082142D01*
X89932380Y-86367857D01*
X89884761Y-86463095D01*
X89837142Y-86510714D01*
X89932380Y-84939285D02*
X89932380Y-85510714D01*
X89932380Y-85225000D02*
X88932380Y-85225000D01*
X89075238Y-85320238D01*
X89170476Y-85415476D01*
X89218095Y-85510714D01*
X88932380Y-84605952D02*
X88932380Y-83986904D01*
X89313333Y-84320238D01*
X89313333Y-84177380D01*
X89360952Y-84082142D01*
X89408571Y-84034523D01*
X89503809Y-83986904D01*
X89741904Y-83986904D01*
X89837142Y-84034523D01*
X89884761Y-84082142D01*
X89932380Y-84177380D01*
X89932380Y-84463095D01*
X89884761Y-84558333D01*
X89837142Y-84605952D01*
%TO.C,C311*%
X89837142Y-70969047D02*
X89884761Y-71016666D01*
X89932380Y-71159523D01*
X89932380Y-71254761D01*
X89884761Y-71397619D01*
X89789523Y-71492857D01*
X89694285Y-71540476D01*
X89503809Y-71588095D01*
X89360952Y-71588095D01*
X89170476Y-71540476D01*
X89075238Y-71492857D01*
X88980000Y-71397619D01*
X88932380Y-71254761D01*
X88932380Y-71159523D01*
X88980000Y-71016666D01*
X89027619Y-70969047D01*
X88932380Y-70635714D02*
X88932380Y-70016666D01*
X89313333Y-70350000D01*
X89313333Y-70207142D01*
X89360952Y-70111904D01*
X89408571Y-70064285D01*
X89503809Y-70016666D01*
X89741904Y-70016666D01*
X89837142Y-70064285D01*
X89884761Y-70111904D01*
X89932380Y-70207142D01*
X89932380Y-70492857D01*
X89884761Y-70588095D01*
X89837142Y-70635714D01*
X89932380Y-69064285D02*
X89932380Y-69635714D01*
X89932380Y-69350000D02*
X88932380Y-69350000D01*
X89075238Y-69445238D01*
X89170476Y-69540476D01*
X89218095Y-69635714D01*
X89932380Y-68111904D02*
X89932380Y-68683333D01*
X89932380Y-68397619D02*
X88932380Y-68397619D01*
X89075238Y-68492857D01*
X89170476Y-68588095D01*
X89218095Y-68683333D01*
%TO.C,C112*%
X89837142Y-78589047D02*
X89884761Y-78636666D01*
X89932380Y-78779523D01*
X89932380Y-78874761D01*
X89884761Y-79017619D01*
X89789523Y-79112857D01*
X89694285Y-79160476D01*
X89503809Y-79208095D01*
X89360952Y-79208095D01*
X89170476Y-79160476D01*
X89075238Y-79112857D01*
X88980000Y-79017619D01*
X88932380Y-78874761D01*
X88932380Y-78779523D01*
X88980000Y-78636666D01*
X89027619Y-78589047D01*
X89932380Y-77636666D02*
X89932380Y-78208095D01*
X89932380Y-77922380D02*
X88932380Y-77922380D01*
X89075238Y-78017619D01*
X89170476Y-78112857D01*
X89218095Y-78208095D01*
X89932380Y-76684285D02*
X89932380Y-77255714D01*
X89932380Y-76970000D02*
X88932380Y-76970000D01*
X89075238Y-77065238D01*
X89170476Y-77160476D01*
X89218095Y-77255714D01*
X89027619Y-76303333D02*
X88980000Y-76255714D01*
X88932380Y-76160476D01*
X88932380Y-75922380D01*
X88980000Y-75827142D01*
X89027619Y-75779523D01*
X89122857Y-75731904D01*
X89218095Y-75731904D01*
X89360952Y-75779523D01*
X89932380Y-76350952D01*
X89932380Y-75731904D01*
%TO.C,SW301*%
X61849285Y-50144761D02*
X61992142Y-50192380D01*
X62230238Y-50192380D01*
X62325476Y-50144761D01*
X62373095Y-50097142D01*
X62420714Y-50001904D01*
X62420714Y-49906666D01*
X62373095Y-49811428D01*
X62325476Y-49763809D01*
X62230238Y-49716190D01*
X62039761Y-49668571D01*
X61944523Y-49620952D01*
X61896904Y-49573333D01*
X61849285Y-49478095D01*
X61849285Y-49382857D01*
X61896904Y-49287619D01*
X61944523Y-49240000D01*
X62039761Y-49192380D01*
X62277857Y-49192380D01*
X62420714Y-49240000D01*
X62754047Y-49192380D02*
X62992142Y-50192380D01*
X63182619Y-49478095D01*
X63373095Y-50192380D01*
X63611190Y-49192380D01*
X63896904Y-49192380D02*
X64515952Y-49192380D01*
X64182619Y-49573333D01*
X64325476Y-49573333D01*
X64420714Y-49620952D01*
X64468333Y-49668571D01*
X64515952Y-49763809D01*
X64515952Y-50001904D01*
X64468333Y-50097142D01*
X64420714Y-50144761D01*
X64325476Y-50192380D01*
X64039761Y-50192380D01*
X63944523Y-50144761D01*
X63896904Y-50097142D01*
X65135000Y-49192380D02*
X65230238Y-49192380D01*
X65325476Y-49240000D01*
X65373095Y-49287619D01*
X65420714Y-49382857D01*
X65468333Y-49573333D01*
X65468333Y-49811428D01*
X65420714Y-50001904D01*
X65373095Y-50097142D01*
X65325476Y-50144761D01*
X65230238Y-50192380D01*
X65135000Y-50192380D01*
X65039761Y-50144761D01*
X64992142Y-50097142D01*
X64944523Y-50001904D01*
X64896904Y-49811428D01*
X64896904Y-49573333D01*
X64944523Y-49382857D01*
X64992142Y-49287619D01*
X65039761Y-49240000D01*
X65135000Y-49192380D01*
X66420714Y-50192380D02*
X65849285Y-50192380D01*
X66135000Y-50192380D02*
X66135000Y-49192380D01*
X66039761Y-49335238D01*
X65944523Y-49430476D01*
X65849285Y-49478095D01*
%TO.C,SW303*%
X78994285Y-57554761D02*
X79137142Y-57602380D01*
X79375238Y-57602380D01*
X79470476Y-57554761D01*
X79518095Y-57507142D01*
X79565714Y-57411904D01*
X79565714Y-57316666D01*
X79518095Y-57221428D01*
X79470476Y-57173809D01*
X79375238Y-57126190D01*
X79184761Y-57078571D01*
X79089523Y-57030952D01*
X79041904Y-56983333D01*
X78994285Y-56888095D01*
X78994285Y-56792857D01*
X79041904Y-56697619D01*
X79089523Y-56650000D01*
X79184761Y-56602380D01*
X79422857Y-56602380D01*
X79565714Y-56650000D01*
X79899047Y-56602380D02*
X80137142Y-57602380D01*
X80327619Y-56888095D01*
X80518095Y-57602380D01*
X80756190Y-56602380D01*
X81041904Y-56602380D02*
X81660952Y-56602380D01*
X81327619Y-56983333D01*
X81470476Y-56983333D01*
X81565714Y-57030952D01*
X81613333Y-57078571D01*
X81660952Y-57173809D01*
X81660952Y-57411904D01*
X81613333Y-57507142D01*
X81565714Y-57554761D01*
X81470476Y-57602380D01*
X81184761Y-57602380D01*
X81089523Y-57554761D01*
X81041904Y-57507142D01*
X82280000Y-56602380D02*
X82375238Y-56602380D01*
X82470476Y-56650000D01*
X82518095Y-56697619D01*
X82565714Y-56792857D01*
X82613333Y-56983333D01*
X82613333Y-57221428D01*
X82565714Y-57411904D01*
X82518095Y-57507142D01*
X82470476Y-57554761D01*
X82375238Y-57602380D01*
X82280000Y-57602380D01*
X82184761Y-57554761D01*
X82137142Y-57507142D01*
X82089523Y-57411904D01*
X82041904Y-57221428D01*
X82041904Y-56983333D01*
X82089523Y-56792857D01*
X82137142Y-56697619D01*
X82184761Y-56650000D01*
X82280000Y-56602380D01*
X82946666Y-56602380D02*
X83565714Y-56602380D01*
X83232380Y-56983333D01*
X83375238Y-56983333D01*
X83470476Y-57030952D01*
X83518095Y-57078571D01*
X83565714Y-57173809D01*
X83565714Y-57411904D01*
X83518095Y-57507142D01*
X83470476Y-57554761D01*
X83375238Y-57602380D01*
X83089523Y-57602380D01*
X82994285Y-57554761D01*
X82946666Y-57507142D01*
%TO.C,U300*%
X118195714Y-65577380D02*
X118195714Y-66386904D01*
X118243333Y-66482142D01*
X118290952Y-66529761D01*
X118386190Y-66577380D01*
X118576666Y-66577380D01*
X118671904Y-66529761D01*
X118719523Y-66482142D01*
X118767142Y-66386904D01*
X118767142Y-65577380D01*
X119148095Y-65577380D02*
X119767142Y-65577380D01*
X119433809Y-65958333D01*
X119576666Y-65958333D01*
X119671904Y-66005952D01*
X119719523Y-66053571D01*
X119767142Y-66148809D01*
X119767142Y-66386904D01*
X119719523Y-66482142D01*
X119671904Y-66529761D01*
X119576666Y-66577380D01*
X119290952Y-66577380D01*
X119195714Y-66529761D01*
X119148095Y-66482142D01*
X120386190Y-65577380D02*
X120481428Y-65577380D01*
X120576666Y-65625000D01*
X120624285Y-65672619D01*
X120671904Y-65767857D01*
X120719523Y-65958333D01*
X120719523Y-66196428D01*
X120671904Y-66386904D01*
X120624285Y-66482142D01*
X120576666Y-66529761D01*
X120481428Y-66577380D01*
X120386190Y-66577380D01*
X120290952Y-66529761D01*
X120243333Y-66482142D01*
X120195714Y-66386904D01*
X120148095Y-66196428D01*
X120148095Y-65958333D01*
X120195714Y-65767857D01*
X120243333Y-65672619D01*
X120290952Y-65625000D01*
X120386190Y-65577380D01*
X121338571Y-65577380D02*
X121433809Y-65577380D01*
X121529047Y-65625000D01*
X121576666Y-65672619D01*
X121624285Y-65767857D01*
X121671904Y-65958333D01*
X121671904Y-66196428D01*
X121624285Y-66386904D01*
X121576666Y-66482142D01*
X121529047Y-66529761D01*
X121433809Y-66577380D01*
X121338571Y-66577380D01*
X121243333Y-66529761D01*
X121195714Y-66482142D01*
X121148095Y-66386904D01*
X121100476Y-66196428D01*
X121100476Y-65958333D01*
X121148095Y-65767857D01*
X121195714Y-65672619D01*
X121243333Y-65625000D01*
X121338571Y-65577380D01*
X123814761Y-92648809D02*
X123929047Y-92686904D01*
X124119523Y-92686904D01*
X124195714Y-92648809D01*
X124233809Y-92610714D01*
X124271904Y-92534523D01*
X124271904Y-92458333D01*
X124233809Y-92382142D01*
X124195714Y-92344047D01*
X124119523Y-92305952D01*
X123967142Y-92267857D01*
X123890952Y-92229761D01*
X123852857Y-92191666D01*
X123814761Y-92115476D01*
X123814761Y-92039285D01*
X123852857Y-91963095D01*
X123890952Y-91925000D01*
X123967142Y-91886904D01*
X124157619Y-91886904D01*
X124271904Y-91925000D01*
X124538571Y-91886904D02*
X124729047Y-92686904D01*
X124881428Y-92115476D01*
X125033809Y-92686904D01*
X125224285Y-91886904D01*
X125529047Y-92686904D02*
X125529047Y-91886904D01*
X125719523Y-91886904D01*
X125833809Y-91925000D01*
X125910000Y-92001190D01*
X125948095Y-92077380D01*
X125986190Y-92229761D01*
X125986190Y-92344047D01*
X125948095Y-92496428D01*
X125910000Y-92572619D01*
X125833809Y-92648809D01*
X125719523Y-92686904D01*
X125529047Y-92686904D01*
X126329047Y-92686904D02*
X126329047Y-91886904D01*
X126862380Y-91886904D02*
X127014761Y-91886904D01*
X127090952Y-91925000D01*
X127167142Y-92001190D01*
X127205238Y-92153571D01*
X127205238Y-92420238D01*
X127167142Y-92572619D01*
X127090952Y-92648809D01*
X127014761Y-92686904D01*
X126862380Y-92686904D01*
X126786190Y-92648809D01*
X126710000Y-92572619D01*
X126671904Y-92420238D01*
X126671904Y-92153571D01*
X126710000Y-92001190D01*
X126786190Y-91925000D01*
X126862380Y-91886904D01*
X112400476Y-92648809D02*
X112514761Y-92686904D01*
X112705238Y-92686904D01*
X112781428Y-92648809D01*
X112819523Y-92610714D01*
X112857619Y-92534523D01*
X112857619Y-92458333D01*
X112819523Y-92382142D01*
X112781428Y-92344047D01*
X112705238Y-92305952D01*
X112552857Y-92267857D01*
X112476666Y-92229761D01*
X112438571Y-92191666D01*
X112400476Y-92115476D01*
X112400476Y-92039285D01*
X112438571Y-91963095D01*
X112476666Y-91925000D01*
X112552857Y-91886904D01*
X112743333Y-91886904D01*
X112857619Y-91925000D01*
X113124285Y-91886904D02*
X113314761Y-92686904D01*
X113467142Y-92115476D01*
X113619523Y-92686904D01*
X113810000Y-91886904D01*
X114571904Y-92610714D02*
X114533809Y-92648809D01*
X114419523Y-92686904D01*
X114343333Y-92686904D01*
X114229047Y-92648809D01*
X114152857Y-92572619D01*
X114114761Y-92496428D01*
X114076666Y-92344047D01*
X114076666Y-92229761D01*
X114114761Y-92077380D01*
X114152857Y-92001190D01*
X114229047Y-91925000D01*
X114343333Y-91886904D01*
X114419523Y-91886904D01*
X114533809Y-91925000D01*
X114571904Y-91963095D01*
X115295714Y-92686904D02*
X114914761Y-92686904D01*
X114914761Y-91886904D01*
X115562380Y-92686904D02*
X115562380Y-91886904D01*
X116019523Y-92686904D02*
X115676666Y-92229761D01*
X116019523Y-91886904D02*
X115562380Y-92344047D01*
X132061597Y-60865964D02*
X132330971Y-60596590D01*
X132169346Y-61081463D02*
X131792223Y-60327216D01*
X132546470Y-60704340D01*
X132492595Y-59680719D02*
X132411783Y-59707656D01*
X132330971Y-59788468D01*
X132277096Y-59896218D01*
X132277096Y-60003967D01*
X132304033Y-60084780D01*
X132384845Y-60219467D01*
X132465658Y-60300279D01*
X132600345Y-60381091D01*
X132681157Y-60408028D01*
X132788906Y-60408028D01*
X132896656Y-60354154D01*
X132950531Y-60300279D01*
X133004406Y-60192529D01*
X133004406Y-60138654D01*
X132815844Y-59950093D01*
X132708094Y-60057842D01*
X133300717Y-59950093D02*
X132735032Y-59384407D01*
X133623966Y-59626844D01*
X133058280Y-59061158D01*
X133893340Y-59357470D02*
X133327654Y-58791784D01*
X133462341Y-58657097D01*
X133570091Y-58603223D01*
X133677841Y-58603223D01*
X133758653Y-58630160D01*
X133893340Y-58710972D01*
X133974152Y-58791784D01*
X134054964Y-58926471D01*
X134081902Y-59007284D01*
X134081902Y-59115033D01*
X134028027Y-59222783D01*
X133893340Y-59357470D01*
X131996158Y-47223155D02*
X131915346Y-47250093D01*
X131834534Y-47330905D01*
X131780659Y-47438654D01*
X131780659Y-47546404D01*
X131807597Y-47627216D01*
X131888409Y-47761903D01*
X131969221Y-47842715D01*
X132103908Y-47923528D01*
X132184720Y-47950465D01*
X132292470Y-47950465D01*
X132400219Y-47896590D01*
X132454094Y-47842715D01*
X132507969Y-47734966D01*
X132507969Y-47681091D01*
X132319407Y-47492529D01*
X132211658Y-47600279D01*
X132804280Y-47492529D02*
X132238595Y-46926844D01*
X133127529Y-47169280D01*
X132561844Y-46603595D01*
X133396903Y-46899906D02*
X132831218Y-46334221D01*
X132965905Y-46199534D01*
X133073654Y-46145659D01*
X133181404Y-46145659D01*
X133262216Y-46172597D01*
X133396903Y-46253409D01*
X133477715Y-46334221D01*
X133558528Y-46468908D01*
X133585465Y-46549720D01*
X133585465Y-46657470D01*
X133531590Y-46765219D01*
X133396903Y-46899906D01*
X131996158Y-72623155D02*
X131915346Y-72650093D01*
X131834534Y-72730905D01*
X131780659Y-72838654D01*
X131780659Y-72946404D01*
X131807597Y-73027216D01*
X131888409Y-73161903D01*
X131969221Y-73242715D01*
X132103908Y-73323528D01*
X132184720Y-73350465D01*
X132292470Y-73350465D01*
X132400219Y-73296590D01*
X132454094Y-73242715D01*
X132507969Y-73134966D01*
X132507969Y-73081091D01*
X132319407Y-72892529D01*
X132211658Y-73000279D01*
X132804280Y-72892529D02*
X132238595Y-72326844D01*
X133127529Y-72569280D01*
X132561844Y-72003595D01*
X133396903Y-72299906D02*
X132831218Y-71734221D01*
X132965905Y-71599534D01*
X133073654Y-71545659D01*
X133181404Y-71545659D01*
X133262216Y-71572597D01*
X133396903Y-71653409D01*
X133477715Y-71734221D01*
X133558528Y-71868908D01*
X133585465Y-71949720D01*
X133585465Y-72057470D01*
X133531590Y-72165219D01*
X133396903Y-72299906D01*
X131996158Y-85323155D02*
X131915346Y-85350093D01*
X131834534Y-85430905D01*
X131780659Y-85538654D01*
X131780659Y-85646404D01*
X131807597Y-85727216D01*
X131888409Y-85861903D01*
X131969221Y-85942715D01*
X132103908Y-86023528D01*
X132184720Y-86050465D01*
X132292470Y-86050465D01*
X132400219Y-85996590D01*
X132454094Y-85942715D01*
X132507969Y-85834966D01*
X132507969Y-85781091D01*
X132319407Y-85592529D01*
X132211658Y-85700279D01*
X132804280Y-85592529D02*
X132238595Y-85026844D01*
X133127529Y-85269280D01*
X132561844Y-84703595D01*
X133396903Y-84999906D02*
X132831218Y-84434221D01*
X132965905Y-84299534D01*
X133073654Y-84245659D01*
X133181404Y-84245659D01*
X133262216Y-84272597D01*
X133396903Y-84353409D01*
X133477715Y-84434221D01*
X133558528Y-84568908D01*
X133585465Y-84649720D01*
X133585465Y-84757470D01*
X133531590Y-84865219D01*
X133396903Y-84999906D01*
X106396158Y-85323155D02*
X106315346Y-85350093D01*
X106234534Y-85430905D01*
X106180659Y-85538654D01*
X106180659Y-85646404D01*
X106207597Y-85727216D01*
X106288409Y-85861903D01*
X106369221Y-85942715D01*
X106503908Y-86023528D01*
X106584720Y-86050465D01*
X106692470Y-86050465D01*
X106800219Y-85996590D01*
X106854094Y-85942715D01*
X106907969Y-85834966D01*
X106907969Y-85781091D01*
X106719407Y-85592529D01*
X106611658Y-85700279D01*
X107204280Y-85592529D02*
X106638595Y-85026844D01*
X107527529Y-85269280D01*
X106961844Y-84703595D01*
X107796903Y-84999906D02*
X107231218Y-84434221D01*
X107365905Y-84299534D01*
X107473654Y-84245659D01*
X107581404Y-84245659D01*
X107662216Y-84272597D01*
X107796903Y-84353409D01*
X107877715Y-84434221D01*
X107958528Y-84568908D01*
X107985465Y-84649720D01*
X107985465Y-84757470D01*
X107931590Y-84865219D01*
X107796903Y-84999906D01*
X106396158Y-72623155D02*
X106315346Y-72650093D01*
X106234534Y-72730905D01*
X106180659Y-72838654D01*
X106180659Y-72946404D01*
X106207597Y-73027216D01*
X106288409Y-73161903D01*
X106369221Y-73242715D01*
X106503908Y-73323528D01*
X106584720Y-73350465D01*
X106692470Y-73350465D01*
X106800219Y-73296590D01*
X106854094Y-73242715D01*
X106907969Y-73134966D01*
X106907969Y-73081091D01*
X106719407Y-72892529D01*
X106611658Y-73000279D01*
X107204280Y-72892529D02*
X106638595Y-72326844D01*
X107527529Y-72569280D01*
X106961844Y-72003595D01*
X107796903Y-72299906D02*
X107231218Y-71734221D01*
X107365905Y-71599534D01*
X107473654Y-71545659D01*
X107581404Y-71545659D01*
X107662216Y-71572597D01*
X107796903Y-71653409D01*
X107877715Y-71734221D01*
X107958528Y-71868908D01*
X107985465Y-71949720D01*
X107985465Y-72057470D01*
X107931590Y-72165219D01*
X107796903Y-72299906D01*
X106396158Y-59923155D02*
X106315346Y-59950093D01*
X106234534Y-60030905D01*
X106180659Y-60138654D01*
X106180659Y-60246404D01*
X106207597Y-60327216D01*
X106288409Y-60461903D01*
X106369221Y-60542715D01*
X106503908Y-60623528D01*
X106584720Y-60650465D01*
X106692470Y-60650465D01*
X106800219Y-60596590D01*
X106854094Y-60542715D01*
X106907969Y-60434966D01*
X106907969Y-60381091D01*
X106719407Y-60192529D01*
X106611658Y-60300279D01*
X107204280Y-60192529D02*
X106638595Y-59626844D01*
X107527529Y-59869280D01*
X106961844Y-59303595D01*
X107796903Y-59599906D02*
X107231218Y-59034221D01*
X107365905Y-58899534D01*
X107473654Y-58845659D01*
X107581404Y-58845659D01*
X107662216Y-58872597D01*
X107796903Y-58953409D01*
X107877715Y-59034221D01*
X107958528Y-59168908D01*
X107985465Y-59249720D01*
X107985465Y-59357470D01*
X107931590Y-59465219D01*
X107796903Y-59599906D01*
X106396158Y-47223155D02*
X106315346Y-47250093D01*
X106234534Y-47330905D01*
X106180659Y-47438654D01*
X106180659Y-47546404D01*
X106207597Y-47627216D01*
X106288409Y-47761903D01*
X106369221Y-47842715D01*
X106503908Y-47923528D01*
X106584720Y-47950465D01*
X106692470Y-47950465D01*
X106800219Y-47896590D01*
X106854094Y-47842715D01*
X106907969Y-47734966D01*
X106907969Y-47681091D01*
X106719407Y-47492529D01*
X106611658Y-47600279D01*
X107204280Y-47492529D02*
X106638595Y-46926844D01*
X107527529Y-47169280D01*
X106961844Y-46603595D01*
X107796903Y-46899906D02*
X107231218Y-46334221D01*
X107365905Y-46199534D01*
X107473654Y-46145659D01*
X107581404Y-46145659D01*
X107662216Y-46172597D01*
X107796903Y-46253409D01*
X107877715Y-46334221D01*
X107958528Y-46468908D01*
X107985465Y-46549720D01*
X107985465Y-46657470D01*
X107931590Y-46765219D01*
X107796903Y-46899906D01*
X131863129Y-42652309D02*
X132617377Y-43029433D01*
X132240253Y-42275186D01*
X132886751Y-42167436D02*
X132994500Y-42113561D01*
X133048375Y-42113561D01*
X133129187Y-42140499D01*
X133209999Y-42221311D01*
X133236937Y-42302123D01*
X133236937Y-42355998D01*
X133210000Y-42436810D01*
X132994500Y-42652309D01*
X132428815Y-42086624D01*
X132617377Y-41898062D01*
X132698189Y-41871125D01*
X132752064Y-41871125D01*
X132832876Y-41898062D01*
X132886751Y-41951937D01*
X132913688Y-42032749D01*
X132913688Y-42086624D01*
X132886751Y-42167436D01*
X132698189Y-42355998D01*
X132994500Y-41520938D02*
X133452436Y-41978874D01*
X133533248Y-42005812D01*
X133587123Y-42005812D01*
X133667935Y-41978874D01*
X133775685Y-41871125D01*
X133802622Y-41790312D01*
X133802622Y-41736438D01*
X133775685Y-41655625D01*
X133317749Y-41197690D01*
X134098934Y-41494001D02*
X134206683Y-41440126D01*
X134341370Y-41305439D01*
X134368308Y-41224627D01*
X134368308Y-41170752D01*
X134341370Y-41089940D01*
X134287496Y-41036065D01*
X134206683Y-41009128D01*
X134152809Y-41009128D01*
X134071996Y-41036065D01*
X133937309Y-41116877D01*
X133856497Y-41143815D01*
X133802622Y-41143815D01*
X133721810Y-41116877D01*
X133667935Y-41063003D01*
X133640998Y-40982190D01*
X133640998Y-40928316D01*
X133667935Y-40847503D01*
X133802622Y-40712816D01*
X133910372Y-40658942D01*
X131830473Y-45194966D02*
X132584720Y-45572089D01*
X132207597Y-44817842D01*
X132907969Y-45194966D02*
X133015719Y-45141091D01*
X133150406Y-45006404D01*
X133177343Y-44925592D01*
X133177343Y-44871717D01*
X133150406Y-44790905D01*
X133096531Y-44737030D01*
X133015719Y-44710093D01*
X132961844Y-44710093D01*
X132881032Y-44737030D01*
X132746345Y-44817842D01*
X132665532Y-44844780D01*
X132611658Y-44844780D01*
X132530845Y-44817842D01*
X132476971Y-44763967D01*
X132450033Y-44683155D01*
X132450033Y-44629280D01*
X132476971Y-44548468D01*
X132611658Y-44413781D01*
X132719407Y-44359906D01*
X133338967Y-44279094D02*
X133608341Y-44548468D01*
X132854094Y-44171345D02*
X133338967Y-44279094D01*
X133231218Y-43794221D01*
X133931590Y-44171345D02*
X134039340Y-44117470D01*
X134174027Y-43982783D01*
X134200964Y-43901971D01*
X134200964Y-43848096D01*
X134174027Y-43767284D01*
X134120152Y-43713409D01*
X134039340Y-43686471D01*
X133985465Y-43686471D01*
X133904653Y-43713409D01*
X133769966Y-43794221D01*
X133689154Y-43821158D01*
X133635279Y-43821158D01*
X133554467Y-43794221D01*
X133500592Y-43740346D01*
X133473654Y-43659534D01*
X133473654Y-43605659D01*
X133500592Y-43524847D01*
X133635279Y-43390160D01*
X133743028Y-43336285D01*
X131832131Y-50083308D02*
X132182317Y-49733122D01*
X132209255Y-50137183D01*
X132290067Y-50056370D01*
X132370879Y-50029433D01*
X132424754Y-50029433D01*
X132505566Y-50056370D01*
X132640253Y-50191057D01*
X132667190Y-50271870D01*
X132667190Y-50325744D01*
X132640253Y-50406557D01*
X132478629Y-50568181D01*
X132397816Y-50595118D01*
X132343942Y-50595118D01*
X132343942Y-49571497D02*
X133098189Y-49948621D01*
X132721065Y-49194374D01*
X132855752Y-49059687D02*
X133205938Y-48709500D01*
X133232876Y-49113561D01*
X133313688Y-49032749D01*
X133394500Y-49005812D01*
X133448375Y-49005812D01*
X133529187Y-49032749D01*
X133663874Y-49167436D01*
X133690812Y-49248248D01*
X133690812Y-49302123D01*
X133663874Y-49382935D01*
X133502250Y-49544560D01*
X133421438Y-49571497D01*
X133367563Y-49571497D01*
X133933248Y-49221311D02*
X134364247Y-48790312D01*
X134148748Y-48305439D02*
X134337309Y-48116877D01*
X134714433Y-48332377D02*
X134445059Y-48601751D01*
X133879374Y-48036065D01*
X134148748Y-47766691D01*
X134956870Y-48089940D02*
X134391184Y-47524255D01*
X135280118Y-47766691D01*
X134714433Y-47201006D01*
X131799847Y-52615592D02*
X132150033Y-52265406D01*
X132176971Y-52669467D01*
X132257783Y-52588654D01*
X132338595Y-52561717D01*
X132392470Y-52561717D01*
X132473282Y-52588654D01*
X132607969Y-52723341D01*
X132634906Y-52804154D01*
X132634906Y-52858028D01*
X132607969Y-52938841D01*
X132446345Y-53100465D01*
X132365532Y-53127402D01*
X132311658Y-53127402D01*
X132311658Y-52103781D02*
X133065905Y-52480905D01*
X132688781Y-51726658D01*
X132823468Y-51591971D02*
X133173654Y-51241784D01*
X133200592Y-51645845D01*
X133281404Y-51565033D01*
X133362216Y-51538096D01*
X133416091Y-51538096D01*
X133496903Y-51565033D01*
X133631590Y-51699720D01*
X133658528Y-51780532D01*
X133658528Y-51834407D01*
X133631590Y-51915219D01*
X133469966Y-52076844D01*
X133389154Y-52103781D01*
X133335279Y-52103781D01*
X132064788Y-55658773D02*
X132334162Y-55389399D01*
X132172537Y-55874272D02*
X131795414Y-55120025D01*
X132549661Y-55497149D01*
X132738223Y-55308587D02*
X132172537Y-54742902D01*
X132307224Y-54608215D01*
X132414974Y-54554340D01*
X132522723Y-54554340D01*
X132603536Y-54581277D01*
X132738223Y-54662089D01*
X132819035Y-54742902D01*
X132899847Y-54877589D01*
X132926784Y-54958401D01*
X132926784Y-55066150D01*
X132872910Y-55173900D01*
X132738223Y-55308587D01*
X133573282Y-54365778D02*
X133573282Y-54419653D01*
X133519407Y-54527402D01*
X133465532Y-54581277D01*
X133357783Y-54635152D01*
X133250033Y-54635152D01*
X133169221Y-54608215D01*
X133034534Y-54527402D01*
X132953722Y-54446590D01*
X132872910Y-54311903D01*
X132845972Y-54231091D01*
X132845972Y-54123341D01*
X132899847Y-54015592D01*
X132953722Y-53961717D01*
X133061471Y-53907842D01*
X133115346Y-53907842D01*
X133788781Y-54365778D02*
X134219780Y-53934780D01*
X133654094Y-53261345D02*
X134408341Y-53638468D01*
X134031218Y-52884221D01*
X135108714Y-52938096D02*
X134650778Y-52857284D01*
X134785465Y-53261345D02*
X134219780Y-52695659D01*
X134435279Y-52480160D01*
X134516091Y-52453223D01*
X134569966Y-52453223D01*
X134650778Y-52480160D01*
X134731590Y-52560972D01*
X134758528Y-52641784D01*
X134758528Y-52695659D01*
X134731590Y-52776471D01*
X134516091Y-52991971D01*
X135054839Y-52399348D02*
X135243401Y-52210786D01*
X135620524Y-52426285D02*
X135351150Y-52695659D01*
X134785465Y-52129974D01*
X135054839Y-51860600D01*
X135755211Y-51698975D02*
X135566650Y-51887537D01*
X135862961Y-52183849D02*
X135297276Y-51618163D01*
X135566650Y-51348789D01*
X132007722Y-57371592D02*
X131926910Y-57398529D01*
X131846097Y-57479341D01*
X131792223Y-57587091D01*
X131792223Y-57694841D01*
X131819160Y-57775653D01*
X131899972Y-57910340D01*
X131980784Y-57991152D01*
X132115471Y-58071964D01*
X132196284Y-58098902D01*
X132304033Y-58098902D01*
X132411783Y-58045027D01*
X132465658Y-57991152D01*
X132519532Y-57883402D01*
X132519532Y-57829528D01*
X132330971Y-57640966D01*
X132223221Y-57748715D01*
X132815844Y-57640966D02*
X132250158Y-57075280D01*
X132465658Y-56859781D01*
X132546470Y-56832844D01*
X132600345Y-56832844D01*
X132681157Y-56859781D01*
X132761969Y-56940593D01*
X132788906Y-57021406D01*
X132788906Y-57075280D01*
X132761969Y-57156093D01*
X132546470Y-57371592D01*
X132842781Y-56590407D02*
X132842781Y-56536532D01*
X132869719Y-56455720D01*
X133004406Y-56321033D01*
X133085218Y-56294096D01*
X133139093Y-56294096D01*
X133219905Y-56321033D01*
X133273780Y-56374908D01*
X133327654Y-56482658D01*
X133327654Y-57129155D01*
X133677841Y-56778969D01*
X133677841Y-56132471D02*
X133597028Y-56159409D01*
X133543154Y-56159409D01*
X133462341Y-56132471D01*
X133435404Y-56105534D01*
X133408467Y-56024722D01*
X133408467Y-55970847D01*
X133435404Y-55890035D01*
X133543154Y-55782285D01*
X133623966Y-55755348D01*
X133677841Y-55755348D01*
X133758653Y-55782285D01*
X133785590Y-55809223D01*
X133812528Y-55890035D01*
X133812528Y-55943910D01*
X133785590Y-56024722D01*
X133677841Y-56132471D01*
X133650903Y-56213284D01*
X133650903Y-56267158D01*
X133677841Y-56347971D01*
X133785590Y-56455720D01*
X133866402Y-56482658D01*
X133920277Y-56482658D01*
X134001089Y-56455720D01*
X134108839Y-56347971D01*
X134135776Y-56267158D01*
X134135776Y-56213284D01*
X134108839Y-56132471D01*
X134001089Y-56024722D01*
X133920277Y-55997784D01*
X133866402Y-55997784D01*
X133785590Y-56024722D01*
X132007722Y-62715592D02*
X131926910Y-62742529D01*
X131846097Y-62823341D01*
X131792223Y-62931091D01*
X131792223Y-63038841D01*
X131819160Y-63119653D01*
X131899972Y-63254340D01*
X131980784Y-63335152D01*
X132115471Y-63415964D01*
X132196284Y-63442902D01*
X132304033Y-63442902D01*
X132411783Y-63389027D01*
X132465658Y-63335152D01*
X132519532Y-63227402D01*
X132519532Y-63173528D01*
X132330971Y-62984966D01*
X132223221Y-63092715D01*
X132815844Y-62984966D02*
X132250158Y-62419280D01*
X132465658Y-62203781D01*
X132546470Y-62176844D01*
X132600345Y-62176844D01*
X132681157Y-62203781D01*
X132761969Y-62284593D01*
X132788906Y-62365406D01*
X132788906Y-62419280D01*
X132761969Y-62500093D01*
X132546470Y-62715592D01*
X132842781Y-61934407D02*
X132842781Y-61880532D01*
X132869719Y-61799720D01*
X133004406Y-61665033D01*
X133085218Y-61638096D01*
X133139093Y-61638096D01*
X133219905Y-61665033D01*
X133273780Y-61718908D01*
X133327654Y-61826658D01*
X133327654Y-62473155D01*
X133677841Y-62122969D01*
X133300717Y-61368722D02*
X133677841Y-60991598D01*
X134001089Y-61799720D01*
X132007722Y-65245592D02*
X131926910Y-65272529D01*
X131846097Y-65353341D01*
X131792223Y-65461091D01*
X131792223Y-65568841D01*
X131819160Y-65649653D01*
X131899972Y-65784340D01*
X131980784Y-65865152D01*
X132115471Y-65945964D01*
X132196284Y-65972902D01*
X132304033Y-65972902D01*
X132411783Y-65919027D01*
X132465658Y-65865152D01*
X132519532Y-65757402D01*
X132519532Y-65703528D01*
X132330971Y-65514966D01*
X132223221Y-65622715D01*
X132815844Y-65514966D02*
X132250158Y-64949280D01*
X132465658Y-64733781D01*
X132546470Y-64706844D01*
X132600345Y-64706844D01*
X132681157Y-64733781D01*
X132761969Y-64814593D01*
X132788906Y-64895406D01*
X132788906Y-64949280D01*
X132761969Y-65030093D01*
X132546470Y-65245592D01*
X132842781Y-64464407D02*
X132842781Y-64410532D01*
X132869719Y-64329720D01*
X133004406Y-64195033D01*
X133085218Y-64168096D01*
X133139093Y-64168096D01*
X133219905Y-64195033D01*
X133273780Y-64248908D01*
X133327654Y-64356658D01*
X133327654Y-65003155D01*
X133677841Y-64652969D01*
X133597028Y-63602410D02*
X133489279Y-63710160D01*
X133462341Y-63790972D01*
X133462341Y-63844847D01*
X133489279Y-63979534D01*
X133570091Y-64114221D01*
X133785590Y-64329720D01*
X133866402Y-64356658D01*
X133920277Y-64356658D01*
X134001089Y-64329720D01*
X134108839Y-64221971D01*
X134135776Y-64141158D01*
X134135776Y-64087284D01*
X134108839Y-64006471D01*
X133974152Y-63871784D01*
X133893340Y-63844847D01*
X133839465Y-63844847D01*
X133758653Y-63871784D01*
X133650903Y-63979534D01*
X133623966Y-64060346D01*
X133623966Y-64114221D01*
X133650903Y-64195033D01*
X132748375Y-68068435D02*
X132290439Y-67987622D01*
X132425126Y-68391683D02*
X131859441Y-67825998D01*
X132074940Y-67610499D01*
X132155752Y-67583561D01*
X132209627Y-67583561D01*
X132290439Y-67610499D01*
X132371251Y-67691311D01*
X132398189Y-67772123D01*
X132398189Y-67825998D01*
X132371251Y-67906810D01*
X132155752Y-68122309D01*
X132425126Y-67260312D02*
X132883062Y-67718248D01*
X132963874Y-67745186D01*
X133017749Y-67745186D01*
X133098561Y-67718248D01*
X133206311Y-67610499D01*
X133233248Y-67529687D01*
X133233248Y-67475812D01*
X133206311Y-67395000D01*
X132748375Y-66937064D01*
X133583435Y-67233375D02*
X133017749Y-66667690D01*
X133906683Y-66910126D01*
X133340998Y-66344441D01*
X132007722Y-70325592D02*
X131926910Y-70352529D01*
X131846097Y-70433341D01*
X131792223Y-70541091D01*
X131792223Y-70648841D01*
X131819160Y-70729653D01*
X131899972Y-70864340D01*
X131980784Y-70945152D01*
X132115471Y-71025964D01*
X132196284Y-71052902D01*
X132304033Y-71052902D01*
X132411783Y-70999027D01*
X132465658Y-70945152D01*
X132519532Y-70837402D01*
X132519532Y-70783528D01*
X132330971Y-70594966D01*
X132223221Y-70702715D01*
X132815844Y-70594966D02*
X132250158Y-70029280D01*
X132465658Y-69813781D01*
X132546470Y-69786844D01*
X132600345Y-69786844D01*
X132681157Y-69813781D01*
X132761969Y-69894593D01*
X132788906Y-69975406D01*
X132788906Y-70029280D01*
X132761969Y-70110093D01*
X132546470Y-70325592D01*
X132842781Y-69544407D02*
X132842781Y-69490532D01*
X132869719Y-69409720D01*
X133004406Y-69275033D01*
X133085218Y-69248096D01*
X133139093Y-69248096D01*
X133219905Y-69275033D01*
X133273780Y-69328908D01*
X133327654Y-69436658D01*
X133327654Y-70083155D01*
X133677841Y-69732969D01*
X133381529Y-69005659D02*
X133381529Y-68951784D01*
X133408467Y-68870972D01*
X133543154Y-68736285D01*
X133623966Y-68709348D01*
X133677841Y-68709348D01*
X133758653Y-68736285D01*
X133812528Y-68790160D01*
X133866402Y-68897910D01*
X133866402Y-69544407D01*
X134216589Y-69194221D01*
X132007722Y-75415592D02*
X131926910Y-75442529D01*
X131846097Y-75523341D01*
X131792223Y-75631091D01*
X131792223Y-75738841D01*
X131819160Y-75819653D01*
X131899972Y-75954340D01*
X131980784Y-76035152D01*
X132115471Y-76115964D01*
X132196284Y-76142902D01*
X132304033Y-76142902D01*
X132411783Y-76089027D01*
X132465658Y-76035152D01*
X132519532Y-75927402D01*
X132519532Y-75873528D01*
X132330971Y-75684966D01*
X132223221Y-75792715D01*
X132815844Y-75684966D02*
X132250158Y-75119280D01*
X132465658Y-74903781D01*
X132546470Y-74876844D01*
X132600345Y-74876844D01*
X132681157Y-74903781D01*
X132761969Y-74984593D01*
X132788906Y-75065406D01*
X132788906Y-75119280D01*
X132761969Y-75200093D01*
X132546470Y-75415592D01*
X132842781Y-74634407D02*
X132842781Y-74580532D01*
X132869719Y-74499720D01*
X133004406Y-74365033D01*
X133085218Y-74338096D01*
X133139093Y-74338096D01*
X133219905Y-74365033D01*
X133273780Y-74418908D01*
X133327654Y-74526658D01*
X133327654Y-75173155D01*
X133677841Y-74822969D01*
X134216589Y-74284221D02*
X133893340Y-74607470D01*
X134054964Y-74445845D02*
X133489279Y-73880160D01*
X133516216Y-74014847D01*
X133516216Y-74122597D01*
X133489279Y-74203409D01*
X132007722Y-77945592D02*
X131926910Y-77972529D01*
X131846097Y-78053341D01*
X131792223Y-78161091D01*
X131792223Y-78268841D01*
X131819160Y-78349653D01*
X131899972Y-78484340D01*
X131980784Y-78565152D01*
X132115471Y-78645964D01*
X132196284Y-78672902D01*
X132304033Y-78672902D01*
X132411783Y-78619027D01*
X132465658Y-78565152D01*
X132519532Y-78457402D01*
X132519532Y-78403528D01*
X132330971Y-78214966D01*
X132223221Y-78322715D01*
X132815844Y-78214966D02*
X132250158Y-77649280D01*
X132465658Y-77433781D01*
X132546470Y-77406844D01*
X132600345Y-77406844D01*
X132681157Y-77433781D01*
X132761969Y-77514593D01*
X132788906Y-77595406D01*
X132788906Y-77649280D01*
X132761969Y-77730093D01*
X132546470Y-77945592D01*
X132842781Y-77164407D02*
X132842781Y-77110532D01*
X132869719Y-77029720D01*
X133004406Y-76895033D01*
X133085218Y-76868096D01*
X133139093Y-76868096D01*
X133219905Y-76895033D01*
X133273780Y-76948908D01*
X133327654Y-77056658D01*
X133327654Y-77703155D01*
X133677841Y-77352969D01*
X133462341Y-76437097D02*
X133516216Y-76383223D01*
X133597028Y-76356285D01*
X133650903Y-76356285D01*
X133731715Y-76383223D01*
X133866402Y-76464035D01*
X134001089Y-76598722D01*
X134081902Y-76733409D01*
X134108839Y-76814221D01*
X134108839Y-76868096D01*
X134081902Y-76948908D01*
X134028027Y-77002783D01*
X133947215Y-77029720D01*
X133893340Y-77029720D01*
X133812528Y-77002783D01*
X133677841Y-76921971D01*
X133543154Y-76787284D01*
X133462341Y-76652597D01*
X133435404Y-76571784D01*
X133435404Y-76517910D01*
X133462341Y-76437097D01*
X132007722Y-80485592D02*
X131926910Y-80512529D01*
X131846097Y-80593341D01*
X131792223Y-80701091D01*
X131792223Y-80808841D01*
X131819160Y-80889653D01*
X131899972Y-81024340D01*
X131980784Y-81105152D01*
X132115471Y-81185964D01*
X132196284Y-81212902D01*
X132304033Y-81212902D01*
X132411783Y-81159027D01*
X132465658Y-81105152D01*
X132519532Y-80997402D01*
X132519532Y-80943528D01*
X132330971Y-80754966D01*
X132223221Y-80862715D01*
X132815844Y-80754966D02*
X132250158Y-80189280D01*
X132465658Y-79973781D01*
X132546470Y-79946844D01*
X132600345Y-79946844D01*
X132681157Y-79973781D01*
X132761969Y-80054593D01*
X132788906Y-80135406D01*
X132788906Y-80189280D01*
X132761969Y-80270093D01*
X132546470Y-80485592D01*
X133677841Y-79892969D02*
X133354592Y-80216218D01*
X133516216Y-80054593D02*
X132950531Y-79488908D01*
X132977468Y-79623595D01*
X132977468Y-79731345D01*
X132950531Y-79812157D01*
X133947215Y-79623595D02*
X134054964Y-79515845D01*
X134081902Y-79435033D01*
X134081902Y-79381158D01*
X134054964Y-79246471D01*
X133974152Y-79111784D01*
X133758653Y-78896285D01*
X133677841Y-78869348D01*
X133623966Y-78869348D01*
X133543154Y-78896285D01*
X133435404Y-79004035D01*
X133408467Y-79084847D01*
X133408467Y-79138722D01*
X133435404Y-79219534D01*
X133570091Y-79354221D01*
X133650903Y-79381158D01*
X133704778Y-79381158D01*
X133785590Y-79354221D01*
X133893340Y-79246471D01*
X133920277Y-79165659D01*
X133920277Y-79111784D01*
X133893340Y-79030972D01*
X132007722Y-83025592D02*
X131926910Y-83052529D01*
X131846097Y-83133341D01*
X131792223Y-83241091D01*
X131792223Y-83348841D01*
X131819160Y-83429653D01*
X131899972Y-83564340D01*
X131980784Y-83645152D01*
X132115471Y-83725964D01*
X132196284Y-83752902D01*
X132304033Y-83752902D01*
X132411783Y-83699027D01*
X132465658Y-83645152D01*
X132519532Y-83537402D01*
X132519532Y-83483528D01*
X132330971Y-83294966D01*
X132223221Y-83402715D01*
X132815844Y-83294966D02*
X132250158Y-82729280D01*
X132465658Y-82513781D01*
X132546470Y-82486844D01*
X132600345Y-82486844D01*
X132681157Y-82513781D01*
X132761969Y-82594593D01*
X132788906Y-82675406D01*
X132788906Y-82729280D01*
X132761969Y-82810093D01*
X132546470Y-83025592D01*
X133677841Y-82432969D02*
X133354592Y-82756218D01*
X133516216Y-82594593D02*
X132950531Y-82028908D01*
X132977468Y-82163595D01*
X132977468Y-82271345D01*
X132950531Y-82352157D01*
X133677841Y-81786471D02*
X133597028Y-81813409D01*
X133543154Y-81813409D01*
X133462341Y-81786471D01*
X133435404Y-81759534D01*
X133408467Y-81678722D01*
X133408467Y-81624847D01*
X133435404Y-81544035D01*
X133543154Y-81436285D01*
X133623966Y-81409348D01*
X133677841Y-81409348D01*
X133758653Y-81436285D01*
X133785590Y-81463223D01*
X133812528Y-81544035D01*
X133812528Y-81597910D01*
X133785590Y-81678722D01*
X133677841Y-81786471D01*
X133650903Y-81867284D01*
X133650903Y-81921158D01*
X133677841Y-82001971D01*
X133785590Y-82109720D01*
X133866402Y-82136658D01*
X133920277Y-82136658D01*
X134001089Y-82109720D01*
X134108839Y-82001971D01*
X134135776Y-81921158D01*
X134135776Y-81867284D01*
X134108839Y-81786471D01*
X134001089Y-81678722D01*
X133920277Y-81651784D01*
X133866402Y-81651784D01*
X133785590Y-81678722D01*
X132007722Y-88105592D02*
X131926910Y-88132529D01*
X131846097Y-88213341D01*
X131792223Y-88321091D01*
X131792223Y-88428841D01*
X131819160Y-88509653D01*
X131899972Y-88644340D01*
X131980784Y-88725152D01*
X132115471Y-88805964D01*
X132196284Y-88832902D01*
X132304033Y-88832902D01*
X132411783Y-88779027D01*
X132465658Y-88725152D01*
X132519532Y-88617402D01*
X132519532Y-88563528D01*
X132330971Y-88374966D01*
X132223221Y-88482715D01*
X132815844Y-88374966D02*
X132250158Y-87809280D01*
X132465658Y-87593781D01*
X132546470Y-87566844D01*
X132600345Y-87566844D01*
X132681157Y-87593781D01*
X132761969Y-87674593D01*
X132788906Y-87755406D01*
X132788906Y-87809280D01*
X132761969Y-87890093D01*
X132546470Y-88105592D01*
X133677841Y-87512969D02*
X133354592Y-87836218D01*
X133516216Y-87674593D02*
X132950531Y-87108908D01*
X132977468Y-87243595D01*
X132977468Y-87351345D01*
X132950531Y-87432157D01*
X133300717Y-86758722D02*
X133677841Y-86381598D01*
X134001089Y-87189720D01*
X132007722Y-90645592D02*
X131926910Y-90672529D01*
X131846097Y-90753341D01*
X131792223Y-90861091D01*
X131792223Y-90968841D01*
X131819160Y-91049653D01*
X131899972Y-91184340D01*
X131980784Y-91265152D01*
X132115471Y-91345964D01*
X132196284Y-91372902D01*
X132304033Y-91372902D01*
X132411783Y-91319027D01*
X132465658Y-91265152D01*
X132519532Y-91157402D01*
X132519532Y-91103528D01*
X132330971Y-90914966D01*
X132223221Y-91022715D01*
X132815844Y-90914966D02*
X132250158Y-90349280D01*
X132465658Y-90133781D01*
X132546470Y-90106844D01*
X132600345Y-90106844D01*
X132681157Y-90133781D01*
X132761969Y-90214593D01*
X132788906Y-90295406D01*
X132788906Y-90349280D01*
X132761969Y-90430093D01*
X132546470Y-90645592D01*
X133677841Y-90052969D02*
X133354592Y-90376218D01*
X133516216Y-90214593D02*
X132950531Y-89648908D01*
X132977468Y-89783595D01*
X132977468Y-89891345D01*
X132950531Y-89972157D01*
X133597028Y-89002410D02*
X133489279Y-89110160D01*
X133462341Y-89190972D01*
X133462341Y-89244847D01*
X133489279Y-89379534D01*
X133570091Y-89514221D01*
X133785590Y-89729720D01*
X133866402Y-89756658D01*
X133920277Y-89756658D01*
X134001089Y-89729720D01*
X134108839Y-89621971D01*
X134135776Y-89541158D01*
X134135776Y-89487284D01*
X134108839Y-89406471D01*
X133974152Y-89271784D01*
X133893340Y-89244847D01*
X133839465Y-89244847D01*
X133758653Y-89271784D01*
X133650903Y-89379534D01*
X133623966Y-89460346D01*
X133623966Y-89514221D01*
X133650903Y-89595033D01*
X105899722Y-90645592D02*
X105818910Y-90672529D01*
X105738097Y-90753341D01*
X105684223Y-90861091D01*
X105684223Y-90968841D01*
X105711160Y-91049653D01*
X105791972Y-91184340D01*
X105872784Y-91265152D01*
X106007471Y-91345964D01*
X106088284Y-91372902D01*
X106196033Y-91372902D01*
X106303783Y-91319027D01*
X106357658Y-91265152D01*
X106411532Y-91157402D01*
X106411532Y-91103528D01*
X106222971Y-90914966D01*
X106115221Y-91022715D01*
X106707844Y-90914966D02*
X106142158Y-90349280D01*
X106357658Y-90133781D01*
X106438470Y-90106844D01*
X106492345Y-90106844D01*
X106573157Y-90133781D01*
X106653969Y-90214593D01*
X106680906Y-90295406D01*
X106680906Y-90349280D01*
X106653969Y-90430093D01*
X106438470Y-90645592D01*
X107569841Y-90052969D02*
X107246592Y-90376218D01*
X107408216Y-90214593D02*
X106842531Y-89648908D01*
X106869468Y-89783595D01*
X106869468Y-89891345D01*
X106842531Y-89972157D01*
X107515966Y-88975473D02*
X107246592Y-89244847D01*
X107489028Y-89541158D01*
X107489028Y-89487284D01*
X107515966Y-89406471D01*
X107650653Y-89271784D01*
X107731465Y-89244847D01*
X107785340Y-89244847D01*
X107866152Y-89271784D01*
X108000839Y-89406471D01*
X108027776Y-89487284D01*
X108027776Y-89541158D01*
X108000839Y-89621971D01*
X107866152Y-89756658D01*
X107785340Y-89783595D01*
X107731465Y-89783595D01*
X105853722Y-88105592D02*
X105772910Y-88132529D01*
X105692097Y-88213341D01*
X105638223Y-88321091D01*
X105638223Y-88428841D01*
X105665160Y-88509653D01*
X105745972Y-88644340D01*
X105826784Y-88725152D01*
X105961471Y-88805964D01*
X106042284Y-88832902D01*
X106150033Y-88832902D01*
X106257783Y-88779027D01*
X106311658Y-88725152D01*
X106365532Y-88617402D01*
X106365532Y-88563528D01*
X106176971Y-88374966D01*
X106069221Y-88482715D01*
X106661844Y-88374966D02*
X106096158Y-87809280D01*
X106311658Y-87593781D01*
X106392470Y-87566844D01*
X106446345Y-87566844D01*
X106527157Y-87593781D01*
X106607969Y-87674593D01*
X106634906Y-87755406D01*
X106634906Y-87809280D01*
X106607969Y-87890093D01*
X106392470Y-88105592D01*
X107523841Y-87512969D02*
X107200592Y-87836218D01*
X107362216Y-87674593D02*
X106796531Y-87108908D01*
X106823468Y-87243595D01*
X106823468Y-87351345D01*
X106796531Y-87432157D01*
X107631590Y-86650972D02*
X108008714Y-87028096D01*
X107281404Y-86570160D02*
X107550778Y-87108908D01*
X107900964Y-86758722D01*
X105899722Y-83025592D02*
X105818910Y-83052529D01*
X105738097Y-83133341D01*
X105684223Y-83241091D01*
X105684223Y-83348841D01*
X105711160Y-83429653D01*
X105791972Y-83564340D01*
X105872784Y-83645152D01*
X106007471Y-83725964D01*
X106088284Y-83752902D01*
X106196033Y-83752902D01*
X106303783Y-83699027D01*
X106357658Y-83645152D01*
X106411532Y-83537402D01*
X106411532Y-83483528D01*
X106222971Y-83294966D01*
X106115221Y-83402715D01*
X106707844Y-83294966D02*
X106142158Y-82729280D01*
X106357658Y-82513781D01*
X106438470Y-82486844D01*
X106492345Y-82486844D01*
X106573157Y-82513781D01*
X106653969Y-82594593D01*
X106680906Y-82675406D01*
X106680906Y-82729280D01*
X106653969Y-82810093D01*
X106438470Y-83025592D01*
X107569841Y-82432969D02*
X107246592Y-82756218D01*
X107408216Y-82594593D02*
X106842531Y-82028908D01*
X106869468Y-82163595D01*
X106869468Y-82271345D01*
X106842531Y-82352157D01*
X107192717Y-81678722D02*
X107542903Y-81328536D01*
X107569841Y-81732597D01*
X107650653Y-81651784D01*
X107731465Y-81624847D01*
X107785340Y-81624847D01*
X107866152Y-81651784D01*
X108000839Y-81786471D01*
X108027776Y-81867284D01*
X108027776Y-81921158D01*
X108000839Y-82001971D01*
X107839215Y-82163595D01*
X107758402Y-82190532D01*
X107704528Y-82190532D01*
X105753722Y-80485592D02*
X105672910Y-80512529D01*
X105592097Y-80593341D01*
X105538223Y-80701091D01*
X105538223Y-80808841D01*
X105565160Y-80889653D01*
X105645972Y-81024340D01*
X105726784Y-81105152D01*
X105861471Y-81185964D01*
X105942284Y-81212902D01*
X106050033Y-81212902D01*
X106157783Y-81159027D01*
X106211658Y-81105152D01*
X106265532Y-80997402D01*
X106265532Y-80943528D01*
X106076971Y-80754966D01*
X105969221Y-80862715D01*
X106561844Y-80754966D02*
X105996158Y-80189280D01*
X106211658Y-79973781D01*
X106292470Y-79946844D01*
X106346345Y-79946844D01*
X106427157Y-79973781D01*
X106507969Y-80054593D01*
X106534906Y-80135406D01*
X106534906Y-80189280D01*
X106507969Y-80270093D01*
X106292470Y-80485592D01*
X107423841Y-79892969D02*
X107100592Y-80216218D01*
X107262216Y-80054593D02*
X106696531Y-79488908D01*
X106723468Y-79623595D01*
X106723468Y-79731345D01*
X106696531Y-79812157D01*
X107127529Y-79165659D02*
X107127529Y-79111784D01*
X107154467Y-79030972D01*
X107289154Y-78896285D01*
X107369966Y-78869348D01*
X107423841Y-78869348D01*
X107504653Y-78896285D01*
X107558528Y-78950160D01*
X107612402Y-79057910D01*
X107612402Y-79704407D01*
X107962589Y-79354221D01*
X105753722Y-77945592D02*
X105672910Y-77972529D01*
X105592097Y-78053341D01*
X105538223Y-78161091D01*
X105538223Y-78268841D01*
X105565160Y-78349653D01*
X105645972Y-78484340D01*
X105726784Y-78565152D01*
X105861471Y-78645964D01*
X105942284Y-78672902D01*
X106050033Y-78672902D01*
X106157783Y-78619027D01*
X106211658Y-78565152D01*
X106265532Y-78457402D01*
X106265532Y-78403528D01*
X106076971Y-78214966D01*
X105969221Y-78322715D01*
X106561844Y-78214966D02*
X105996158Y-77649280D01*
X106211658Y-77433781D01*
X106292470Y-77406844D01*
X106346345Y-77406844D01*
X106427157Y-77433781D01*
X106507969Y-77514593D01*
X106534906Y-77595406D01*
X106534906Y-77649280D01*
X106507969Y-77730093D01*
X106292470Y-77945592D01*
X107423841Y-77352969D02*
X107100592Y-77676218D01*
X107262216Y-77514593D02*
X106696531Y-76948908D01*
X106723468Y-77083595D01*
X106723468Y-77191345D01*
X106696531Y-77272157D01*
X107962589Y-76814221D02*
X107639340Y-77137470D01*
X107800964Y-76975845D02*
X107235279Y-76410160D01*
X107262216Y-76544847D01*
X107262216Y-76652597D01*
X107235279Y-76733409D01*
X105899722Y-75405592D02*
X105818910Y-75432529D01*
X105738097Y-75513341D01*
X105684223Y-75621091D01*
X105684223Y-75728841D01*
X105711160Y-75809653D01*
X105791972Y-75944340D01*
X105872784Y-76025152D01*
X106007471Y-76105964D01*
X106088284Y-76132902D01*
X106196033Y-76132902D01*
X106303783Y-76079027D01*
X106357658Y-76025152D01*
X106411532Y-75917402D01*
X106411532Y-75863528D01*
X106222971Y-75674966D01*
X106115221Y-75782715D01*
X106707844Y-75674966D02*
X106142158Y-75109280D01*
X106357658Y-74893781D01*
X106438470Y-74866844D01*
X106492345Y-74866844D01*
X106573157Y-74893781D01*
X106653969Y-74974593D01*
X106680906Y-75055406D01*
X106680906Y-75109280D01*
X106653969Y-75190093D01*
X106438470Y-75405592D01*
X107569841Y-74812969D02*
X107246592Y-75136218D01*
X107408216Y-74974593D02*
X106842531Y-74408908D01*
X106869468Y-74543595D01*
X106869468Y-74651345D01*
X106842531Y-74732157D01*
X107354341Y-73897097D02*
X107408216Y-73843223D01*
X107489028Y-73816285D01*
X107542903Y-73816285D01*
X107623715Y-73843223D01*
X107758402Y-73924035D01*
X107893089Y-74058722D01*
X107973902Y-74193409D01*
X108000839Y-74274221D01*
X108000839Y-74328096D01*
X107973902Y-74408908D01*
X107920027Y-74462783D01*
X107839215Y-74489720D01*
X107785340Y-74489720D01*
X107704528Y-74462783D01*
X107569841Y-74381971D01*
X107435154Y-74247284D01*
X107354341Y-74112597D01*
X107327404Y-74031784D01*
X107327404Y-73977910D01*
X107354341Y-73897097D01*
X106423096Y-70056218D02*
X106342284Y-70083155D01*
X106261471Y-70163967D01*
X106207597Y-70271717D01*
X106207597Y-70379467D01*
X106234534Y-70460279D01*
X106315346Y-70594966D01*
X106396158Y-70675778D01*
X106530845Y-70756590D01*
X106611658Y-70783528D01*
X106719407Y-70783528D01*
X106827157Y-70729653D01*
X106881032Y-70675778D01*
X106934906Y-70568028D01*
X106934906Y-70514154D01*
X106746345Y-70325592D01*
X106638595Y-70433341D01*
X107231218Y-70325592D02*
X106665532Y-69759906D01*
X106881032Y-69544407D01*
X106961844Y-69517470D01*
X107015719Y-69517470D01*
X107096531Y-69544407D01*
X107177343Y-69625219D01*
X107204280Y-69706032D01*
X107204280Y-69759906D01*
X107177343Y-69840719D01*
X106961844Y-70056218D01*
X107823841Y-69732969D02*
X107931590Y-69625219D01*
X107958528Y-69544407D01*
X107958528Y-69490532D01*
X107931590Y-69355845D01*
X107850778Y-69221158D01*
X107635279Y-69005659D01*
X107554467Y-68978722D01*
X107500592Y-68978722D01*
X107419780Y-69005659D01*
X107312030Y-69113409D01*
X107285093Y-69194221D01*
X107285093Y-69248096D01*
X107312030Y-69328908D01*
X107446717Y-69463595D01*
X107527529Y-69490532D01*
X107581404Y-69490532D01*
X107662216Y-69463595D01*
X107769966Y-69355845D01*
X107796903Y-69275033D01*
X107796903Y-69221158D01*
X107769966Y-69140346D01*
X106423096Y-67516218D02*
X106342284Y-67543155D01*
X106261471Y-67623967D01*
X106207597Y-67731717D01*
X106207597Y-67839467D01*
X106234534Y-67920279D01*
X106315346Y-68054966D01*
X106396158Y-68135778D01*
X106530845Y-68216590D01*
X106611658Y-68243528D01*
X106719407Y-68243528D01*
X106827157Y-68189653D01*
X106881032Y-68135778D01*
X106934906Y-68028028D01*
X106934906Y-67974154D01*
X106746345Y-67785592D01*
X106638595Y-67893341D01*
X107231218Y-67785592D02*
X106665532Y-67219906D01*
X106881032Y-67004407D01*
X106961844Y-66977470D01*
X107015719Y-66977470D01*
X107096531Y-67004407D01*
X107177343Y-67085219D01*
X107204280Y-67166032D01*
X107204280Y-67219906D01*
X107177343Y-67300719D01*
X106961844Y-67516218D01*
X107554467Y-66815845D02*
X107473654Y-66842783D01*
X107419780Y-66842783D01*
X107338967Y-66815845D01*
X107312030Y-66788908D01*
X107285093Y-66708096D01*
X107285093Y-66654221D01*
X107312030Y-66573409D01*
X107419780Y-66465659D01*
X107500592Y-66438722D01*
X107554467Y-66438722D01*
X107635279Y-66465659D01*
X107662216Y-66492597D01*
X107689154Y-66573409D01*
X107689154Y-66627284D01*
X107662216Y-66708096D01*
X107554467Y-66815845D01*
X107527529Y-66896658D01*
X107527529Y-66950532D01*
X107554467Y-67031345D01*
X107662216Y-67139094D01*
X107743028Y-67166032D01*
X107796903Y-67166032D01*
X107877715Y-67139094D01*
X107985465Y-67031345D01*
X108012402Y-66950532D01*
X108012402Y-66896658D01*
X107985465Y-66815845D01*
X107877715Y-66708096D01*
X107796903Y-66681158D01*
X107743028Y-66681158D01*
X107662216Y-66708096D01*
X106523096Y-64946218D02*
X106442284Y-64973155D01*
X106361471Y-65053967D01*
X106307597Y-65161717D01*
X106307597Y-65269467D01*
X106334534Y-65350279D01*
X106415346Y-65484966D01*
X106496158Y-65565778D01*
X106630845Y-65646590D01*
X106711658Y-65673528D01*
X106819407Y-65673528D01*
X106927157Y-65619653D01*
X106981032Y-65565778D01*
X107034906Y-65458028D01*
X107034906Y-65404154D01*
X106846345Y-65215592D01*
X106738595Y-65323341D01*
X107331218Y-65215592D02*
X106765532Y-64649906D01*
X106981032Y-64434407D01*
X107061844Y-64407470D01*
X107115719Y-64407470D01*
X107196531Y-64434407D01*
X107277343Y-64515219D01*
X107304280Y-64596032D01*
X107304280Y-64649906D01*
X107277343Y-64730719D01*
X107061844Y-64946218D01*
X107277343Y-64138096D02*
X107654467Y-63760972D01*
X107977715Y-64569094D01*
X106423096Y-62436218D02*
X106342284Y-62463155D01*
X106261471Y-62543967D01*
X106207597Y-62651717D01*
X106207597Y-62759467D01*
X106234534Y-62840279D01*
X106315346Y-62974966D01*
X106396158Y-63055778D01*
X106530845Y-63136590D01*
X106611658Y-63163528D01*
X106719407Y-63163528D01*
X106827157Y-63109653D01*
X106881032Y-63055778D01*
X106934906Y-62948028D01*
X106934906Y-62894154D01*
X106746345Y-62705592D01*
X106638595Y-62813341D01*
X107231218Y-62705592D02*
X106665532Y-62139906D01*
X106881032Y-61924407D01*
X106961844Y-61897470D01*
X107015719Y-61897470D01*
X107096531Y-61924407D01*
X107177343Y-62005219D01*
X107204280Y-62086032D01*
X107204280Y-62139906D01*
X107177343Y-62220719D01*
X106961844Y-62436218D01*
X107473654Y-61331784D02*
X107365905Y-61439534D01*
X107338967Y-61520346D01*
X107338967Y-61574221D01*
X107365905Y-61708908D01*
X107446717Y-61843595D01*
X107662216Y-62059094D01*
X107743028Y-62086032D01*
X107796903Y-62086032D01*
X107877715Y-62059094D01*
X107985465Y-61951345D01*
X108012402Y-61870532D01*
X108012402Y-61816658D01*
X107985465Y-61735845D01*
X107850778Y-61601158D01*
X107769966Y-61574221D01*
X107716091Y-61574221D01*
X107635279Y-61601158D01*
X107527529Y-61708908D01*
X107500592Y-61789720D01*
X107500592Y-61843595D01*
X107527529Y-61924407D01*
X106423096Y-57356218D02*
X106342284Y-57383155D01*
X106261471Y-57463967D01*
X106207597Y-57571717D01*
X106207597Y-57679467D01*
X106234534Y-57760279D01*
X106315346Y-57894966D01*
X106396158Y-57975778D01*
X106530845Y-58056590D01*
X106611658Y-58083528D01*
X106719407Y-58083528D01*
X106827157Y-58029653D01*
X106881032Y-57975778D01*
X106934906Y-57868028D01*
X106934906Y-57814154D01*
X106746345Y-57625592D01*
X106638595Y-57733341D01*
X107231218Y-57625592D02*
X106665532Y-57059906D01*
X106881032Y-56844407D01*
X106961844Y-56817470D01*
X107015719Y-56817470D01*
X107096531Y-56844407D01*
X107177343Y-56925219D01*
X107204280Y-57006032D01*
X107204280Y-57059906D01*
X107177343Y-57140719D01*
X106961844Y-57356218D01*
X107500592Y-56224847D02*
X107231218Y-56494221D01*
X107473654Y-56790532D01*
X107473654Y-56736658D01*
X107500592Y-56655845D01*
X107635279Y-56521158D01*
X107716091Y-56494221D01*
X107769966Y-56494221D01*
X107850778Y-56521158D01*
X107985465Y-56655845D01*
X108012402Y-56736658D01*
X108012402Y-56790532D01*
X107985465Y-56871345D01*
X107850778Y-57006032D01*
X107769966Y-57032969D01*
X107716091Y-57032969D01*
X106423096Y-54816218D02*
X106342284Y-54843155D01*
X106261471Y-54923967D01*
X106207597Y-55031717D01*
X106207597Y-55139467D01*
X106234534Y-55220279D01*
X106315346Y-55354966D01*
X106396158Y-55435778D01*
X106530845Y-55516590D01*
X106611658Y-55543528D01*
X106719407Y-55543528D01*
X106827157Y-55489653D01*
X106881032Y-55435778D01*
X106934906Y-55328028D01*
X106934906Y-55274154D01*
X106746345Y-55085592D01*
X106638595Y-55193341D01*
X107231218Y-55085592D02*
X106665532Y-54519906D01*
X106881032Y-54304407D01*
X106961844Y-54277470D01*
X107015719Y-54277470D01*
X107096531Y-54304407D01*
X107177343Y-54385219D01*
X107204280Y-54466032D01*
X107204280Y-54519906D01*
X107177343Y-54600719D01*
X106961844Y-54816218D01*
X107662216Y-53900346D02*
X108039340Y-54277470D01*
X107312030Y-53819534D02*
X107581404Y-54358282D01*
X107931590Y-54008096D01*
X106423096Y-52276218D02*
X106342284Y-52303155D01*
X106261471Y-52383967D01*
X106207597Y-52491717D01*
X106207597Y-52599467D01*
X106234534Y-52680279D01*
X106315346Y-52814966D01*
X106396158Y-52895778D01*
X106530845Y-52976590D01*
X106611658Y-53003528D01*
X106719407Y-53003528D01*
X106827157Y-52949653D01*
X106881032Y-52895778D01*
X106934906Y-52788028D01*
X106934906Y-52734154D01*
X106746345Y-52545592D01*
X106638595Y-52653341D01*
X107231218Y-52545592D02*
X106665532Y-51979906D01*
X106881032Y-51764407D01*
X106961844Y-51737470D01*
X107015719Y-51737470D01*
X107096531Y-51764407D01*
X107177343Y-51845219D01*
X107204280Y-51926032D01*
X107204280Y-51979906D01*
X107177343Y-52060719D01*
X106961844Y-52276218D01*
X107177343Y-51468096D02*
X107527529Y-51117910D01*
X107554467Y-51521971D01*
X107635279Y-51441158D01*
X107716091Y-51414221D01*
X107769966Y-51414221D01*
X107850778Y-51441158D01*
X107985465Y-51575845D01*
X108012402Y-51656658D01*
X108012402Y-51710532D01*
X107985465Y-51791345D01*
X107823841Y-51952969D01*
X107743028Y-51979906D01*
X107689154Y-51979906D01*
X106423096Y-42116218D02*
X106342284Y-42143155D01*
X106261471Y-42223967D01*
X106207597Y-42331717D01*
X106207597Y-42439467D01*
X106234534Y-42520279D01*
X106315346Y-42654966D01*
X106396158Y-42735778D01*
X106530845Y-42816590D01*
X106611658Y-42843528D01*
X106719407Y-42843528D01*
X106827157Y-42789653D01*
X106881032Y-42735778D01*
X106934906Y-42628028D01*
X106934906Y-42574154D01*
X106746345Y-42385592D01*
X106638595Y-42493341D01*
X107231218Y-42385592D02*
X106665532Y-41819906D01*
X106881032Y-41604407D01*
X106961844Y-41577470D01*
X107015719Y-41577470D01*
X107096531Y-41604407D01*
X107177343Y-41685219D01*
X107204280Y-41766032D01*
X107204280Y-41819906D01*
X107177343Y-41900719D01*
X106961844Y-42116218D01*
X107338967Y-41146471D02*
X107392842Y-41092597D01*
X107473654Y-41065659D01*
X107527529Y-41065659D01*
X107608341Y-41092597D01*
X107743028Y-41173409D01*
X107877715Y-41308096D01*
X107958528Y-41442783D01*
X107985465Y-41523595D01*
X107985465Y-41577470D01*
X107958528Y-41658282D01*
X107904653Y-41712157D01*
X107823841Y-41739094D01*
X107769966Y-41739094D01*
X107689154Y-41712157D01*
X107554467Y-41631345D01*
X107419780Y-41496658D01*
X107338967Y-41361971D01*
X107312030Y-41281158D01*
X107312030Y-41227284D01*
X107338967Y-41146471D01*
X106323096Y-49736218D02*
X106242284Y-49763155D01*
X106161471Y-49843967D01*
X106107597Y-49951717D01*
X106107597Y-50059467D01*
X106134534Y-50140279D01*
X106215346Y-50274966D01*
X106296158Y-50355778D01*
X106430845Y-50436590D01*
X106511658Y-50463528D01*
X106619407Y-50463528D01*
X106727157Y-50409653D01*
X106781032Y-50355778D01*
X106834906Y-50248028D01*
X106834906Y-50194154D01*
X106646345Y-50005592D01*
X106538595Y-50113341D01*
X107131218Y-50005592D02*
X106565532Y-49439906D01*
X106781032Y-49224407D01*
X106861844Y-49197470D01*
X106915719Y-49197470D01*
X106996531Y-49224407D01*
X107077343Y-49305219D01*
X107104280Y-49386032D01*
X107104280Y-49439906D01*
X107077343Y-49520719D01*
X106861844Y-49736218D01*
X107158155Y-48955033D02*
X107158155Y-48901158D01*
X107185093Y-48820346D01*
X107319780Y-48685659D01*
X107400592Y-48658722D01*
X107454467Y-48658722D01*
X107535279Y-48685659D01*
X107589154Y-48739534D01*
X107643028Y-48847284D01*
X107643028Y-49493781D01*
X107993215Y-49143595D01*
X106323096Y-44646218D02*
X106242284Y-44673155D01*
X106161471Y-44753967D01*
X106107597Y-44861717D01*
X106107597Y-44969467D01*
X106134534Y-45050279D01*
X106215346Y-45184966D01*
X106296158Y-45265778D01*
X106430845Y-45346590D01*
X106511658Y-45373528D01*
X106619407Y-45373528D01*
X106727157Y-45319653D01*
X106781032Y-45265778D01*
X106834906Y-45158028D01*
X106834906Y-45104154D01*
X106646345Y-44915592D01*
X106538595Y-45023341D01*
X107131218Y-44915592D02*
X106565532Y-44349906D01*
X106781032Y-44134407D01*
X106861844Y-44107470D01*
X106915719Y-44107470D01*
X106996531Y-44134407D01*
X107077343Y-44215219D01*
X107104280Y-44296032D01*
X107104280Y-44349906D01*
X107077343Y-44430719D01*
X106861844Y-44646218D01*
X107993215Y-44053595D02*
X107669966Y-44376844D01*
X107831590Y-44215219D02*
X107265905Y-43649534D01*
X107292842Y-43784221D01*
X107292842Y-43891971D01*
X107265905Y-43972783D01*
%TO.C,U200*%
X113220714Y-156297380D02*
X113220714Y-157106904D01*
X113268333Y-157202142D01*
X113315952Y-157249761D01*
X113411190Y-157297380D01*
X113601666Y-157297380D01*
X113696904Y-157249761D01*
X113744523Y-157202142D01*
X113792142Y-157106904D01*
X113792142Y-156297380D01*
X114220714Y-156392619D02*
X114268333Y-156345000D01*
X114363571Y-156297380D01*
X114601666Y-156297380D01*
X114696904Y-156345000D01*
X114744523Y-156392619D01*
X114792142Y-156487857D01*
X114792142Y-156583095D01*
X114744523Y-156725952D01*
X114173095Y-157297380D01*
X114792142Y-157297380D01*
X115411190Y-156297380D02*
X115506428Y-156297380D01*
X115601666Y-156345000D01*
X115649285Y-156392619D01*
X115696904Y-156487857D01*
X115744523Y-156678333D01*
X115744523Y-156916428D01*
X115696904Y-157106904D01*
X115649285Y-157202142D01*
X115601666Y-157249761D01*
X115506428Y-157297380D01*
X115411190Y-157297380D01*
X115315952Y-157249761D01*
X115268333Y-157202142D01*
X115220714Y-157106904D01*
X115173095Y-156916428D01*
X115173095Y-156678333D01*
X115220714Y-156487857D01*
X115268333Y-156392619D01*
X115315952Y-156345000D01*
X115411190Y-156297380D01*
X116363571Y-156297380D02*
X116458809Y-156297380D01*
X116554047Y-156345000D01*
X116601666Y-156392619D01*
X116649285Y-156487857D01*
X116696904Y-156678333D01*
X116696904Y-156916428D01*
X116649285Y-157106904D01*
X116601666Y-157202142D01*
X116554047Y-157249761D01*
X116458809Y-157297380D01*
X116363571Y-157297380D01*
X116268333Y-157249761D01*
X116220714Y-157202142D01*
X116173095Y-157106904D01*
X116125476Y-156916428D01*
X116125476Y-156678333D01*
X116173095Y-156487857D01*
X116220714Y-156392619D01*
X116268333Y-156345000D01*
X116363571Y-156297380D01*
X99293095Y-126105000D02*
X99197857Y-126057380D01*
X99055000Y-126057380D01*
X98912142Y-126105000D01*
X98816904Y-126200238D01*
X98769285Y-126295476D01*
X98721666Y-126485952D01*
X98721666Y-126628809D01*
X98769285Y-126819285D01*
X98816904Y-126914523D01*
X98912142Y-127009761D01*
X99055000Y-127057380D01*
X99150238Y-127057380D01*
X99293095Y-127009761D01*
X99340714Y-126962142D01*
X99340714Y-126628809D01*
X99150238Y-126628809D01*
X99769285Y-127057380D02*
X99769285Y-126057380D01*
X100340714Y-127057380D01*
X100340714Y-126057380D01*
X100816904Y-127057380D02*
X100816904Y-126057380D01*
X101055000Y-126057380D01*
X101197857Y-126105000D01*
X101293095Y-126200238D01*
X101340714Y-126295476D01*
X101388333Y-126485952D01*
X101388333Y-126628809D01*
X101340714Y-126819285D01*
X101293095Y-126914523D01*
X101197857Y-127009761D01*
X101055000Y-127057380D01*
X100816904Y-127057380D01*
X99322619Y-128357380D02*
X99513095Y-128357380D01*
X99608333Y-128405000D01*
X99703571Y-128500238D01*
X99751190Y-128690714D01*
X99751190Y-129024047D01*
X99703571Y-129214523D01*
X99608333Y-129309761D01*
X99513095Y-129357380D01*
X99322619Y-129357380D01*
X99227380Y-129309761D01*
X99132142Y-129214523D01*
X99084523Y-129024047D01*
X99084523Y-128690714D01*
X99132142Y-128500238D01*
X99227380Y-128405000D01*
X99322619Y-128357380D01*
X100179761Y-128357380D02*
X100179761Y-129166904D01*
X100227380Y-129262142D01*
X100275000Y-129309761D01*
X100370238Y-129357380D01*
X100560714Y-129357380D01*
X100655952Y-129309761D01*
X100703571Y-129262142D01*
X100751190Y-129166904D01*
X100751190Y-128357380D01*
X101084523Y-128357380D02*
X101655952Y-128357380D01*
X101370238Y-129357380D02*
X101370238Y-128357380D01*
X101989285Y-129357380D02*
X101989285Y-128357380D01*
X102370238Y-128357380D01*
X102465476Y-128405000D01*
X102513095Y-128452619D01*
X102560714Y-128547857D01*
X102560714Y-128690714D01*
X102513095Y-128785952D01*
X102465476Y-128833571D01*
X102370238Y-128881190D01*
X101989285Y-128881190D01*
X102989285Y-128357380D02*
X102989285Y-129166904D01*
X103036904Y-129262142D01*
X103084523Y-129309761D01*
X103179761Y-129357380D01*
X103370238Y-129357380D01*
X103465476Y-129309761D01*
X103513095Y-129262142D01*
X103560714Y-129166904D01*
X103560714Y-128357380D01*
X103894047Y-128357380D02*
X104465476Y-128357380D01*
X104179761Y-129357380D02*
X104179761Y-128357380D01*
X104560714Y-129452619D02*
X105322619Y-129452619D01*
X105513095Y-129309761D02*
X105655952Y-129357380D01*
X105894047Y-129357380D01*
X105989285Y-129309761D01*
X106036904Y-129262142D01*
X106084523Y-129166904D01*
X106084523Y-129071666D01*
X106036904Y-128976428D01*
X105989285Y-128928809D01*
X105894047Y-128881190D01*
X105703571Y-128833571D01*
X105608333Y-128785952D01*
X105560714Y-128738333D01*
X105513095Y-128643095D01*
X105513095Y-128547857D01*
X105560714Y-128452619D01*
X105608333Y-128405000D01*
X105703571Y-128357380D01*
X105941666Y-128357380D01*
X106084523Y-128405000D01*
X106370238Y-128357380D02*
X106941666Y-128357380D01*
X106655952Y-129357380D02*
X106655952Y-128357380D01*
X107227380Y-129071666D02*
X107703571Y-129071666D01*
X107132142Y-129357380D02*
X107465476Y-128357380D01*
X107798809Y-129357380D01*
X107989285Y-128357380D02*
X108560714Y-128357380D01*
X108275000Y-129357380D02*
X108275000Y-128357380D01*
X108894047Y-128357380D02*
X108894047Y-129166904D01*
X108941666Y-129262142D01*
X108989285Y-129309761D01*
X109084523Y-129357380D01*
X109275000Y-129357380D01*
X109370238Y-129309761D01*
X109417857Y-129262142D01*
X109465476Y-129166904D01*
X109465476Y-128357380D01*
X109894047Y-129309761D02*
X110036904Y-129357380D01*
X110274999Y-129357380D01*
X110370238Y-129309761D01*
X110417857Y-129262142D01*
X110465476Y-129166904D01*
X110465476Y-129071666D01*
X110417857Y-128976428D01*
X110370238Y-128928809D01*
X110274999Y-128881190D01*
X110084523Y-128833571D01*
X109989285Y-128785952D01*
X109941666Y-128738333D01*
X109894047Y-128643095D01*
X109894047Y-128547857D01*
X109941666Y-128452619D01*
X109989285Y-128405000D01*
X110084523Y-128357380D01*
X110322619Y-128357380D01*
X110465476Y-128405000D01*
X99536904Y-130857380D02*
X99727380Y-130857380D01*
X99822619Y-130905000D01*
X99917857Y-131000238D01*
X99965476Y-131190714D01*
X99965476Y-131524047D01*
X99917857Y-131714523D01*
X99822619Y-131809761D01*
X99727380Y-131857380D01*
X99536904Y-131857380D01*
X99441666Y-131809761D01*
X99346428Y-131714523D01*
X99298809Y-131524047D01*
X99298809Y-131190714D01*
X99346428Y-131000238D01*
X99441666Y-130905000D01*
X99536904Y-130857380D01*
X100251190Y-130857380D02*
X100584523Y-131857380D01*
X100917857Y-130857380D01*
X101251190Y-131333571D02*
X101584523Y-131333571D01*
X101727380Y-131857380D02*
X101251190Y-131857380D01*
X101251190Y-130857380D01*
X101727380Y-130857380D01*
X102727380Y-131857380D02*
X102394047Y-131381190D01*
X102155952Y-131857380D02*
X102155952Y-130857380D01*
X102536904Y-130857380D01*
X102632142Y-130905000D01*
X102679761Y-130952619D01*
X102727380Y-131047857D01*
X102727380Y-131190714D01*
X102679761Y-131285952D01*
X102632142Y-131333571D01*
X102536904Y-131381190D01*
X102155952Y-131381190D01*
X102917857Y-131952619D02*
X103679761Y-131952619D01*
X104489285Y-131762142D02*
X104441666Y-131809761D01*
X104298809Y-131857380D01*
X104203571Y-131857380D01*
X104060714Y-131809761D01*
X103965476Y-131714523D01*
X103917857Y-131619285D01*
X103870238Y-131428809D01*
X103870238Y-131285952D01*
X103917857Y-131095476D01*
X103965476Y-131000238D01*
X104060714Y-130905000D01*
X104203571Y-130857380D01*
X104298809Y-130857380D01*
X104441666Y-130905000D01*
X104489285Y-130952619D01*
X104917857Y-130857380D02*
X104917857Y-131666904D01*
X104965476Y-131762142D01*
X105013095Y-131809761D01*
X105108333Y-131857380D01*
X105298809Y-131857380D01*
X105394047Y-131809761D01*
X105441666Y-131762142D01*
X105489285Y-131666904D01*
X105489285Y-130857380D01*
X106536904Y-131857380D02*
X106203571Y-131381190D01*
X105965476Y-131857380D02*
X105965476Y-130857380D01*
X106346428Y-130857380D01*
X106441666Y-130905000D01*
X106489285Y-130952619D01*
X106536904Y-131047857D01*
X106536904Y-131190714D01*
X106489285Y-131285952D01*
X106441666Y-131333571D01*
X106346428Y-131381190D01*
X105965476Y-131381190D01*
X107536904Y-131857380D02*
X107203571Y-131381190D01*
X106965476Y-131857380D02*
X106965476Y-130857380D01*
X107346428Y-130857380D01*
X107441666Y-130905000D01*
X107489285Y-130952619D01*
X107536904Y-131047857D01*
X107536904Y-131190714D01*
X107489285Y-131285952D01*
X107441666Y-131333571D01*
X107346428Y-131381190D01*
X106965476Y-131381190D01*
X107965476Y-131333571D02*
X108298809Y-131333571D01*
X108441666Y-131857380D02*
X107965476Y-131857380D01*
X107965476Y-130857380D01*
X108441666Y-130857380D01*
X108870238Y-131857380D02*
X108870238Y-130857380D01*
X109441666Y-131857380D01*
X109441666Y-130857380D01*
X109775000Y-130857380D02*
X110346428Y-130857380D01*
X110060714Y-131857380D02*
X110060714Y-130857380D01*
X98203571Y-133437380D02*
X98775000Y-133437380D01*
X98489285Y-134437380D02*
X98489285Y-133437380D01*
X99108333Y-133913571D02*
X99441666Y-133913571D01*
X99584523Y-134437380D02*
X99108333Y-134437380D01*
X99108333Y-133437380D01*
X99584523Y-133437380D01*
X100013095Y-134437380D02*
X100013095Y-133437380D01*
X100346428Y-134151666D01*
X100679761Y-133437380D01*
X100679761Y-134437380D01*
X101155952Y-134437380D02*
X101155952Y-133437380D01*
X101536904Y-133437380D01*
X101632142Y-133485000D01*
X101679761Y-133532619D01*
X101727380Y-133627857D01*
X101727380Y-133770714D01*
X101679761Y-133865952D01*
X101632142Y-133913571D01*
X101536904Y-133961190D01*
X101155952Y-133961190D01*
X101917857Y-134532619D02*
X102679761Y-134532619D01*
X102870238Y-134389761D02*
X103013095Y-134437380D01*
X103251190Y-134437380D01*
X103346428Y-134389761D01*
X103394047Y-134342142D01*
X103441666Y-134246904D01*
X103441666Y-134151666D01*
X103394047Y-134056428D01*
X103346428Y-134008809D01*
X103251190Y-133961190D01*
X103060714Y-133913571D01*
X102965476Y-133865952D01*
X102917857Y-133818333D01*
X102870238Y-133723095D01*
X102870238Y-133627857D01*
X102917857Y-133532619D01*
X102965476Y-133485000D01*
X103060714Y-133437380D01*
X103298809Y-133437380D01*
X103441666Y-133485000D01*
X103870238Y-133913571D02*
X104203571Y-133913571D01*
X104346428Y-134437380D02*
X103870238Y-134437380D01*
X103870238Y-133437380D01*
X104346428Y-133437380D01*
X104775000Y-134437380D02*
X104775000Y-133437380D01*
X105346428Y-134437380D01*
X105346428Y-133437380D01*
X105775000Y-134389761D02*
X105917857Y-134437380D01*
X106155952Y-134437380D01*
X106251190Y-134389761D01*
X106298809Y-134342142D01*
X106346428Y-134246904D01*
X106346428Y-134151666D01*
X106298809Y-134056428D01*
X106251190Y-134008809D01*
X106155952Y-133961190D01*
X105965476Y-133913571D01*
X105870238Y-133865952D01*
X105822619Y-133818333D01*
X105775000Y-133723095D01*
X105775000Y-133627857D01*
X105822619Y-133532619D01*
X105870238Y-133485000D01*
X105965476Y-133437380D01*
X106203571Y-133437380D01*
X106346428Y-133485000D01*
X106536904Y-134532619D02*
X107298809Y-134532619D01*
X108108333Y-134342142D02*
X108060714Y-134389761D01*
X107917857Y-134437380D01*
X107822619Y-134437380D01*
X107679761Y-134389761D01*
X107584523Y-134294523D01*
X107536904Y-134199285D01*
X107489285Y-134008809D01*
X107489285Y-133865952D01*
X107536904Y-133675476D01*
X107584523Y-133580238D01*
X107679761Y-133485000D01*
X107822619Y-133437380D01*
X107917857Y-133437380D01*
X108060714Y-133485000D01*
X108108333Y-133532619D01*
X108727380Y-133437380D02*
X108917857Y-133437380D01*
X109013095Y-133485000D01*
X109108333Y-133580238D01*
X109155952Y-133770714D01*
X109155952Y-134104047D01*
X109108333Y-134294523D01*
X109013095Y-134389761D01*
X108917857Y-134437380D01*
X108727380Y-134437380D01*
X108632142Y-134389761D01*
X108536904Y-134294523D01*
X108489285Y-134104047D01*
X108489285Y-133770714D01*
X108536904Y-133580238D01*
X108632142Y-133485000D01*
X108727380Y-133437380D01*
X109584523Y-134437380D02*
X109584523Y-133437380D01*
X110155952Y-134437380D01*
X110155952Y-133437380D01*
X110632142Y-134437380D02*
X110632142Y-133437380D01*
X111203571Y-134437380D01*
X111203571Y-133437380D01*
X98969285Y-136957380D02*
X98969285Y-135957380D01*
X99540714Y-136957380D01*
X99540714Y-135957380D01*
X100588333Y-136862142D02*
X100540714Y-136909761D01*
X100397857Y-136957380D01*
X100302619Y-136957380D01*
X100159761Y-136909761D01*
X100064523Y-136814523D01*
X100016904Y-136719285D01*
X99969285Y-136528809D01*
X99969285Y-136385952D01*
X100016904Y-136195476D01*
X100064523Y-136100238D01*
X100159761Y-136005000D01*
X100302619Y-135957380D01*
X100397857Y-135957380D01*
X100540714Y-136005000D01*
X100588333Y-136052619D01*
X98869285Y-139657380D02*
X98869285Y-138657380D01*
X99440714Y-139657380D01*
X99440714Y-138657380D01*
X100488333Y-139562142D02*
X100440714Y-139609761D01*
X100297857Y-139657380D01*
X100202619Y-139657380D01*
X100059761Y-139609761D01*
X99964523Y-139514523D01*
X99916904Y-139419285D01*
X99869285Y-139228809D01*
X99869285Y-139085952D01*
X99916904Y-138895476D01*
X99964523Y-138800238D01*
X100059761Y-138705000D01*
X100202619Y-138657380D01*
X100297857Y-138657380D01*
X100440714Y-138705000D01*
X100488333Y-138752619D01*
X98869285Y-142157380D02*
X98869285Y-141157380D01*
X99440714Y-142157380D01*
X99440714Y-141157380D01*
X100488333Y-142062142D02*
X100440714Y-142109761D01*
X100297857Y-142157380D01*
X100202619Y-142157380D01*
X100059761Y-142109761D01*
X99964523Y-142014523D01*
X99916904Y-141919285D01*
X99869285Y-141728809D01*
X99869285Y-141585952D01*
X99916904Y-141395476D01*
X99964523Y-141300238D01*
X100059761Y-141205000D01*
X100202619Y-141157380D01*
X100297857Y-141157380D01*
X100440714Y-141205000D01*
X100488333Y-141252619D01*
X98293095Y-157271666D02*
X98769285Y-157271666D01*
X98197857Y-157557380D02*
X98531190Y-156557380D01*
X98864523Y-157557380D01*
X99197857Y-157557380D02*
X99197857Y-156557380D01*
X99769285Y-157557380D01*
X99769285Y-156557380D01*
X100197857Y-157271666D02*
X100674047Y-157271666D01*
X100102619Y-157557380D02*
X100435952Y-156557380D01*
X100769285Y-157557380D01*
X101578809Y-157557380D02*
X101102619Y-157557380D01*
X101102619Y-156557380D01*
X102102619Y-156557380D02*
X102293095Y-156557380D01*
X102388333Y-156605000D01*
X102483571Y-156700238D01*
X102531190Y-156890714D01*
X102531190Y-157224047D01*
X102483571Y-157414523D01*
X102388333Y-157509761D01*
X102293095Y-157557380D01*
X102102619Y-157557380D01*
X102007380Y-157509761D01*
X101912142Y-157414523D01*
X101864523Y-157224047D01*
X101864523Y-156890714D01*
X101912142Y-156700238D01*
X102007380Y-156605000D01*
X102102619Y-156557380D01*
X103483571Y-156605000D02*
X103388333Y-156557380D01*
X103245476Y-156557380D01*
X103102619Y-156605000D01*
X103007380Y-156700238D01*
X102959761Y-156795476D01*
X102912142Y-156985952D01*
X102912142Y-157128809D01*
X102959761Y-157319285D01*
X103007380Y-157414523D01*
X103102619Y-157509761D01*
X103245476Y-157557380D01*
X103340714Y-157557380D01*
X103483571Y-157509761D01*
X103531190Y-157462142D01*
X103531190Y-157128809D01*
X103340714Y-157128809D01*
X103721666Y-157652619D02*
X104483571Y-157652619D01*
X104721666Y-157557380D02*
X104721666Y-156557380D01*
X105197857Y-157557380D02*
X105197857Y-156557380D01*
X105769285Y-157557380D01*
X105769285Y-156557380D01*
X99197857Y-154957380D02*
X98626428Y-154957380D01*
X98912142Y-154957380D02*
X98912142Y-153957380D01*
X98816904Y-154100238D01*
X98721666Y-154195476D01*
X98626428Y-154243095D01*
X99578809Y-154052619D02*
X99626428Y-154005000D01*
X99721666Y-153957380D01*
X99959761Y-153957380D01*
X100055000Y-154005000D01*
X100102619Y-154052619D01*
X100150238Y-154147857D01*
X100150238Y-154243095D01*
X100102619Y-154385952D01*
X99531190Y-154957380D01*
X100150238Y-154957380D01*
X100340714Y-155052619D02*
X101102619Y-155052619D01*
X101293095Y-154671666D02*
X101769285Y-154671666D01*
X101197857Y-154957380D02*
X101531190Y-153957380D01*
X101864523Y-154957380D01*
X102197857Y-154957380D02*
X102197857Y-153957380D01*
X102435952Y-153957380D01*
X102578809Y-154005000D01*
X102674047Y-154100238D01*
X102721666Y-154195476D01*
X102769285Y-154385952D01*
X102769285Y-154528809D01*
X102721666Y-154719285D01*
X102674047Y-154814523D01*
X102578809Y-154909761D01*
X102435952Y-154957380D01*
X102197857Y-154957380D01*
X103197857Y-154957380D02*
X103197857Y-153957380D01*
X103435952Y-153957380D01*
X103578809Y-154005000D01*
X103674047Y-154100238D01*
X103721666Y-154195476D01*
X103769285Y-154385952D01*
X103769285Y-154528809D01*
X103721666Y-154719285D01*
X103674047Y-154814523D01*
X103578809Y-154909761D01*
X103435952Y-154957380D01*
X103197857Y-154957380D01*
X104769285Y-154957380D02*
X104435952Y-154481190D01*
X104197857Y-154957380D02*
X104197857Y-153957380D01*
X104578809Y-153957380D01*
X104674047Y-154005000D01*
X104721666Y-154052619D01*
X104769285Y-154147857D01*
X104769285Y-154290714D01*
X104721666Y-154385952D01*
X104674047Y-154433571D01*
X104578809Y-154481190D01*
X104197857Y-154481190D01*
X104959761Y-155052619D02*
X105721666Y-155052619D01*
X105912142Y-154052619D02*
X105959761Y-154005000D01*
X106055000Y-153957380D01*
X106293095Y-153957380D01*
X106388333Y-154005000D01*
X106435952Y-154052619D01*
X106483571Y-154147857D01*
X106483571Y-154243095D01*
X106435952Y-154385952D01*
X105864523Y-154957380D01*
X106483571Y-154957380D01*
X99497857Y-152357380D02*
X98926428Y-152357380D01*
X99212142Y-152357380D02*
X99212142Y-151357380D01*
X99116904Y-151500238D01*
X99021666Y-151595476D01*
X98926428Y-151643095D01*
X99878809Y-151452619D02*
X99926428Y-151405000D01*
X100021666Y-151357380D01*
X100259761Y-151357380D01*
X100355000Y-151405000D01*
X100402619Y-151452619D01*
X100450238Y-151547857D01*
X100450238Y-151643095D01*
X100402619Y-151785952D01*
X99831190Y-152357380D01*
X100450238Y-152357380D01*
X100640714Y-152452619D02*
X101402619Y-152452619D01*
X101593095Y-152071666D02*
X102069285Y-152071666D01*
X101497857Y-152357380D02*
X101831190Y-151357380D01*
X102164523Y-152357380D01*
X102497857Y-152357380D02*
X102497857Y-151357380D01*
X102735952Y-151357380D01*
X102878809Y-151405000D01*
X102974047Y-151500238D01*
X103021666Y-151595476D01*
X103069285Y-151785952D01*
X103069285Y-151928809D01*
X103021666Y-152119285D01*
X102974047Y-152214523D01*
X102878809Y-152309761D01*
X102735952Y-152357380D01*
X102497857Y-152357380D01*
X103497857Y-152357380D02*
X103497857Y-151357380D01*
X103735952Y-151357380D01*
X103878809Y-151405000D01*
X103974047Y-151500238D01*
X104021666Y-151595476D01*
X104069285Y-151785952D01*
X104069285Y-151928809D01*
X104021666Y-152119285D01*
X103974047Y-152214523D01*
X103878809Y-152309761D01*
X103735952Y-152357380D01*
X103497857Y-152357380D01*
X105069285Y-152357380D02*
X104735952Y-151881190D01*
X104497857Y-152357380D02*
X104497857Y-151357380D01*
X104878809Y-151357380D01*
X104974047Y-151405000D01*
X105021666Y-151452619D01*
X105069285Y-151547857D01*
X105069285Y-151690714D01*
X105021666Y-151785952D01*
X104974047Y-151833571D01*
X104878809Y-151881190D01*
X104497857Y-151881190D01*
X105259761Y-152452619D02*
X106021666Y-152452619D01*
X106212142Y-151452619D02*
X106259761Y-151405000D01*
X106355000Y-151357380D01*
X106593095Y-151357380D01*
X106688333Y-151405000D01*
X106735952Y-151452619D01*
X106783571Y-151547857D01*
X106783571Y-151643095D01*
X106735952Y-151785952D01*
X106164523Y-152357380D01*
X106783571Y-152357380D01*
X99394047Y-149757380D02*
X99394047Y-148757380D01*
X99727380Y-149471666D01*
X100060714Y-148757380D01*
X100060714Y-149757380D01*
X100727380Y-148757380D02*
X100917857Y-148757380D01*
X101013095Y-148805000D01*
X101108333Y-148900238D01*
X101155952Y-149090714D01*
X101155952Y-149424047D01*
X101108333Y-149614523D01*
X101013095Y-149709761D01*
X100917857Y-149757380D01*
X100727380Y-149757380D01*
X100632142Y-149709761D01*
X100536904Y-149614523D01*
X100489285Y-149424047D01*
X100489285Y-149090714D01*
X100536904Y-148900238D01*
X100632142Y-148805000D01*
X100727380Y-148757380D01*
X101584523Y-149757380D02*
X101584523Y-148757380D01*
X101822619Y-148757380D01*
X101965476Y-148805000D01*
X102060714Y-148900238D01*
X102108333Y-148995476D01*
X102155952Y-149185952D01*
X102155952Y-149328809D01*
X102108333Y-149519285D01*
X102060714Y-149614523D01*
X101965476Y-149709761D01*
X101822619Y-149757380D01*
X101584523Y-149757380D01*
X102584523Y-148757380D02*
X102584523Y-149566904D01*
X102632142Y-149662142D01*
X102679761Y-149709761D01*
X102775000Y-149757380D01*
X102965476Y-149757380D01*
X103060714Y-149709761D01*
X103108333Y-149662142D01*
X103155952Y-149566904D01*
X103155952Y-148757380D01*
X104108333Y-149757380D02*
X103632142Y-149757380D01*
X103632142Y-148757380D01*
X104441666Y-149233571D02*
X104775000Y-149233571D01*
X104917857Y-149757380D02*
X104441666Y-149757380D01*
X104441666Y-148757380D01*
X104917857Y-148757380D01*
X105108333Y-149852619D02*
X105870238Y-149852619D01*
X106679761Y-149757380D02*
X106346428Y-149281190D01*
X106108333Y-149757380D02*
X106108333Y-148757380D01*
X106489285Y-148757380D01*
X106584523Y-148805000D01*
X106632142Y-148852619D01*
X106679761Y-148947857D01*
X106679761Y-149090714D01*
X106632142Y-149185952D01*
X106584523Y-149233571D01*
X106489285Y-149281190D01*
X106108333Y-149281190D01*
X107108333Y-149233571D02*
X107441666Y-149233571D01*
X107584523Y-149757380D02*
X107108333Y-149757380D01*
X107108333Y-148757380D01*
X107584523Y-148757380D01*
X107965476Y-149709761D02*
X108108333Y-149757380D01*
X108346428Y-149757380D01*
X108441666Y-149709761D01*
X108489285Y-149662142D01*
X108536904Y-149566904D01*
X108536904Y-149471666D01*
X108489285Y-149376428D01*
X108441666Y-149328809D01*
X108346428Y-149281190D01*
X108155952Y-149233571D01*
X108060714Y-149185952D01*
X108013095Y-149138333D01*
X107965476Y-149043095D01*
X107965476Y-148947857D01*
X108013095Y-148852619D01*
X108060714Y-148805000D01*
X108155952Y-148757380D01*
X108394047Y-148757380D01*
X108536904Y-148805000D01*
X108965476Y-149233571D02*
X109298809Y-149233571D01*
X109441666Y-149757380D02*
X108965476Y-149757380D01*
X108965476Y-148757380D01*
X109441666Y-148757380D01*
X109727380Y-148757380D02*
X110298809Y-148757380D01*
X110013095Y-149757380D02*
X110013095Y-148757380D01*
X98727380Y-147457380D02*
X98727380Y-146457380D01*
X99108333Y-146457380D01*
X99203571Y-146505000D01*
X99251190Y-146552619D01*
X99298809Y-146647857D01*
X99298809Y-146790714D01*
X99251190Y-146885952D01*
X99203571Y-146933571D01*
X99108333Y-146981190D01*
X98727380Y-146981190D01*
X99917857Y-146457380D02*
X100108333Y-146457380D01*
X100203571Y-146505000D01*
X100298809Y-146600238D01*
X100346428Y-146790714D01*
X100346428Y-147124047D01*
X100298809Y-147314523D01*
X100203571Y-147409761D01*
X100108333Y-147457380D01*
X99917857Y-147457380D01*
X99822619Y-147409761D01*
X99727380Y-147314523D01*
X99679761Y-147124047D01*
X99679761Y-146790714D01*
X99727380Y-146600238D01*
X99822619Y-146505000D01*
X99917857Y-146457380D01*
X100679761Y-146457380D02*
X100917857Y-147457380D01*
X101108333Y-146743095D01*
X101298809Y-147457380D01*
X101536904Y-146457380D01*
X101917857Y-146933571D02*
X102251190Y-146933571D01*
X102394047Y-147457380D02*
X101917857Y-147457380D01*
X101917857Y-146457380D01*
X102394047Y-146457380D01*
X103394047Y-147457380D02*
X103060714Y-146981190D01*
X102822619Y-147457380D02*
X102822619Y-146457380D01*
X103203571Y-146457380D01*
X103298809Y-146505000D01*
X103346428Y-146552619D01*
X103394047Y-146647857D01*
X103394047Y-146790714D01*
X103346428Y-146885952D01*
X103298809Y-146933571D01*
X103203571Y-146981190D01*
X102822619Y-146981190D01*
X103584523Y-147552619D02*
X104346428Y-147552619D01*
X105155952Y-147362142D02*
X105108333Y-147409761D01*
X104965476Y-147457380D01*
X104870238Y-147457380D01*
X104727380Y-147409761D01*
X104632142Y-147314523D01*
X104584523Y-147219285D01*
X104536904Y-147028809D01*
X104536904Y-146885952D01*
X104584523Y-146695476D01*
X104632142Y-146600238D01*
X104727380Y-146505000D01*
X104870238Y-146457380D01*
X104965476Y-146457380D01*
X105108333Y-146505000D01*
X105155952Y-146552619D01*
X105775000Y-146457380D02*
X105965476Y-146457380D01*
X106060714Y-146505000D01*
X106155952Y-146600238D01*
X106203571Y-146790714D01*
X106203571Y-147124047D01*
X106155952Y-147314523D01*
X106060714Y-147409761D01*
X105965476Y-147457380D01*
X105775000Y-147457380D01*
X105679761Y-147409761D01*
X105584523Y-147314523D01*
X105536904Y-147124047D01*
X105536904Y-146790714D01*
X105584523Y-146600238D01*
X105679761Y-146505000D01*
X105775000Y-146457380D01*
X106632142Y-147457380D02*
X106632142Y-146457380D01*
X107203571Y-147457380D01*
X107203571Y-146457380D01*
X107536904Y-146457380D02*
X108108333Y-146457380D01*
X107822619Y-147457380D02*
X107822619Y-146457380D01*
X109013095Y-147457380D02*
X108679761Y-146981190D01*
X108441666Y-147457380D02*
X108441666Y-146457380D01*
X108822619Y-146457380D01*
X108917857Y-146505000D01*
X108965476Y-146552619D01*
X109013095Y-146647857D01*
X109013095Y-146790714D01*
X108965476Y-146885952D01*
X108917857Y-146933571D01*
X108822619Y-146981190D01*
X108441666Y-146981190D01*
X109632142Y-146457380D02*
X109822619Y-146457380D01*
X109917857Y-146505000D01*
X110013095Y-146600238D01*
X110060714Y-146790714D01*
X110060714Y-147124047D01*
X110013095Y-147314523D01*
X109917857Y-147409761D01*
X109822619Y-147457380D01*
X109632142Y-147457380D01*
X109536904Y-147409761D01*
X109441666Y-147314523D01*
X109394047Y-147124047D01*
X109394047Y-146790714D01*
X109441666Y-146600238D01*
X109536904Y-146505000D01*
X109632142Y-146457380D01*
X110965476Y-147457380D02*
X110489285Y-147457380D01*
X110489285Y-146457380D01*
X98797857Y-144557380D02*
X98797857Y-143557380D01*
X99131190Y-144271666D01*
X99464523Y-143557380D01*
X99464523Y-144557380D01*
X100131190Y-143557380D02*
X100321666Y-143557380D01*
X100416904Y-143605000D01*
X100512142Y-143700238D01*
X100559761Y-143890714D01*
X100559761Y-144224047D01*
X100512142Y-144414523D01*
X100416904Y-144509761D01*
X100321666Y-144557380D01*
X100131190Y-144557380D01*
X100035952Y-144509761D01*
X99940714Y-144414523D01*
X99893095Y-144224047D01*
X99893095Y-143890714D01*
X99940714Y-143700238D01*
X100035952Y-143605000D01*
X100131190Y-143557380D01*
X100988333Y-144557380D02*
X100988333Y-143557380D01*
X101226428Y-143557380D01*
X101369285Y-143605000D01*
X101464523Y-143700238D01*
X101512142Y-143795476D01*
X101559761Y-143985952D01*
X101559761Y-144128809D01*
X101512142Y-144319285D01*
X101464523Y-144414523D01*
X101369285Y-144509761D01*
X101226428Y-144557380D01*
X100988333Y-144557380D01*
X101988333Y-144033571D02*
X102321666Y-144033571D01*
X102464523Y-144557380D02*
X101988333Y-144557380D01*
X101988333Y-143557380D01*
X102464523Y-143557380D01*
X102655000Y-144652619D02*
X103416904Y-144652619D01*
X103607380Y-144509761D02*
X103750238Y-144557380D01*
X103988333Y-144557380D01*
X104083571Y-144509761D01*
X104131190Y-144462142D01*
X104178809Y-144366904D01*
X104178809Y-144271666D01*
X104131190Y-144176428D01*
X104083571Y-144128809D01*
X103988333Y-144081190D01*
X103797857Y-144033571D01*
X103702619Y-143985952D01*
X103655000Y-143938333D01*
X103607380Y-143843095D01*
X103607380Y-143747857D01*
X103655000Y-143652619D01*
X103702619Y-143605000D01*
X103797857Y-143557380D01*
X104035952Y-143557380D01*
X104178809Y-143605000D01*
X104607380Y-144033571D02*
X104940714Y-144033571D01*
X105083571Y-144557380D02*
X104607380Y-144557380D01*
X104607380Y-143557380D01*
X105083571Y-143557380D01*
X105988333Y-144557380D02*
X105512142Y-144557380D01*
X105512142Y-143557380D01*
X106321666Y-144033571D02*
X106655000Y-144033571D01*
X106797857Y-144557380D02*
X106321666Y-144557380D01*
X106321666Y-143557380D01*
X106797857Y-143557380D01*
X107797857Y-144462142D02*
X107750238Y-144509761D01*
X107607380Y-144557380D01*
X107512142Y-144557380D01*
X107369285Y-144509761D01*
X107274047Y-144414523D01*
X107226428Y-144319285D01*
X107178809Y-144128809D01*
X107178809Y-143985952D01*
X107226428Y-143795476D01*
X107274047Y-143700238D01*
X107369285Y-143605000D01*
X107512142Y-143557380D01*
X107607380Y-143557380D01*
X107750238Y-143605000D01*
X107797857Y-143652619D01*
X108083571Y-143557380D02*
X108655000Y-143557380D01*
X108369285Y-144557380D02*
X108369285Y-143557380D01*
X128553095Y-126305000D02*
X128457857Y-126257380D01*
X128315000Y-126257380D01*
X128172142Y-126305000D01*
X128076904Y-126400238D01*
X128029285Y-126495476D01*
X127981666Y-126685952D01*
X127981666Y-126828809D01*
X128029285Y-127019285D01*
X128076904Y-127114523D01*
X128172142Y-127209761D01*
X128315000Y-127257380D01*
X128410238Y-127257380D01*
X128553095Y-127209761D01*
X128600714Y-127162142D01*
X128600714Y-126828809D01*
X128410238Y-126828809D01*
X129029285Y-127257380D02*
X129029285Y-126257380D01*
X129600714Y-127257380D01*
X129600714Y-126257380D01*
X130076904Y-127257380D02*
X130076904Y-126257380D01*
X130315000Y-126257380D01*
X130457857Y-126305000D01*
X130553095Y-126400238D01*
X130600714Y-126495476D01*
X130648333Y-126685952D01*
X130648333Y-126828809D01*
X130600714Y-127019285D01*
X130553095Y-127114523D01*
X130457857Y-127209761D01*
X130315000Y-127257380D01*
X130076904Y-127257380D01*
X115126190Y-129557380D02*
X115126190Y-128557380D01*
X115507142Y-128557380D01*
X115602380Y-128605000D01*
X115650000Y-128652619D01*
X115697619Y-128747857D01*
X115697619Y-128890714D01*
X115650000Y-128985952D01*
X115602380Y-129033571D01*
X115507142Y-129081190D01*
X115126190Y-129081190D01*
X116316666Y-128557380D02*
X116507142Y-128557380D01*
X116602380Y-128605000D01*
X116697619Y-128700238D01*
X116745238Y-128890714D01*
X116745238Y-129224047D01*
X116697619Y-129414523D01*
X116602380Y-129509761D01*
X116507142Y-129557380D01*
X116316666Y-129557380D01*
X116221428Y-129509761D01*
X116126190Y-129414523D01*
X116078571Y-129224047D01*
X116078571Y-128890714D01*
X116126190Y-128700238D01*
X116221428Y-128605000D01*
X116316666Y-128557380D01*
X117078571Y-128557380D02*
X117316666Y-129557380D01*
X117507142Y-128843095D01*
X117697619Y-129557380D01*
X117935714Y-128557380D01*
X118316666Y-129033571D02*
X118650000Y-129033571D01*
X118792857Y-129557380D02*
X118316666Y-129557380D01*
X118316666Y-128557380D01*
X118792857Y-128557380D01*
X119792857Y-129557380D02*
X119459523Y-129081190D01*
X119221428Y-129557380D02*
X119221428Y-128557380D01*
X119602380Y-128557380D01*
X119697619Y-128605000D01*
X119745238Y-128652619D01*
X119792857Y-128747857D01*
X119792857Y-128890714D01*
X119745238Y-128985952D01*
X119697619Y-129033571D01*
X119602380Y-129081190D01*
X119221428Y-129081190D01*
X119983333Y-129652619D02*
X120745238Y-129652619D01*
X120935714Y-129509761D02*
X121078571Y-129557380D01*
X121316666Y-129557380D01*
X121411904Y-129509761D01*
X121459523Y-129462142D01*
X121507142Y-129366904D01*
X121507142Y-129271666D01*
X121459523Y-129176428D01*
X121411904Y-129128809D01*
X121316666Y-129081190D01*
X121126190Y-129033571D01*
X121030952Y-128985952D01*
X120983333Y-128938333D01*
X120935714Y-128843095D01*
X120935714Y-128747857D01*
X120983333Y-128652619D01*
X121030952Y-128605000D01*
X121126190Y-128557380D01*
X121364285Y-128557380D01*
X121507142Y-128605000D01*
X121935714Y-128557380D02*
X121935714Y-129366904D01*
X121983333Y-129462142D01*
X122030952Y-129509761D01*
X122126190Y-129557380D01*
X122316666Y-129557380D01*
X122411904Y-129509761D01*
X122459523Y-129462142D01*
X122507142Y-129366904D01*
X122507142Y-128557380D01*
X122983333Y-129557380D02*
X122983333Y-128557380D01*
X123364285Y-128557380D01*
X123459523Y-128605000D01*
X123507142Y-128652619D01*
X123554761Y-128747857D01*
X123554761Y-128890714D01*
X123507142Y-128985952D01*
X123459523Y-129033571D01*
X123364285Y-129081190D01*
X122983333Y-129081190D01*
X123983333Y-129557380D02*
X123983333Y-128557380D01*
X124364285Y-128557380D01*
X124459523Y-128605000D01*
X124507142Y-128652619D01*
X124554761Y-128747857D01*
X124554761Y-128890714D01*
X124507142Y-128985952D01*
X124459523Y-129033571D01*
X124364285Y-129081190D01*
X123983333Y-129081190D01*
X125459523Y-129557380D02*
X124983333Y-129557380D01*
X124983333Y-128557380D01*
X125983333Y-129081190D02*
X125983333Y-129557380D01*
X125650000Y-128557380D02*
X125983333Y-129081190D01*
X126316666Y-128557380D01*
X115126190Y-131897380D02*
X115126190Y-130897380D01*
X115507142Y-130897380D01*
X115602380Y-130945000D01*
X115650000Y-130992619D01*
X115697619Y-131087857D01*
X115697619Y-131230714D01*
X115650000Y-131325952D01*
X115602380Y-131373571D01*
X115507142Y-131421190D01*
X115126190Y-131421190D01*
X116316666Y-130897380D02*
X116507142Y-130897380D01*
X116602380Y-130945000D01*
X116697619Y-131040238D01*
X116745238Y-131230714D01*
X116745238Y-131564047D01*
X116697619Y-131754523D01*
X116602380Y-131849761D01*
X116507142Y-131897380D01*
X116316666Y-131897380D01*
X116221428Y-131849761D01*
X116126190Y-131754523D01*
X116078571Y-131564047D01*
X116078571Y-131230714D01*
X116126190Y-131040238D01*
X116221428Y-130945000D01*
X116316666Y-130897380D01*
X117078571Y-130897380D02*
X117316666Y-131897380D01*
X117507142Y-131183095D01*
X117697619Y-131897380D01*
X117935714Y-130897380D01*
X118316666Y-131373571D02*
X118650000Y-131373571D01*
X118792857Y-131897380D02*
X118316666Y-131897380D01*
X118316666Y-130897380D01*
X118792857Y-130897380D01*
X119792857Y-131897380D02*
X119459523Y-131421190D01*
X119221428Y-131897380D02*
X119221428Y-130897380D01*
X119602380Y-130897380D01*
X119697619Y-130945000D01*
X119745238Y-130992619D01*
X119792857Y-131087857D01*
X119792857Y-131230714D01*
X119745238Y-131325952D01*
X119697619Y-131373571D01*
X119602380Y-131421190D01*
X119221428Y-131421190D01*
X119983333Y-131992619D02*
X120745238Y-131992619D01*
X120935714Y-131849761D02*
X121078571Y-131897380D01*
X121316666Y-131897380D01*
X121411904Y-131849761D01*
X121459523Y-131802142D01*
X121507142Y-131706904D01*
X121507142Y-131611666D01*
X121459523Y-131516428D01*
X121411904Y-131468809D01*
X121316666Y-131421190D01*
X121126190Y-131373571D01*
X121030952Y-131325952D01*
X120983333Y-131278333D01*
X120935714Y-131183095D01*
X120935714Y-131087857D01*
X120983333Y-130992619D01*
X121030952Y-130945000D01*
X121126190Y-130897380D01*
X121364285Y-130897380D01*
X121507142Y-130945000D01*
X121935714Y-130897380D02*
X121935714Y-131706904D01*
X121983333Y-131802142D01*
X122030952Y-131849761D01*
X122126190Y-131897380D01*
X122316666Y-131897380D01*
X122411904Y-131849761D01*
X122459523Y-131802142D01*
X122507142Y-131706904D01*
X122507142Y-130897380D01*
X122983333Y-131897380D02*
X122983333Y-130897380D01*
X123364285Y-130897380D01*
X123459523Y-130945000D01*
X123507142Y-130992619D01*
X123554761Y-131087857D01*
X123554761Y-131230714D01*
X123507142Y-131325952D01*
X123459523Y-131373571D01*
X123364285Y-131421190D01*
X122983333Y-131421190D01*
X123983333Y-131897380D02*
X123983333Y-130897380D01*
X124364285Y-130897380D01*
X124459523Y-130945000D01*
X124507142Y-130992619D01*
X124554761Y-131087857D01*
X124554761Y-131230714D01*
X124507142Y-131325952D01*
X124459523Y-131373571D01*
X124364285Y-131421190D01*
X123983333Y-131421190D01*
X125459523Y-131897380D02*
X124983333Y-131897380D01*
X124983333Y-130897380D01*
X125983333Y-131421190D02*
X125983333Y-131897380D01*
X125650000Y-130897380D02*
X125983333Y-131421190D01*
X126316666Y-130897380D01*
X125662619Y-137057380D02*
X125091190Y-137057380D01*
X125376904Y-137057380D02*
X125376904Y-136057380D01*
X125281666Y-136200238D01*
X125186428Y-136295476D01*
X125091190Y-136343095D01*
X126043571Y-136152619D02*
X126091190Y-136105000D01*
X126186428Y-136057380D01*
X126424523Y-136057380D01*
X126519761Y-136105000D01*
X126567380Y-136152619D01*
X126615000Y-136247857D01*
X126615000Y-136343095D01*
X126567380Y-136485952D01*
X125995952Y-137057380D01*
X126615000Y-137057380D01*
X127615000Y-136962142D02*
X127567380Y-137009761D01*
X127424523Y-137057380D01*
X127329285Y-137057380D01*
X127186428Y-137009761D01*
X127091190Y-136914523D01*
X127043571Y-136819285D01*
X126995952Y-136628809D01*
X126995952Y-136485952D01*
X127043571Y-136295476D01*
X127091190Y-136200238D01*
X127186428Y-136105000D01*
X127329285Y-136057380D01*
X127424523Y-136057380D01*
X127567380Y-136105000D01*
X127615000Y-136152619D01*
X127805476Y-137152619D02*
X128567380Y-137152619D01*
X128757857Y-137009761D02*
X128900714Y-137057380D01*
X129138809Y-137057380D01*
X129234047Y-137009761D01*
X129281666Y-136962142D01*
X129329285Y-136866904D01*
X129329285Y-136771666D01*
X129281666Y-136676428D01*
X129234047Y-136628809D01*
X129138809Y-136581190D01*
X128948333Y-136533571D01*
X128853095Y-136485952D01*
X128805476Y-136438333D01*
X128757857Y-136343095D01*
X128757857Y-136247857D01*
X128805476Y-136152619D01*
X128853095Y-136105000D01*
X128948333Y-136057380D01*
X129186428Y-136057380D01*
X129329285Y-136105000D01*
X130329285Y-136962142D02*
X130281666Y-137009761D01*
X130138809Y-137057380D01*
X130043571Y-137057380D01*
X129900714Y-137009761D01*
X129805476Y-136914523D01*
X129757857Y-136819285D01*
X129710238Y-136628809D01*
X129710238Y-136485952D01*
X129757857Y-136295476D01*
X129805476Y-136200238D01*
X129900714Y-136105000D01*
X130043571Y-136057380D01*
X130138809Y-136057380D01*
X130281666Y-136105000D01*
X130329285Y-136152619D01*
X131234047Y-137057380D02*
X130757857Y-137057380D01*
X130757857Y-136057380D01*
X125538809Y-139357380D02*
X124967380Y-139357380D01*
X125253095Y-139357380D02*
X125253095Y-138357380D01*
X125157857Y-138500238D01*
X125062619Y-138595476D01*
X124967380Y-138643095D01*
X125919761Y-138452619D02*
X125967380Y-138405000D01*
X126062619Y-138357380D01*
X126300714Y-138357380D01*
X126395952Y-138405000D01*
X126443571Y-138452619D01*
X126491190Y-138547857D01*
X126491190Y-138643095D01*
X126443571Y-138785952D01*
X125872142Y-139357380D01*
X126491190Y-139357380D01*
X127491190Y-139262142D02*
X127443571Y-139309761D01*
X127300714Y-139357380D01*
X127205476Y-139357380D01*
X127062619Y-139309761D01*
X126967380Y-139214523D01*
X126919761Y-139119285D01*
X126872142Y-138928809D01*
X126872142Y-138785952D01*
X126919761Y-138595476D01*
X126967380Y-138500238D01*
X127062619Y-138405000D01*
X127205476Y-138357380D01*
X127300714Y-138357380D01*
X127443571Y-138405000D01*
X127491190Y-138452619D01*
X127681666Y-139452619D02*
X128443571Y-139452619D01*
X128634047Y-139309761D02*
X128776904Y-139357380D01*
X129015000Y-139357380D01*
X129110238Y-139309761D01*
X129157857Y-139262142D01*
X129205476Y-139166904D01*
X129205476Y-139071666D01*
X129157857Y-138976428D01*
X129110238Y-138928809D01*
X129015000Y-138881190D01*
X128824523Y-138833571D01*
X128729285Y-138785952D01*
X128681666Y-138738333D01*
X128634047Y-138643095D01*
X128634047Y-138547857D01*
X128681666Y-138452619D01*
X128729285Y-138405000D01*
X128824523Y-138357380D01*
X129062619Y-138357380D01*
X129205476Y-138405000D01*
X129634047Y-139357380D02*
X129634047Y-138357380D01*
X129872142Y-138357380D01*
X130015000Y-138405000D01*
X130110238Y-138500238D01*
X130157857Y-138595476D01*
X130205476Y-138785952D01*
X130205476Y-138928809D01*
X130157857Y-139119285D01*
X130110238Y-139214523D01*
X130015000Y-139309761D01*
X129872142Y-139357380D01*
X129634047Y-139357380D01*
X130586428Y-139071666D02*
X131062619Y-139071666D01*
X130491190Y-139357380D02*
X130824523Y-138357380D01*
X131157857Y-139357380D01*
X124981666Y-140957380D02*
X124981666Y-141766904D01*
X125029285Y-141862142D01*
X125076904Y-141909761D01*
X125172142Y-141957380D01*
X125362619Y-141957380D01*
X125457857Y-141909761D01*
X125505476Y-141862142D01*
X125553095Y-141766904D01*
X125553095Y-140957380D01*
X125981666Y-141671666D02*
X126457857Y-141671666D01*
X125886428Y-141957380D02*
X126219761Y-140957380D01*
X126553095Y-141957380D01*
X127457857Y-141957380D02*
X127124523Y-141481190D01*
X126886428Y-141957380D02*
X126886428Y-140957380D01*
X127267380Y-140957380D01*
X127362619Y-141005000D01*
X127410238Y-141052619D01*
X127457857Y-141147857D01*
X127457857Y-141290714D01*
X127410238Y-141385952D01*
X127362619Y-141433571D01*
X127267380Y-141481190D01*
X126886428Y-141481190D01*
X127743571Y-140957380D02*
X128315000Y-140957380D01*
X128029285Y-141957380D02*
X128029285Y-140957380D01*
X128410238Y-142052619D02*
X129172142Y-142052619D01*
X129267380Y-140957380D02*
X129838809Y-140957380D01*
X129553095Y-141957380D02*
X129553095Y-140957380D01*
X130076904Y-140957380D02*
X130743571Y-141957380D01*
X130743571Y-140957380D02*
X130076904Y-141957380D01*
X124962619Y-143257380D02*
X124962619Y-144066904D01*
X125010238Y-144162142D01*
X125057857Y-144209761D01*
X125153095Y-144257380D01*
X125343571Y-144257380D01*
X125438809Y-144209761D01*
X125486428Y-144162142D01*
X125534047Y-144066904D01*
X125534047Y-143257380D01*
X125962619Y-143971666D02*
X126438809Y-143971666D01*
X125867380Y-144257380D02*
X126200714Y-143257380D01*
X126534047Y-144257380D01*
X127438809Y-144257380D02*
X127105476Y-143781190D01*
X126867380Y-144257380D02*
X126867380Y-143257380D01*
X127248333Y-143257380D01*
X127343571Y-143305000D01*
X127391190Y-143352619D01*
X127438809Y-143447857D01*
X127438809Y-143590714D01*
X127391190Y-143685952D01*
X127343571Y-143733571D01*
X127248333Y-143781190D01*
X126867380Y-143781190D01*
X127724523Y-143257380D02*
X128295952Y-143257380D01*
X128010238Y-144257380D02*
X128010238Y-143257380D01*
X128391190Y-144352619D02*
X129153095Y-144352619D01*
X129962619Y-144257380D02*
X129629285Y-143781190D01*
X129391190Y-144257380D02*
X129391190Y-143257380D01*
X129772142Y-143257380D01*
X129867380Y-143305000D01*
X129915000Y-143352619D01*
X129962619Y-143447857D01*
X129962619Y-143590714D01*
X129915000Y-143685952D01*
X129867380Y-143733571D01*
X129772142Y-143781190D01*
X129391190Y-143781190D01*
X130295952Y-143257380D02*
X130962619Y-144257380D01*
X130962619Y-143257380D02*
X130295952Y-144257380D01*
X127395952Y-146857380D02*
X127395952Y-145857380D01*
X127872142Y-146857380D02*
X127872142Y-145857380D01*
X128205476Y-146571666D01*
X128538809Y-145857380D01*
X128538809Y-146857380D01*
X129205476Y-145857380D02*
X129395952Y-145857380D01*
X129491190Y-145905000D01*
X129586428Y-146000238D01*
X129634047Y-146190714D01*
X129634047Y-146524047D01*
X129586428Y-146714523D01*
X129491190Y-146809761D01*
X129395952Y-146857380D01*
X129205476Y-146857380D01*
X129110238Y-146809761D01*
X129015000Y-146714523D01*
X128967380Y-146524047D01*
X128967380Y-146190714D01*
X129015000Y-146000238D01*
X129110238Y-145905000D01*
X129205476Y-145857380D01*
X130062619Y-146857380D02*
X130062619Y-145857380D01*
X130634047Y-146857380D01*
X130634047Y-145857380D01*
X127262619Y-148457380D02*
X127595952Y-149457380D01*
X127929285Y-148457380D01*
X128262619Y-149457380D02*
X128262619Y-148457380D01*
X128595952Y-149171666D01*
X128929285Y-148457380D01*
X128929285Y-149457380D01*
X129595952Y-148457380D02*
X129786428Y-148457380D01*
X129881666Y-148505000D01*
X129976904Y-148600238D01*
X130024523Y-148790714D01*
X130024523Y-149124047D01*
X129976904Y-149314523D01*
X129881666Y-149409761D01*
X129786428Y-149457380D01*
X129595952Y-149457380D01*
X129500714Y-149409761D01*
X129405476Y-149314523D01*
X129357857Y-149124047D01*
X129357857Y-148790714D01*
X129405476Y-148600238D01*
X129500714Y-148505000D01*
X129595952Y-148457380D01*
X130453095Y-149457380D02*
X130453095Y-148457380D01*
X131024523Y-149457380D01*
X131024523Y-148457380D01*
X128653095Y-151105000D02*
X128557857Y-151057380D01*
X128415000Y-151057380D01*
X128272142Y-151105000D01*
X128176904Y-151200238D01*
X128129285Y-151295476D01*
X128081666Y-151485952D01*
X128081666Y-151628809D01*
X128129285Y-151819285D01*
X128176904Y-151914523D01*
X128272142Y-152009761D01*
X128415000Y-152057380D01*
X128510238Y-152057380D01*
X128653095Y-152009761D01*
X128700714Y-151962142D01*
X128700714Y-151628809D01*
X128510238Y-151628809D01*
X129129285Y-152057380D02*
X129129285Y-151057380D01*
X129700714Y-152057380D01*
X129700714Y-151057380D01*
X130176904Y-152057380D02*
X130176904Y-151057380D01*
X130415000Y-151057380D01*
X130557857Y-151105000D01*
X130653095Y-151200238D01*
X130700714Y-151295476D01*
X130748333Y-151485952D01*
X130748333Y-151628809D01*
X130700714Y-151819285D01*
X130653095Y-151914523D01*
X130557857Y-152009761D01*
X130415000Y-152057380D01*
X130176904Y-152057380D01*
X134636190Y-156027380D02*
X134636190Y-155027380D01*
X134636190Y-155503571D02*
X135207619Y-155503571D01*
X135207619Y-156027380D02*
X135207619Y-155027380D01*
X135540952Y-155027380D02*
X135874285Y-156027380D01*
X136207619Y-155027380D01*
X136302857Y-156122619D02*
X137064761Y-156122619D01*
X137493333Y-155027380D02*
X137683809Y-155027380D01*
X137779047Y-155075000D01*
X137874285Y-155170238D01*
X137921904Y-155360714D01*
X137921904Y-155694047D01*
X137874285Y-155884523D01*
X137779047Y-155979761D01*
X137683809Y-156027380D01*
X137493333Y-156027380D01*
X137398095Y-155979761D01*
X137302857Y-155884523D01*
X137255238Y-155694047D01*
X137255238Y-155360714D01*
X137302857Y-155170238D01*
X137398095Y-155075000D01*
X137493333Y-155027380D01*
X138350476Y-155027380D02*
X138350476Y-155836904D01*
X138398095Y-155932142D01*
X138445714Y-155979761D01*
X138540952Y-156027380D01*
X138731428Y-156027380D01*
X138826666Y-155979761D01*
X138874285Y-155932142D01*
X138921904Y-155836904D01*
X138921904Y-155027380D01*
X139255238Y-155027380D02*
X139826666Y-155027380D01*
X139540952Y-156027380D02*
X139540952Y-155027380D01*
X125991190Y-157357380D02*
X125991190Y-156357380D01*
X125991190Y-156833571D02*
X126562619Y-156833571D01*
X126562619Y-157357380D02*
X126562619Y-156357380D01*
X126895952Y-156357380D02*
X127229285Y-157357380D01*
X127562619Y-156357380D01*
X127657857Y-157452619D02*
X128419761Y-157452619D01*
X128848333Y-156357380D02*
X129038809Y-156357380D01*
X129134047Y-156405000D01*
X129229285Y-156500238D01*
X129276904Y-156690714D01*
X129276904Y-157024047D01*
X129229285Y-157214523D01*
X129134047Y-157309761D01*
X129038809Y-157357380D01*
X128848333Y-157357380D01*
X128753095Y-157309761D01*
X128657857Y-157214523D01*
X128610238Y-157024047D01*
X128610238Y-156690714D01*
X128657857Y-156500238D01*
X128753095Y-156405000D01*
X128848333Y-156357380D01*
X129705476Y-156357380D02*
X129705476Y-157166904D01*
X129753095Y-157262142D01*
X129800714Y-157309761D01*
X129895952Y-157357380D01*
X130086428Y-157357380D01*
X130181666Y-157309761D01*
X130229285Y-157262142D01*
X130276904Y-157166904D01*
X130276904Y-156357380D01*
X130610238Y-156357380D02*
X131181666Y-156357380D01*
X130895952Y-157357380D02*
X130895952Y-156357380D01*
%TO.C,U100*%
X98512380Y-106489285D02*
X99321904Y-106489285D01*
X99417142Y-106441666D01*
X99464761Y-106394047D01*
X99512380Y-106298809D01*
X99512380Y-106108333D01*
X99464761Y-106013095D01*
X99417142Y-105965476D01*
X99321904Y-105917857D01*
X98512380Y-105917857D01*
X99512380Y-104917857D02*
X99512380Y-105489285D01*
X99512380Y-105203571D02*
X98512380Y-105203571D01*
X98655238Y-105298809D01*
X98750476Y-105394047D01*
X98798095Y-105489285D01*
X98512380Y-104298809D02*
X98512380Y-104203571D01*
X98560000Y-104108333D01*
X98607619Y-104060714D01*
X98702857Y-104013095D01*
X98893333Y-103965476D01*
X99131428Y-103965476D01*
X99321904Y-104013095D01*
X99417142Y-104060714D01*
X99464761Y-104108333D01*
X99512380Y-104203571D01*
X99512380Y-104298809D01*
X99464761Y-104394047D01*
X99417142Y-104441666D01*
X99321904Y-104489285D01*
X99131428Y-104536904D01*
X98893333Y-104536904D01*
X98702857Y-104489285D01*
X98607619Y-104441666D01*
X98560000Y-104394047D01*
X98512380Y-104298809D01*
X98512380Y-103346428D02*
X98512380Y-103251190D01*
X98560000Y-103155952D01*
X98607619Y-103108333D01*
X98702857Y-103060714D01*
X98893333Y-103013095D01*
X99131428Y-103013095D01*
X99321904Y-103060714D01*
X99417142Y-103108333D01*
X99464761Y-103155952D01*
X99512380Y-103251190D01*
X99512380Y-103346428D01*
X99464761Y-103441666D01*
X99417142Y-103489285D01*
X99321904Y-103536904D01*
X99131428Y-103584523D01*
X98893333Y-103584523D01*
X98702857Y-103536904D01*
X98607619Y-103489285D01*
X98560000Y-103441666D01*
X98512380Y-103346428D01*
X107188095Y-108085000D02*
X107092857Y-108037380D01*
X106950000Y-108037380D01*
X106807142Y-108085000D01*
X106711904Y-108180238D01*
X106664285Y-108275476D01*
X106616666Y-108465952D01*
X106616666Y-108608809D01*
X106664285Y-108799285D01*
X106711904Y-108894523D01*
X106807142Y-108989761D01*
X106950000Y-109037380D01*
X107045238Y-109037380D01*
X107188095Y-108989761D01*
X107235714Y-108942142D01*
X107235714Y-108608809D01*
X107045238Y-108608809D01*
X107664285Y-109037380D02*
X107664285Y-108037380D01*
X108235714Y-109037380D01*
X108235714Y-108037380D01*
X108711904Y-109037380D02*
X108711904Y-108037380D01*
X108950000Y-108037380D01*
X109092857Y-108085000D01*
X109188095Y-108180238D01*
X109235714Y-108275476D01*
X109283333Y-108465952D01*
X109283333Y-108608809D01*
X109235714Y-108799285D01*
X109188095Y-108894523D01*
X109092857Y-108989761D01*
X108950000Y-109037380D01*
X108711904Y-109037380D01*
X107188095Y-105497380D02*
X107807142Y-105497380D01*
X107473809Y-105878333D01*
X107616666Y-105878333D01*
X107711904Y-105925952D01*
X107759523Y-105973571D01*
X107807142Y-106068809D01*
X107807142Y-106306904D01*
X107759523Y-106402142D01*
X107711904Y-106449761D01*
X107616666Y-106497380D01*
X107330952Y-106497380D01*
X107235714Y-106449761D01*
X107188095Y-106402142D01*
X108092857Y-105497380D02*
X108426190Y-106497380D01*
X108759523Y-105497380D01*
X106926190Y-102957380D02*
X107259523Y-103957380D01*
X107592857Y-102957380D01*
X107926190Y-103957380D02*
X107926190Y-103290714D01*
X107926190Y-102957380D02*
X107878571Y-103005000D01*
X107926190Y-103052619D01*
X107973809Y-103005000D01*
X107926190Y-102957380D01*
X107926190Y-103052619D01*
X108402380Y-103290714D02*
X108402380Y-103957380D01*
X108402380Y-103385952D02*
X108450000Y-103338333D01*
X108545238Y-103290714D01*
X108688095Y-103290714D01*
X108783333Y-103338333D01*
X108830952Y-103433571D01*
X108830952Y-103957380D01*
X107283333Y-100893571D02*
X107616666Y-100893571D01*
X107759523Y-101417380D02*
X107283333Y-101417380D01*
X107283333Y-100417380D01*
X107759523Y-100417380D01*
X108188095Y-100750714D02*
X108188095Y-101417380D01*
X108188095Y-100845952D02*
X108235714Y-100798333D01*
X108330952Y-100750714D01*
X108473809Y-100750714D01*
X108569047Y-100798333D01*
X108616666Y-100893571D01*
X108616666Y-101417380D01*
%TO.C,SW302*%
X79629285Y-44219761D02*
X79772142Y-44267380D01*
X80010238Y-44267380D01*
X80105476Y-44219761D01*
X80153095Y-44172142D01*
X80200714Y-44076904D01*
X80200714Y-43981666D01*
X80153095Y-43886428D01*
X80105476Y-43838809D01*
X80010238Y-43791190D01*
X79819761Y-43743571D01*
X79724523Y-43695952D01*
X79676904Y-43648333D01*
X79629285Y-43553095D01*
X79629285Y-43457857D01*
X79676904Y-43362619D01*
X79724523Y-43315000D01*
X79819761Y-43267380D01*
X80057857Y-43267380D01*
X80200714Y-43315000D01*
X80534047Y-43267380D02*
X80772142Y-44267380D01*
X80962619Y-43553095D01*
X81153095Y-44267380D01*
X81391190Y-43267380D01*
X81676904Y-43267380D02*
X82295952Y-43267380D01*
X81962619Y-43648333D01*
X82105476Y-43648333D01*
X82200714Y-43695952D01*
X82248333Y-43743571D01*
X82295952Y-43838809D01*
X82295952Y-44076904D01*
X82248333Y-44172142D01*
X82200714Y-44219761D01*
X82105476Y-44267380D01*
X81819761Y-44267380D01*
X81724523Y-44219761D01*
X81676904Y-44172142D01*
X82915000Y-43267380D02*
X83010238Y-43267380D01*
X83105476Y-43315000D01*
X83153095Y-43362619D01*
X83200714Y-43457857D01*
X83248333Y-43648333D01*
X83248333Y-43886428D01*
X83200714Y-44076904D01*
X83153095Y-44172142D01*
X83105476Y-44219761D01*
X83010238Y-44267380D01*
X82915000Y-44267380D01*
X82819761Y-44219761D01*
X82772142Y-44172142D01*
X82724523Y-44076904D01*
X82676904Y-43886428D01*
X82676904Y-43648333D01*
X82724523Y-43457857D01*
X82772142Y-43362619D01*
X82819761Y-43315000D01*
X82915000Y-43267380D01*
X83629285Y-43362619D02*
X83676904Y-43315000D01*
X83772142Y-43267380D01*
X84010238Y-43267380D01*
X84105476Y-43315000D01*
X84153095Y-43362619D01*
X84200714Y-43457857D01*
X84200714Y-43553095D01*
X84153095Y-43695952D01*
X83581666Y-44267380D01*
X84200714Y-44267380D01*
%TO.C,SW201*%
X71374285Y-150899761D02*
X71517142Y-150947380D01*
X71755238Y-150947380D01*
X71850476Y-150899761D01*
X71898095Y-150852142D01*
X71945714Y-150756904D01*
X71945714Y-150661666D01*
X71898095Y-150566428D01*
X71850476Y-150518809D01*
X71755238Y-150471190D01*
X71564761Y-150423571D01*
X71469523Y-150375952D01*
X71421904Y-150328333D01*
X71374285Y-150233095D01*
X71374285Y-150137857D01*
X71421904Y-150042619D01*
X71469523Y-149995000D01*
X71564761Y-149947380D01*
X71802857Y-149947380D01*
X71945714Y-149995000D01*
X72279047Y-149947380D02*
X72517142Y-150947380D01*
X72707619Y-150233095D01*
X72898095Y-150947380D01*
X73136190Y-149947380D01*
X73469523Y-150042619D02*
X73517142Y-149995000D01*
X73612380Y-149947380D01*
X73850476Y-149947380D01*
X73945714Y-149995000D01*
X73993333Y-150042619D01*
X74040952Y-150137857D01*
X74040952Y-150233095D01*
X73993333Y-150375952D01*
X73421904Y-150947380D01*
X74040952Y-150947380D01*
X74660000Y-149947380D02*
X74755238Y-149947380D01*
X74850476Y-149995000D01*
X74898095Y-150042619D01*
X74945714Y-150137857D01*
X74993333Y-150328333D01*
X74993333Y-150566428D01*
X74945714Y-150756904D01*
X74898095Y-150852142D01*
X74850476Y-150899761D01*
X74755238Y-150947380D01*
X74660000Y-150947380D01*
X74564761Y-150899761D01*
X74517142Y-150852142D01*
X74469523Y-150756904D01*
X74421904Y-150566428D01*
X74421904Y-150328333D01*
X74469523Y-150137857D01*
X74517142Y-150042619D01*
X74564761Y-149995000D01*
X74660000Y-149947380D01*
X75945714Y-150947380D02*
X75374285Y-150947380D01*
X75660000Y-150947380D02*
X75660000Y-149947380D01*
X75564761Y-150090238D01*
X75469523Y-150185476D01*
X75374285Y-150233095D01*
%TO.C,RV301*%
X147042380Y-84627380D02*
X146709047Y-84151190D01*
X146470952Y-84627380D02*
X146470952Y-83627380D01*
X146851904Y-83627380D01*
X146947142Y-83675000D01*
X146994761Y-83722619D01*
X147042380Y-83817857D01*
X147042380Y-83960714D01*
X146994761Y-84055952D01*
X146947142Y-84103571D01*
X146851904Y-84151190D01*
X146470952Y-84151190D01*
X147328095Y-83627380D02*
X147661428Y-84627380D01*
X147994761Y-83627380D01*
X148232857Y-83627380D02*
X148851904Y-83627380D01*
X148518571Y-84008333D01*
X148661428Y-84008333D01*
X148756666Y-84055952D01*
X148804285Y-84103571D01*
X148851904Y-84198809D01*
X148851904Y-84436904D01*
X148804285Y-84532142D01*
X148756666Y-84579761D01*
X148661428Y-84627380D01*
X148375714Y-84627380D01*
X148280476Y-84579761D01*
X148232857Y-84532142D01*
X149470952Y-83627380D02*
X149566190Y-83627380D01*
X149661428Y-83675000D01*
X149709047Y-83722619D01*
X149756666Y-83817857D01*
X149804285Y-84008333D01*
X149804285Y-84246428D01*
X149756666Y-84436904D01*
X149709047Y-84532142D01*
X149661428Y-84579761D01*
X149566190Y-84627380D01*
X149470952Y-84627380D01*
X149375714Y-84579761D01*
X149328095Y-84532142D01*
X149280476Y-84436904D01*
X149232857Y-84246428D01*
X149232857Y-84008333D01*
X149280476Y-83817857D01*
X149328095Y-83722619D01*
X149375714Y-83675000D01*
X149470952Y-83627380D01*
X150756666Y-84627380D02*
X150185238Y-84627380D01*
X150470952Y-84627380D02*
X150470952Y-83627380D01*
X150375714Y-83770238D01*
X150280476Y-83865476D01*
X150185238Y-83913095D01*
%TO.C,J201*%
X144129285Y-111847380D02*
X144129285Y-112561666D01*
X144081666Y-112704523D01*
X143986428Y-112799761D01*
X143843571Y-112847380D01*
X143748333Y-112847380D01*
X144557857Y-111942619D02*
X144605476Y-111895000D01*
X144700714Y-111847380D01*
X144938809Y-111847380D01*
X145034047Y-111895000D01*
X145081666Y-111942619D01*
X145129285Y-112037857D01*
X145129285Y-112133095D01*
X145081666Y-112275952D01*
X144510238Y-112847380D01*
X145129285Y-112847380D01*
X145748333Y-111847380D02*
X145843571Y-111847380D01*
X145938809Y-111895000D01*
X145986428Y-111942619D01*
X146034047Y-112037857D01*
X146081666Y-112228333D01*
X146081666Y-112466428D01*
X146034047Y-112656904D01*
X145986428Y-112752142D01*
X145938809Y-112799761D01*
X145843571Y-112847380D01*
X145748333Y-112847380D01*
X145653095Y-112799761D01*
X145605476Y-112752142D01*
X145557857Y-112656904D01*
X145510238Y-112466428D01*
X145510238Y-112228333D01*
X145557857Y-112037857D01*
X145605476Y-111942619D01*
X145653095Y-111895000D01*
X145748333Y-111847380D01*
X147034047Y-112847380D02*
X146462619Y-112847380D01*
X146748333Y-112847380D02*
X146748333Y-111847380D01*
X146653095Y-111990238D01*
X146557857Y-112085476D01*
X146462619Y-112133095D01*
%TO.C,J200*%
X144129285Y-121372380D02*
X144129285Y-122086666D01*
X144081666Y-122229523D01*
X143986428Y-122324761D01*
X143843571Y-122372380D01*
X143748333Y-122372380D01*
X144557857Y-121467619D02*
X144605476Y-121420000D01*
X144700714Y-121372380D01*
X144938809Y-121372380D01*
X145034047Y-121420000D01*
X145081666Y-121467619D01*
X145129285Y-121562857D01*
X145129285Y-121658095D01*
X145081666Y-121800952D01*
X144510238Y-122372380D01*
X145129285Y-122372380D01*
X145748333Y-121372380D02*
X145843571Y-121372380D01*
X145938809Y-121420000D01*
X145986428Y-121467619D01*
X146034047Y-121562857D01*
X146081666Y-121753333D01*
X146081666Y-121991428D01*
X146034047Y-122181904D01*
X145986428Y-122277142D01*
X145938809Y-122324761D01*
X145843571Y-122372380D01*
X145748333Y-122372380D01*
X145653095Y-122324761D01*
X145605476Y-122277142D01*
X145557857Y-122181904D01*
X145510238Y-121991428D01*
X145510238Y-121753333D01*
X145557857Y-121562857D01*
X145605476Y-121467619D01*
X145653095Y-121420000D01*
X145748333Y-121372380D01*
X146700714Y-121372380D02*
X146795952Y-121372380D01*
X146891190Y-121420000D01*
X146938809Y-121467619D01*
X146986428Y-121562857D01*
X147034047Y-121753333D01*
X147034047Y-121991428D01*
X146986428Y-122181904D01*
X146938809Y-122277142D01*
X146891190Y-122324761D01*
X146795952Y-122372380D01*
X146700714Y-122372380D01*
X146605476Y-122324761D01*
X146557857Y-122277142D01*
X146510238Y-122181904D01*
X146462619Y-121991428D01*
X146462619Y-121753333D01*
X146510238Y-121562857D01*
X146557857Y-121467619D01*
X146605476Y-121420000D01*
X146700714Y-121372380D01*
%TO.C,J1*%
X96821666Y-37552380D02*
X96821666Y-38266666D01*
X96774047Y-38409523D01*
X96678809Y-38504761D01*
X96535952Y-38552380D01*
X96440714Y-38552380D01*
X97821666Y-38552380D02*
X97250238Y-38552380D01*
X97535952Y-38552380D02*
X97535952Y-37552380D01*
X97440714Y-37695238D01*
X97345476Y-37790476D01*
X97250238Y-37838095D01*
%TO.C,U301*%
X148427380Y-67754285D02*
X149236904Y-67754285D01*
X149332142Y-67706666D01*
X149379761Y-67659047D01*
X149427380Y-67563809D01*
X149427380Y-67373333D01*
X149379761Y-67278095D01*
X149332142Y-67230476D01*
X149236904Y-67182857D01*
X148427380Y-67182857D01*
X148427380Y-66801904D02*
X148427380Y-66182857D01*
X148808333Y-66516190D01*
X148808333Y-66373333D01*
X148855952Y-66278095D01*
X148903571Y-66230476D01*
X148998809Y-66182857D01*
X149236904Y-66182857D01*
X149332142Y-66230476D01*
X149379761Y-66278095D01*
X149427380Y-66373333D01*
X149427380Y-66659047D01*
X149379761Y-66754285D01*
X149332142Y-66801904D01*
X148427380Y-65563809D02*
X148427380Y-65468571D01*
X148475000Y-65373333D01*
X148522619Y-65325714D01*
X148617857Y-65278095D01*
X148808333Y-65230476D01*
X149046428Y-65230476D01*
X149236904Y-65278095D01*
X149332142Y-65325714D01*
X149379761Y-65373333D01*
X149427380Y-65468571D01*
X149427380Y-65563809D01*
X149379761Y-65659047D01*
X149332142Y-65706666D01*
X149236904Y-65754285D01*
X149046428Y-65801904D01*
X148808333Y-65801904D01*
X148617857Y-65754285D01*
X148522619Y-65706666D01*
X148475000Y-65659047D01*
X148427380Y-65563809D01*
X149427380Y-64278095D02*
X149427380Y-64849523D01*
X149427380Y-64563809D02*
X148427380Y-64563809D01*
X148570238Y-64659047D01*
X148665476Y-64754285D01*
X148713095Y-64849523D01*
%TO.C,R302*%
X148407380Y-74779047D02*
X147931190Y-75112380D01*
X148407380Y-75350476D02*
X147407380Y-75350476D01*
X147407380Y-74969523D01*
X147455000Y-74874285D01*
X147502619Y-74826666D01*
X147597857Y-74779047D01*
X147740714Y-74779047D01*
X147835952Y-74826666D01*
X147883571Y-74874285D01*
X147931190Y-74969523D01*
X147931190Y-75350476D01*
X147407380Y-74445714D02*
X147407380Y-73826666D01*
X147788333Y-74160000D01*
X147788333Y-74017142D01*
X147835952Y-73921904D01*
X147883571Y-73874285D01*
X147978809Y-73826666D01*
X148216904Y-73826666D01*
X148312142Y-73874285D01*
X148359761Y-73921904D01*
X148407380Y-74017142D01*
X148407380Y-74302857D01*
X148359761Y-74398095D01*
X148312142Y-74445714D01*
X147407380Y-73207619D02*
X147407380Y-73112380D01*
X147455000Y-73017142D01*
X147502619Y-72969523D01*
X147597857Y-72921904D01*
X147788333Y-72874285D01*
X148026428Y-72874285D01*
X148216904Y-72921904D01*
X148312142Y-72969523D01*
X148359761Y-73017142D01*
X148407380Y-73112380D01*
X148407380Y-73207619D01*
X148359761Y-73302857D01*
X148312142Y-73350476D01*
X148216904Y-73398095D01*
X148026428Y-73445714D01*
X147788333Y-73445714D01*
X147597857Y-73398095D01*
X147502619Y-73350476D01*
X147455000Y-73302857D01*
X147407380Y-73207619D01*
X147502619Y-72493333D02*
X147455000Y-72445714D01*
X147407380Y-72350476D01*
X147407380Y-72112380D01*
X147455000Y-72017142D01*
X147502619Y-71969523D01*
X147597857Y-71921904D01*
X147693095Y-71921904D01*
X147835952Y-71969523D01*
X148407380Y-72540952D01*
X148407380Y-71921904D01*
%TO.C,C302*%
X143287142Y-59539047D02*
X143334761Y-59586666D01*
X143382380Y-59729523D01*
X143382380Y-59824761D01*
X143334761Y-59967619D01*
X143239523Y-60062857D01*
X143144285Y-60110476D01*
X142953809Y-60158095D01*
X142810952Y-60158095D01*
X142620476Y-60110476D01*
X142525238Y-60062857D01*
X142430000Y-59967619D01*
X142382380Y-59824761D01*
X142382380Y-59729523D01*
X142430000Y-59586666D01*
X142477619Y-59539047D01*
X142382380Y-59205714D02*
X142382380Y-58586666D01*
X142763333Y-58920000D01*
X142763333Y-58777142D01*
X142810952Y-58681904D01*
X142858571Y-58634285D01*
X142953809Y-58586666D01*
X143191904Y-58586666D01*
X143287142Y-58634285D01*
X143334761Y-58681904D01*
X143382380Y-58777142D01*
X143382380Y-59062857D01*
X143334761Y-59158095D01*
X143287142Y-59205714D01*
X142382380Y-57967619D02*
X142382380Y-57872380D01*
X142430000Y-57777142D01*
X142477619Y-57729523D01*
X142572857Y-57681904D01*
X142763333Y-57634285D01*
X143001428Y-57634285D01*
X143191904Y-57681904D01*
X143287142Y-57729523D01*
X143334761Y-57777142D01*
X143382380Y-57872380D01*
X143382380Y-57967619D01*
X143334761Y-58062857D01*
X143287142Y-58110476D01*
X143191904Y-58158095D01*
X143001428Y-58205714D01*
X142763333Y-58205714D01*
X142572857Y-58158095D01*
X142477619Y-58110476D01*
X142430000Y-58062857D01*
X142382380Y-57967619D01*
X142477619Y-57253333D02*
X142430000Y-57205714D01*
X142382380Y-57110476D01*
X142382380Y-56872380D01*
X142430000Y-56777142D01*
X142477619Y-56729523D01*
X142572857Y-56681904D01*
X142668095Y-56681904D01*
X142810952Y-56729523D01*
X143382380Y-57300952D01*
X143382380Y-56681904D01*
%TO.C,C205*%
X121435952Y-156567142D02*
X121388333Y-156614761D01*
X121245476Y-156662380D01*
X121150238Y-156662380D01*
X121007380Y-156614761D01*
X120912142Y-156519523D01*
X120864523Y-156424285D01*
X120816904Y-156233809D01*
X120816904Y-156090952D01*
X120864523Y-155900476D01*
X120912142Y-155805238D01*
X121007380Y-155710000D01*
X121150238Y-155662380D01*
X121245476Y-155662380D01*
X121388333Y-155710000D01*
X121435952Y-155757619D01*
X121816904Y-155757619D02*
X121864523Y-155710000D01*
X121959761Y-155662380D01*
X122197857Y-155662380D01*
X122293095Y-155710000D01*
X122340714Y-155757619D01*
X122388333Y-155852857D01*
X122388333Y-155948095D01*
X122340714Y-156090952D01*
X121769285Y-156662380D01*
X122388333Y-156662380D01*
X123007380Y-155662380D02*
X123102619Y-155662380D01*
X123197857Y-155710000D01*
X123245476Y-155757619D01*
X123293095Y-155852857D01*
X123340714Y-156043333D01*
X123340714Y-156281428D01*
X123293095Y-156471904D01*
X123245476Y-156567142D01*
X123197857Y-156614761D01*
X123102619Y-156662380D01*
X123007380Y-156662380D01*
X122912142Y-156614761D01*
X122864523Y-156567142D01*
X122816904Y-156471904D01*
X122769285Y-156281428D01*
X122769285Y-156043333D01*
X122816904Y-155852857D01*
X122864523Y-155757619D01*
X122912142Y-155710000D01*
X123007380Y-155662380D01*
X124245476Y-155662380D02*
X123769285Y-155662380D01*
X123721666Y-156138571D01*
X123769285Y-156090952D01*
X123864523Y-156043333D01*
X124102619Y-156043333D01*
X124197857Y-156090952D01*
X124245476Y-156138571D01*
X124293095Y-156233809D01*
X124293095Y-156471904D01*
X124245476Y-156567142D01*
X124197857Y-156614761D01*
X124102619Y-156662380D01*
X123864523Y-156662380D01*
X123769285Y-156614761D01*
X123721666Y-156567142D01*
%TO.C,H4*%
X65913095Y-151827380D02*
X65913095Y-150827380D01*
X65913095Y-151303571D02*
X66484523Y-151303571D01*
X66484523Y-151827380D02*
X66484523Y-150827380D01*
X67389285Y-151160714D02*
X67389285Y-151827380D01*
X67151190Y-150779761D02*
X66913095Y-151494047D01*
X67532142Y-151494047D01*
%TO.C,H3*%
X148463095Y-37527380D02*
X148463095Y-36527380D01*
X148463095Y-37003571D02*
X149034523Y-37003571D01*
X149034523Y-37527380D02*
X149034523Y-36527380D01*
X149415476Y-36527380D02*
X150034523Y-36527380D01*
X149701190Y-36908333D01*
X149844047Y-36908333D01*
X149939285Y-36955952D01*
X149986904Y-37003571D01*
X150034523Y-37098809D01*
X150034523Y-37336904D01*
X149986904Y-37432142D01*
X149939285Y-37479761D01*
X149844047Y-37527380D01*
X149558333Y-37527380D01*
X149463095Y-37479761D01*
X149415476Y-37432142D01*
%TO.C,H2*%
X147828095Y-151582380D02*
X147828095Y-150582380D01*
X147828095Y-151058571D02*
X148399523Y-151058571D01*
X148399523Y-151582380D02*
X148399523Y-150582380D01*
X148828095Y-150677619D02*
X148875714Y-150630000D01*
X148970952Y-150582380D01*
X149209047Y-150582380D01*
X149304285Y-150630000D01*
X149351904Y-150677619D01*
X149399523Y-150772857D01*
X149399523Y-150868095D01*
X149351904Y-151010952D01*
X148780476Y-151582380D01*
X149399523Y-151582380D01*
%TO.C,H1*%
X65913095Y-37527380D02*
X65913095Y-36527380D01*
X65913095Y-37003571D02*
X66484523Y-37003571D01*
X66484523Y-37527380D02*
X66484523Y-36527380D01*
X67484523Y-37527380D02*
X66913095Y-37527380D01*
X67198809Y-37527380D02*
X67198809Y-36527380D01*
X67103571Y-36670238D01*
X67008333Y-36765476D01*
X66913095Y-36813095D01*
%TO.C,D301*%
X103084523Y-115737380D02*
X103084523Y-114737380D01*
X103322619Y-114737380D01*
X103465476Y-114785000D01*
X103560714Y-114880238D01*
X103608333Y-114975476D01*
X103655952Y-115165952D01*
X103655952Y-115308809D01*
X103608333Y-115499285D01*
X103560714Y-115594523D01*
X103465476Y-115689761D01*
X103322619Y-115737380D01*
X103084523Y-115737380D01*
X103989285Y-114737380D02*
X104608333Y-114737380D01*
X104275000Y-115118333D01*
X104417857Y-115118333D01*
X104513095Y-115165952D01*
X104560714Y-115213571D01*
X104608333Y-115308809D01*
X104608333Y-115546904D01*
X104560714Y-115642142D01*
X104513095Y-115689761D01*
X104417857Y-115737380D01*
X104132142Y-115737380D01*
X104036904Y-115689761D01*
X103989285Y-115642142D01*
X105227380Y-114737380D02*
X105322619Y-114737380D01*
X105417857Y-114785000D01*
X105465476Y-114832619D01*
X105513095Y-114927857D01*
X105560714Y-115118333D01*
X105560714Y-115356428D01*
X105513095Y-115546904D01*
X105465476Y-115642142D01*
X105417857Y-115689761D01*
X105322619Y-115737380D01*
X105227380Y-115737380D01*
X105132142Y-115689761D01*
X105084523Y-115642142D01*
X105036904Y-115546904D01*
X104989285Y-115356428D01*
X104989285Y-115118333D01*
X105036904Y-114927857D01*
X105084523Y-114832619D01*
X105132142Y-114785000D01*
X105227380Y-114737380D01*
X106513095Y-115737380D02*
X105941666Y-115737380D01*
X106227380Y-115737380D02*
X106227380Y-114737380D01*
X106132142Y-114880238D01*
X106036904Y-114975476D01*
X105941666Y-115023095D01*
%TO.C,D300*%
X139279523Y-45252380D02*
X139279523Y-44252380D01*
X139517619Y-44252380D01*
X139660476Y-44300000D01*
X139755714Y-44395238D01*
X139803333Y-44490476D01*
X139850952Y-44680952D01*
X139850952Y-44823809D01*
X139803333Y-45014285D01*
X139755714Y-45109523D01*
X139660476Y-45204761D01*
X139517619Y-45252380D01*
X139279523Y-45252380D01*
X140184285Y-44252380D02*
X140803333Y-44252380D01*
X140470000Y-44633333D01*
X140612857Y-44633333D01*
X140708095Y-44680952D01*
X140755714Y-44728571D01*
X140803333Y-44823809D01*
X140803333Y-45061904D01*
X140755714Y-45157142D01*
X140708095Y-45204761D01*
X140612857Y-45252380D01*
X140327142Y-45252380D01*
X140231904Y-45204761D01*
X140184285Y-45157142D01*
X141422380Y-44252380D02*
X141517619Y-44252380D01*
X141612857Y-44300000D01*
X141660476Y-44347619D01*
X141708095Y-44442857D01*
X141755714Y-44633333D01*
X141755714Y-44871428D01*
X141708095Y-45061904D01*
X141660476Y-45157142D01*
X141612857Y-45204761D01*
X141517619Y-45252380D01*
X141422380Y-45252380D01*
X141327142Y-45204761D01*
X141279523Y-45157142D01*
X141231904Y-45061904D01*
X141184285Y-44871428D01*
X141184285Y-44633333D01*
X141231904Y-44442857D01*
X141279523Y-44347619D01*
X141327142Y-44300000D01*
X141422380Y-44252380D01*
X142374761Y-44252380D02*
X142470000Y-44252380D01*
X142565238Y-44300000D01*
X142612857Y-44347619D01*
X142660476Y-44442857D01*
X142708095Y-44633333D01*
X142708095Y-44871428D01*
X142660476Y-45061904D01*
X142612857Y-45157142D01*
X142565238Y-45204761D01*
X142470000Y-45252380D01*
X142374761Y-45252380D01*
X142279523Y-45204761D01*
X142231904Y-45157142D01*
X142184285Y-45061904D01*
X142136666Y-44871428D01*
X142136666Y-44633333D01*
X142184285Y-44442857D01*
X142231904Y-44347619D01*
X142279523Y-44300000D01*
X142374761Y-44252380D01*
%TO.C,D202*%
X75144523Y-114467380D02*
X75144523Y-113467380D01*
X75382619Y-113467380D01*
X75525476Y-113515000D01*
X75620714Y-113610238D01*
X75668333Y-113705476D01*
X75715952Y-113895952D01*
X75715952Y-114038809D01*
X75668333Y-114229285D01*
X75620714Y-114324523D01*
X75525476Y-114419761D01*
X75382619Y-114467380D01*
X75144523Y-114467380D01*
X76096904Y-113562619D02*
X76144523Y-113515000D01*
X76239761Y-113467380D01*
X76477857Y-113467380D01*
X76573095Y-113515000D01*
X76620714Y-113562619D01*
X76668333Y-113657857D01*
X76668333Y-113753095D01*
X76620714Y-113895952D01*
X76049285Y-114467380D01*
X76668333Y-114467380D01*
X77287380Y-113467380D02*
X77382619Y-113467380D01*
X77477857Y-113515000D01*
X77525476Y-113562619D01*
X77573095Y-113657857D01*
X77620714Y-113848333D01*
X77620714Y-114086428D01*
X77573095Y-114276904D01*
X77525476Y-114372142D01*
X77477857Y-114419761D01*
X77382619Y-114467380D01*
X77287380Y-114467380D01*
X77192142Y-114419761D01*
X77144523Y-114372142D01*
X77096904Y-114276904D01*
X77049285Y-114086428D01*
X77049285Y-113848333D01*
X77096904Y-113657857D01*
X77144523Y-113562619D01*
X77192142Y-113515000D01*
X77287380Y-113467380D01*
X78001666Y-113562619D02*
X78049285Y-113515000D01*
X78144523Y-113467380D01*
X78382619Y-113467380D01*
X78477857Y-113515000D01*
X78525476Y-113562619D01*
X78573095Y-113657857D01*
X78573095Y-113753095D01*
X78525476Y-113895952D01*
X77954047Y-114467380D01*
X78573095Y-114467380D01*
%TO.C,D201*%
X75144523Y-102402380D02*
X75144523Y-101402380D01*
X75382619Y-101402380D01*
X75525476Y-101450000D01*
X75620714Y-101545238D01*
X75668333Y-101640476D01*
X75715952Y-101830952D01*
X75715952Y-101973809D01*
X75668333Y-102164285D01*
X75620714Y-102259523D01*
X75525476Y-102354761D01*
X75382619Y-102402380D01*
X75144523Y-102402380D01*
X76096904Y-101497619D02*
X76144523Y-101450000D01*
X76239761Y-101402380D01*
X76477857Y-101402380D01*
X76573095Y-101450000D01*
X76620714Y-101497619D01*
X76668333Y-101592857D01*
X76668333Y-101688095D01*
X76620714Y-101830952D01*
X76049285Y-102402380D01*
X76668333Y-102402380D01*
X77287380Y-101402380D02*
X77382619Y-101402380D01*
X77477857Y-101450000D01*
X77525476Y-101497619D01*
X77573095Y-101592857D01*
X77620714Y-101783333D01*
X77620714Y-102021428D01*
X77573095Y-102211904D01*
X77525476Y-102307142D01*
X77477857Y-102354761D01*
X77382619Y-102402380D01*
X77287380Y-102402380D01*
X77192142Y-102354761D01*
X77144523Y-102307142D01*
X77096904Y-102211904D01*
X77049285Y-102021428D01*
X77049285Y-101783333D01*
X77096904Y-101592857D01*
X77144523Y-101497619D01*
X77192142Y-101450000D01*
X77287380Y-101402380D01*
X78573095Y-102402380D02*
X78001666Y-102402380D01*
X78287380Y-102402380D02*
X78287380Y-101402380D01*
X78192142Y-101545238D01*
X78096904Y-101640476D01*
X78001666Y-101688095D01*
%TO.C,D101*%
X73874523Y-90972380D02*
X73874523Y-89972380D01*
X74112619Y-89972380D01*
X74255476Y-90020000D01*
X74350714Y-90115238D01*
X74398333Y-90210476D01*
X74445952Y-90400952D01*
X74445952Y-90543809D01*
X74398333Y-90734285D01*
X74350714Y-90829523D01*
X74255476Y-90924761D01*
X74112619Y-90972380D01*
X73874523Y-90972380D01*
X75398333Y-90972380D02*
X74826904Y-90972380D01*
X75112619Y-90972380D02*
X75112619Y-89972380D01*
X75017380Y-90115238D01*
X74922142Y-90210476D01*
X74826904Y-90258095D01*
X76017380Y-89972380D02*
X76112619Y-89972380D01*
X76207857Y-90020000D01*
X76255476Y-90067619D01*
X76303095Y-90162857D01*
X76350714Y-90353333D01*
X76350714Y-90591428D01*
X76303095Y-90781904D01*
X76255476Y-90877142D01*
X76207857Y-90924761D01*
X76112619Y-90972380D01*
X76017380Y-90972380D01*
X75922142Y-90924761D01*
X75874523Y-90877142D01*
X75826904Y-90781904D01*
X75779285Y-90591428D01*
X75779285Y-90353333D01*
X75826904Y-90162857D01*
X75874523Y-90067619D01*
X75922142Y-90020000D01*
X76017380Y-89972380D01*
X77303095Y-90972380D02*
X76731666Y-90972380D01*
X77017380Y-90972380D02*
X77017380Y-89972380D01*
X76922142Y-90115238D01*
X76826904Y-90210476D01*
X76731666Y-90258095D01*
%TO.C,J3*%
X131111666Y-39032380D02*
X131111666Y-39746666D01*
X131064047Y-39889523D01*
X130968809Y-39984761D01*
X130825952Y-40032380D01*
X130730714Y-40032380D01*
X131492619Y-39032380D02*
X132111666Y-39032380D01*
X131778333Y-39413333D01*
X131921190Y-39413333D01*
X132016428Y-39460952D01*
X132064047Y-39508571D01*
X132111666Y-39603809D01*
X132111666Y-39841904D01*
X132064047Y-39937142D01*
X132016428Y-39984761D01*
X131921190Y-40032380D01*
X131635476Y-40032380D01*
X131540238Y-39984761D01*
X131492619Y-39937142D01*
%TO.C,J2*%
X108251666Y-91952380D02*
X108251666Y-92666666D01*
X108204047Y-92809523D01*
X108108809Y-92904761D01*
X107965952Y-92952380D01*
X107870714Y-92952380D01*
X108680238Y-92047619D02*
X108727857Y-92000000D01*
X108823095Y-91952380D01*
X109061190Y-91952380D01*
X109156428Y-92000000D01*
X109204047Y-92047619D01*
X109251666Y-92142857D01*
X109251666Y-92238095D01*
X109204047Y-92380952D01*
X108632619Y-92952380D01*
X109251666Y-92952380D01*
%TO.C,R301*%
X93495952Y-121017380D02*
X93162619Y-120541190D01*
X92924523Y-121017380D02*
X92924523Y-120017380D01*
X93305476Y-120017380D01*
X93400714Y-120065000D01*
X93448333Y-120112619D01*
X93495952Y-120207857D01*
X93495952Y-120350714D01*
X93448333Y-120445952D01*
X93400714Y-120493571D01*
X93305476Y-120541190D01*
X92924523Y-120541190D01*
X93829285Y-120017380D02*
X94448333Y-120017380D01*
X94115000Y-120398333D01*
X94257857Y-120398333D01*
X94353095Y-120445952D01*
X94400714Y-120493571D01*
X94448333Y-120588809D01*
X94448333Y-120826904D01*
X94400714Y-120922142D01*
X94353095Y-120969761D01*
X94257857Y-121017380D01*
X93972142Y-121017380D01*
X93876904Y-120969761D01*
X93829285Y-120922142D01*
X95067380Y-120017380D02*
X95162619Y-120017380D01*
X95257857Y-120065000D01*
X95305476Y-120112619D01*
X95353095Y-120207857D01*
X95400714Y-120398333D01*
X95400714Y-120636428D01*
X95353095Y-120826904D01*
X95305476Y-120922142D01*
X95257857Y-120969761D01*
X95162619Y-121017380D01*
X95067380Y-121017380D01*
X94972142Y-120969761D01*
X94924523Y-120922142D01*
X94876904Y-120826904D01*
X94829285Y-120636428D01*
X94829285Y-120398333D01*
X94876904Y-120207857D01*
X94924523Y-120112619D01*
X94972142Y-120065000D01*
X95067380Y-120017380D01*
X96353095Y-121017380D02*
X95781666Y-121017380D01*
X96067380Y-121017380D02*
X96067380Y-120017380D01*
X95972142Y-120160238D01*
X95876904Y-120255476D01*
X95781666Y-120303095D01*
%TO.C,R204*%
X71270952Y-127537380D02*
X70937619Y-127061190D01*
X70699523Y-127537380D02*
X70699523Y-126537380D01*
X71080476Y-126537380D01*
X71175714Y-126585000D01*
X71223333Y-126632619D01*
X71270952Y-126727857D01*
X71270952Y-126870714D01*
X71223333Y-126965952D01*
X71175714Y-127013571D01*
X71080476Y-127061190D01*
X70699523Y-127061190D01*
X71651904Y-126632619D02*
X71699523Y-126585000D01*
X71794761Y-126537380D01*
X72032857Y-126537380D01*
X72128095Y-126585000D01*
X72175714Y-126632619D01*
X72223333Y-126727857D01*
X72223333Y-126823095D01*
X72175714Y-126965952D01*
X71604285Y-127537380D01*
X72223333Y-127537380D01*
X72842380Y-126537380D02*
X72937619Y-126537380D01*
X73032857Y-126585000D01*
X73080476Y-126632619D01*
X73128095Y-126727857D01*
X73175714Y-126918333D01*
X73175714Y-127156428D01*
X73128095Y-127346904D01*
X73080476Y-127442142D01*
X73032857Y-127489761D01*
X72937619Y-127537380D01*
X72842380Y-127537380D01*
X72747142Y-127489761D01*
X72699523Y-127442142D01*
X72651904Y-127346904D01*
X72604285Y-127156428D01*
X72604285Y-126918333D01*
X72651904Y-126727857D01*
X72699523Y-126632619D01*
X72747142Y-126585000D01*
X72842380Y-126537380D01*
X74032857Y-126870714D02*
X74032857Y-127537380D01*
X73794761Y-126489761D02*
X73556666Y-127204047D01*
X74175714Y-127204047D01*
%TO.C,R203*%
X67042380Y-143994047D02*
X66566190Y-144327380D01*
X67042380Y-144565476D02*
X66042380Y-144565476D01*
X66042380Y-144184523D01*
X66090000Y-144089285D01*
X66137619Y-144041666D01*
X66232857Y-143994047D01*
X66375714Y-143994047D01*
X66470952Y-144041666D01*
X66518571Y-144089285D01*
X66566190Y-144184523D01*
X66566190Y-144565476D01*
X66137619Y-143613095D02*
X66090000Y-143565476D01*
X66042380Y-143470238D01*
X66042380Y-143232142D01*
X66090000Y-143136904D01*
X66137619Y-143089285D01*
X66232857Y-143041666D01*
X66328095Y-143041666D01*
X66470952Y-143089285D01*
X67042380Y-143660714D01*
X67042380Y-143041666D01*
X66042380Y-142422619D02*
X66042380Y-142327380D01*
X66090000Y-142232142D01*
X66137619Y-142184523D01*
X66232857Y-142136904D01*
X66423333Y-142089285D01*
X66661428Y-142089285D01*
X66851904Y-142136904D01*
X66947142Y-142184523D01*
X66994761Y-142232142D01*
X67042380Y-142327380D01*
X67042380Y-142422619D01*
X66994761Y-142517857D01*
X66947142Y-142565476D01*
X66851904Y-142613095D01*
X66661428Y-142660714D01*
X66423333Y-142660714D01*
X66232857Y-142613095D01*
X66137619Y-142565476D01*
X66090000Y-142517857D01*
X66042380Y-142422619D01*
X66042380Y-141755952D02*
X66042380Y-141136904D01*
X66423333Y-141470238D01*
X66423333Y-141327380D01*
X66470952Y-141232142D01*
X66518571Y-141184523D01*
X66613809Y-141136904D01*
X66851904Y-141136904D01*
X66947142Y-141184523D01*
X66994761Y-141232142D01*
X67042380Y-141327380D01*
X67042380Y-141613095D01*
X66994761Y-141708333D01*
X66947142Y-141755952D01*
%TO.C,R202*%
X66190952Y-115387380D02*
X65857619Y-114911190D01*
X65619523Y-115387380D02*
X65619523Y-114387380D01*
X66000476Y-114387380D01*
X66095714Y-114435000D01*
X66143333Y-114482619D01*
X66190952Y-114577857D01*
X66190952Y-114720714D01*
X66143333Y-114815952D01*
X66095714Y-114863571D01*
X66000476Y-114911190D01*
X65619523Y-114911190D01*
X66571904Y-114482619D02*
X66619523Y-114435000D01*
X66714761Y-114387380D01*
X66952857Y-114387380D01*
X67048095Y-114435000D01*
X67095714Y-114482619D01*
X67143333Y-114577857D01*
X67143333Y-114673095D01*
X67095714Y-114815952D01*
X66524285Y-115387380D01*
X67143333Y-115387380D01*
X67762380Y-114387380D02*
X67857619Y-114387380D01*
X67952857Y-114435000D01*
X68000476Y-114482619D01*
X68048095Y-114577857D01*
X68095714Y-114768333D01*
X68095714Y-115006428D01*
X68048095Y-115196904D01*
X68000476Y-115292142D01*
X67952857Y-115339761D01*
X67857619Y-115387380D01*
X67762380Y-115387380D01*
X67667142Y-115339761D01*
X67619523Y-115292142D01*
X67571904Y-115196904D01*
X67524285Y-115006428D01*
X67524285Y-114768333D01*
X67571904Y-114577857D01*
X67619523Y-114482619D01*
X67667142Y-114435000D01*
X67762380Y-114387380D01*
X68476666Y-114482619D02*
X68524285Y-114435000D01*
X68619523Y-114387380D01*
X68857619Y-114387380D01*
X68952857Y-114435000D01*
X69000476Y-114482619D01*
X69048095Y-114577857D01*
X69048095Y-114673095D01*
X69000476Y-114815952D01*
X68429047Y-115387380D01*
X69048095Y-115387380D01*
%TO.C,R201*%
X66190952Y-103322380D02*
X65857619Y-102846190D01*
X65619523Y-103322380D02*
X65619523Y-102322380D01*
X66000476Y-102322380D01*
X66095714Y-102370000D01*
X66143333Y-102417619D01*
X66190952Y-102512857D01*
X66190952Y-102655714D01*
X66143333Y-102750952D01*
X66095714Y-102798571D01*
X66000476Y-102846190D01*
X65619523Y-102846190D01*
X66571904Y-102417619D02*
X66619523Y-102370000D01*
X66714761Y-102322380D01*
X66952857Y-102322380D01*
X67048095Y-102370000D01*
X67095714Y-102417619D01*
X67143333Y-102512857D01*
X67143333Y-102608095D01*
X67095714Y-102750952D01*
X66524285Y-103322380D01*
X67143333Y-103322380D01*
X67762380Y-102322380D02*
X67857619Y-102322380D01*
X67952857Y-102370000D01*
X68000476Y-102417619D01*
X68048095Y-102512857D01*
X68095714Y-102703333D01*
X68095714Y-102941428D01*
X68048095Y-103131904D01*
X68000476Y-103227142D01*
X67952857Y-103274761D01*
X67857619Y-103322380D01*
X67762380Y-103322380D01*
X67667142Y-103274761D01*
X67619523Y-103227142D01*
X67571904Y-103131904D01*
X67524285Y-102941428D01*
X67524285Y-102703333D01*
X67571904Y-102512857D01*
X67619523Y-102417619D01*
X67667142Y-102370000D01*
X67762380Y-102322380D01*
X69048095Y-103322380D02*
X68476666Y-103322380D01*
X68762380Y-103322380D02*
X68762380Y-102322380D01*
X68667142Y-102465238D01*
X68571904Y-102560476D01*
X68476666Y-102608095D01*
%TO.C,R101*%
X66190952Y-96252380D02*
X65857619Y-95776190D01*
X65619523Y-96252380D02*
X65619523Y-95252380D01*
X66000476Y-95252380D01*
X66095714Y-95300000D01*
X66143333Y-95347619D01*
X66190952Y-95442857D01*
X66190952Y-95585714D01*
X66143333Y-95680952D01*
X66095714Y-95728571D01*
X66000476Y-95776190D01*
X65619523Y-95776190D01*
X67143333Y-96252380D02*
X66571904Y-96252380D01*
X66857619Y-96252380D02*
X66857619Y-95252380D01*
X66762380Y-95395238D01*
X66667142Y-95490476D01*
X66571904Y-95538095D01*
X67762380Y-95252380D02*
X67857619Y-95252380D01*
X67952857Y-95300000D01*
X68000476Y-95347619D01*
X68048095Y-95442857D01*
X68095714Y-95633333D01*
X68095714Y-95871428D01*
X68048095Y-96061904D01*
X68000476Y-96157142D01*
X67952857Y-96204761D01*
X67857619Y-96252380D01*
X67762380Y-96252380D01*
X67667142Y-96204761D01*
X67619523Y-96157142D01*
X67571904Y-96061904D01*
X67524285Y-95871428D01*
X67524285Y-95633333D01*
X67571904Y-95442857D01*
X67619523Y-95347619D01*
X67667142Y-95300000D01*
X67762380Y-95252380D01*
X69048095Y-96252380D02*
X68476666Y-96252380D01*
X68762380Y-96252380D02*
X68762380Y-95252380D01*
X68667142Y-95395238D01*
X68571904Y-95490476D01*
X68476666Y-95538095D01*
%TO.C,JP202*%
X82034285Y-156297380D02*
X82034285Y-157011666D01*
X81986666Y-157154523D01*
X81891428Y-157249761D01*
X81748571Y-157297380D01*
X81653333Y-157297380D01*
X82510476Y-157297380D02*
X82510476Y-156297380D01*
X82891428Y-156297380D01*
X82986666Y-156345000D01*
X83034285Y-156392619D01*
X83081904Y-156487857D01*
X83081904Y-156630714D01*
X83034285Y-156725952D01*
X82986666Y-156773571D01*
X82891428Y-156821190D01*
X82510476Y-156821190D01*
X83462857Y-156392619D02*
X83510476Y-156345000D01*
X83605714Y-156297380D01*
X83843809Y-156297380D01*
X83939047Y-156345000D01*
X83986666Y-156392619D01*
X84034285Y-156487857D01*
X84034285Y-156583095D01*
X83986666Y-156725952D01*
X83415238Y-157297380D01*
X84034285Y-157297380D01*
X84653333Y-156297380D02*
X84748571Y-156297380D01*
X84843809Y-156345000D01*
X84891428Y-156392619D01*
X84939047Y-156487857D01*
X84986666Y-156678333D01*
X84986666Y-156916428D01*
X84939047Y-157106904D01*
X84891428Y-157202142D01*
X84843809Y-157249761D01*
X84748571Y-157297380D01*
X84653333Y-157297380D01*
X84558095Y-157249761D01*
X84510476Y-157202142D01*
X84462857Y-157106904D01*
X84415238Y-156916428D01*
X84415238Y-156678333D01*
X84462857Y-156487857D01*
X84510476Y-156392619D01*
X84558095Y-156345000D01*
X84653333Y-156297380D01*
X85367619Y-156392619D02*
X85415238Y-156345000D01*
X85510476Y-156297380D01*
X85748571Y-156297380D01*
X85843809Y-156345000D01*
X85891428Y-156392619D01*
X85939047Y-156487857D01*
X85939047Y-156583095D01*
X85891428Y-156725952D01*
X85320000Y-157297380D01*
X85939047Y-157297380D01*
%TO.C,JP201*%
X82034285Y-141057380D02*
X82034285Y-141771666D01*
X81986666Y-141914523D01*
X81891428Y-142009761D01*
X81748571Y-142057380D01*
X81653333Y-142057380D01*
X82510476Y-142057380D02*
X82510476Y-141057380D01*
X82891428Y-141057380D01*
X82986666Y-141105000D01*
X83034285Y-141152619D01*
X83081904Y-141247857D01*
X83081904Y-141390714D01*
X83034285Y-141485952D01*
X82986666Y-141533571D01*
X82891428Y-141581190D01*
X82510476Y-141581190D01*
X83462857Y-141152619D02*
X83510476Y-141105000D01*
X83605714Y-141057380D01*
X83843809Y-141057380D01*
X83939047Y-141105000D01*
X83986666Y-141152619D01*
X84034285Y-141247857D01*
X84034285Y-141343095D01*
X83986666Y-141485952D01*
X83415238Y-142057380D01*
X84034285Y-142057380D01*
X84653333Y-141057380D02*
X84748571Y-141057380D01*
X84843809Y-141105000D01*
X84891428Y-141152619D01*
X84939047Y-141247857D01*
X84986666Y-141438333D01*
X84986666Y-141676428D01*
X84939047Y-141866904D01*
X84891428Y-141962142D01*
X84843809Y-142009761D01*
X84748571Y-142057380D01*
X84653333Y-142057380D01*
X84558095Y-142009761D01*
X84510476Y-141962142D01*
X84462857Y-141866904D01*
X84415238Y-141676428D01*
X84415238Y-141438333D01*
X84462857Y-141247857D01*
X84510476Y-141152619D01*
X84558095Y-141105000D01*
X84653333Y-141057380D01*
X85939047Y-142057380D02*
X85367619Y-142057380D01*
X85653333Y-142057380D02*
X85653333Y-141057380D01*
X85558095Y-141200238D01*
X85462857Y-141295476D01*
X85367619Y-141343095D01*
%TO.C,JP3*%
X87082380Y-132913333D02*
X87796666Y-132913333D01*
X87939523Y-132960952D01*
X88034761Y-133056190D01*
X88082380Y-133199047D01*
X88082380Y-133294285D01*
X88082380Y-132437142D02*
X87082380Y-132437142D01*
X87082380Y-132056190D01*
X87130000Y-131960952D01*
X87177619Y-131913333D01*
X87272857Y-131865714D01*
X87415714Y-131865714D01*
X87510952Y-131913333D01*
X87558571Y-131960952D01*
X87606190Y-132056190D01*
X87606190Y-132437142D01*
X87082380Y-131532380D02*
X87082380Y-130913333D01*
X87463333Y-131246666D01*
X87463333Y-131103809D01*
X87510952Y-131008571D01*
X87558571Y-130960952D01*
X87653809Y-130913333D01*
X87891904Y-130913333D01*
X87987142Y-130960952D01*
X88034761Y-131008571D01*
X88082380Y-131103809D01*
X88082380Y-131389523D01*
X88034761Y-131484761D01*
X87987142Y-131532380D01*
%TO.C,J100*%
X67734285Y-80767380D02*
X67734285Y-81481666D01*
X67686666Y-81624523D01*
X67591428Y-81719761D01*
X67448571Y-81767380D01*
X67353333Y-81767380D01*
X68734285Y-81767380D02*
X68162857Y-81767380D01*
X68448571Y-81767380D02*
X68448571Y-80767380D01*
X68353333Y-80910238D01*
X68258095Y-81005476D01*
X68162857Y-81053095D01*
X69353333Y-80767380D02*
X69448571Y-80767380D01*
X69543809Y-80815000D01*
X69591428Y-80862619D01*
X69639047Y-80957857D01*
X69686666Y-81148333D01*
X69686666Y-81386428D01*
X69639047Y-81576904D01*
X69591428Y-81672142D01*
X69543809Y-81719761D01*
X69448571Y-81767380D01*
X69353333Y-81767380D01*
X69258095Y-81719761D01*
X69210476Y-81672142D01*
X69162857Y-81576904D01*
X69115238Y-81386428D01*
X69115238Y-81148333D01*
X69162857Y-80957857D01*
X69210476Y-80862619D01*
X69258095Y-80815000D01*
X69353333Y-80767380D01*
X70305714Y-80767380D02*
X70400952Y-80767380D01*
X70496190Y-80815000D01*
X70543809Y-80862619D01*
X70591428Y-80957857D01*
X70639047Y-81148333D01*
X70639047Y-81386428D01*
X70591428Y-81576904D01*
X70543809Y-81672142D01*
X70496190Y-81719761D01*
X70400952Y-81767380D01*
X70305714Y-81767380D01*
X70210476Y-81719761D01*
X70162857Y-81672142D01*
X70115238Y-81576904D01*
X70067619Y-81386428D01*
X70067619Y-81148333D01*
X70115238Y-80957857D01*
X70162857Y-80862619D01*
X70210476Y-80815000D01*
X70305714Y-80767380D01*
%TO.C,C204*%
X120165952Y-136882142D02*
X120118333Y-136929761D01*
X119975476Y-136977380D01*
X119880238Y-136977380D01*
X119737380Y-136929761D01*
X119642142Y-136834523D01*
X119594523Y-136739285D01*
X119546904Y-136548809D01*
X119546904Y-136405952D01*
X119594523Y-136215476D01*
X119642142Y-136120238D01*
X119737380Y-136025000D01*
X119880238Y-135977380D01*
X119975476Y-135977380D01*
X120118333Y-136025000D01*
X120165952Y-136072619D01*
X120546904Y-136072619D02*
X120594523Y-136025000D01*
X120689761Y-135977380D01*
X120927857Y-135977380D01*
X121023095Y-136025000D01*
X121070714Y-136072619D01*
X121118333Y-136167857D01*
X121118333Y-136263095D01*
X121070714Y-136405952D01*
X120499285Y-136977380D01*
X121118333Y-136977380D01*
X121737380Y-135977380D02*
X121832619Y-135977380D01*
X121927857Y-136025000D01*
X121975476Y-136072619D01*
X122023095Y-136167857D01*
X122070714Y-136358333D01*
X122070714Y-136596428D01*
X122023095Y-136786904D01*
X121975476Y-136882142D01*
X121927857Y-136929761D01*
X121832619Y-136977380D01*
X121737380Y-136977380D01*
X121642142Y-136929761D01*
X121594523Y-136882142D01*
X121546904Y-136786904D01*
X121499285Y-136596428D01*
X121499285Y-136358333D01*
X121546904Y-136167857D01*
X121594523Y-136072619D01*
X121642142Y-136025000D01*
X121737380Y-135977380D01*
X122927857Y-136310714D02*
X122927857Y-136977380D01*
X122689761Y-135929761D02*
X122451666Y-136644047D01*
X123070714Y-136644047D01*
%TO.C,C202*%
X114450952Y-120952142D02*
X114403333Y-120999761D01*
X114260476Y-121047380D01*
X114165238Y-121047380D01*
X114022380Y-120999761D01*
X113927142Y-120904523D01*
X113879523Y-120809285D01*
X113831904Y-120618809D01*
X113831904Y-120475952D01*
X113879523Y-120285476D01*
X113927142Y-120190238D01*
X114022380Y-120095000D01*
X114165238Y-120047380D01*
X114260476Y-120047380D01*
X114403333Y-120095000D01*
X114450952Y-120142619D01*
X114831904Y-120142619D02*
X114879523Y-120095000D01*
X114974761Y-120047380D01*
X115212857Y-120047380D01*
X115308095Y-120095000D01*
X115355714Y-120142619D01*
X115403333Y-120237857D01*
X115403333Y-120333095D01*
X115355714Y-120475952D01*
X114784285Y-121047380D01*
X115403333Y-121047380D01*
X116022380Y-120047380D02*
X116117619Y-120047380D01*
X116212857Y-120095000D01*
X116260476Y-120142619D01*
X116308095Y-120237857D01*
X116355714Y-120428333D01*
X116355714Y-120666428D01*
X116308095Y-120856904D01*
X116260476Y-120952142D01*
X116212857Y-120999761D01*
X116117619Y-121047380D01*
X116022380Y-121047380D01*
X115927142Y-120999761D01*
X115879523Y-120952142D01*
X115831904Y-120856904D01*
X115784285Y-120666428D01*
X115784285Y-120428333D01*
X115831904Y-120237857D01*
X115879523Y-120142619D01*
X115927142Y-120095000D01*
X116022380Y-120047380D01*
X116736666Y-120142619D02*
X116784285Y-120095000D01*
X116879523Y-120047380D01*
X117117619Y-120047380D01*
X117212857Y-120095000D01*
X117260476Y-120142619D01*
X117308095Y-120237857D01*
X117308095Y-120333095D01*
X117260476Y-120475952D01*
X116689047Y-121047380D01*
X117308095Y-121047380D01*
%TD*%
M02*
